SplineFontDB: 3.2
FontName: white-bunnybat
FullName: white-bunnybat
FamilyName: white-bunnybat
Weight: Book
Copyright: Copyright (c) 1999 by Matthew Welch,\nCopyright (c) 2014-2022, Drizzly Bear LLC\nCopyright (c) 2023, ComCODE (https://comcode.org/)
Version: 1.00
ItalicAngle: 0
UnderlinePosition: 0
UnderlineWidth: 0
Ascent: 1638
Descent: 410
InvalidEm: 0
sfntRevision: 0x00000000
LayerCount: 2
Layer: 0 1 "Back" 1
Layer: 1 1 "Fore" 0
XUID: [1021 223 -401202833 5203]
StyleMap: 0x0040
FSType: 4
OS2Version: 1
OS2_WeightWidthSlopeOnly: 0
OS2_UseTypoMetrics: 0
CreationTime: 924479787
ModificationTime: 1769569685
PfmFamily: 81
TTFWeight: 400
TTFWidth: 5
LineGap: 0
VLineGap: 0
Panose: 0 0 0 9 0 0 0 0 0 0
OS2TypoAscent: 1365
OS2TypoAOffset: 0
OS2TypoDescent: -195
OS2TypoDOffset: 0
OS2TypoLinegap: 0
OS2WinAscent: 1365
OS2WinAOffset: 0
OS2WinDescent: 195
OS2WinDOffset: 0
HheadAscent: 1365
HheadAOffset: 0
HheadDescent: -195
HheadDOffset: 0
OS2SubXSize: 0
OS2SubYSize: 0
OS2SubXOff: 0
OS2SubYOff: 0
OS2SupXSize: 0
OS2SupYSize: 0
OS2SupXOff: 0
OS2SupYOff: 0
OS2StrikeYSize: 0
OS2StrikeYPos: 0
OS2Vendor: 'sfty'
OS2CodePages: 000000ff.c0000000
OS2UnicodeRanges: 00000007.00000000.00000000.00000000
MarkAttachClasses: 1
DEI: 91125
ShortTable: cvt  2
  68
  1297
EndShort
ShortTable: maxp 16
  1
  0
  196
  168
  42
  0
  0
  1
  0
  0
  0
  0
  0
  46
  0
  0
EndShort
LangName: 1033 "Copyright +AKkA 1999 by Matthew Welch.+AAoA-Copyright +AKkA 2014-2022, Drizzly Bear LLC+AAoA-Copyright +AKkA 2023, ComCODE (https://comcode.org/)" "" "Regular" "white-bunnybat:Version 1.00" "" "Version 1.00"
GaspTable: 1 65535 15 1
Encoding: UnicodeBmp
UnicodeInterp: none
NameList: AGL For New Fonts
DisplaySize: -48
AntiAlias: 1
FitToEm: 0
BeginChars: 65539 196

StartChar: .notdef
Encoding: 65536 -1 0
Width: 1200
GlyphClass: 1
Flags: W
LayerCount: 2
Fore
SplineSet
68 0 m 1,0,-1
 68 1365 l 1,1,-1
 1132 1365 l 1,2,-1
 1132 0 l 1,3,-1
 68 0 l 1,0,-1
136 68 m 1,4,-1
 1064 68 l 1,5,-1
 1064 1297 l 1,6,-1
 136 1297 l 1,7,-1
 136 68 l 1,4,-1
EndSplineSet
EndChar

StartChar: exclam
Encoding: 33 33 4
Width: 1200
GlyphClass: 2
Flags: W
LayerCount: 2
Fore
SplineSet
503 1365 m 2,0,-1
 698 1365 l 2,1,2
 737 1365 737 1365 766 1336 c 128,-1,3
 795 1307 795 1307 795 1268 c 2,4,-1
 795 683 l 2,5,6
 795 644 795 644 766 614.5 c 128,-1,7
 737 585 737 585 698 585 c 2,8,-1
 503 585 l 2,9,10
 464 585 464 585 434.5 614.5 c 128,-1,11
 405 644 405 644 405 683 c 2,12,-1
 405 1268 l 2,13,14
 405 1307 405 1307 434.5 1336 c 128,-1,15
 464 1365 464 1365 503 1365 c 2,0,-1
503 390 m 2,16,-1
 698 390 l 2,17,18
 737 390 737 390 766 361 c 128,-1,19
 795 332 795 332 795 293 c 2,20,-1
 795 98 l 2,21,22
 795 59 795 59 766 29.5 c 128,-1,23
 737 0 737 0 698 0 c 2,24,-1
 503 0 l 2,25,26
 464 0 464 0 434.5 29.5 c 128,-1,27
 405 59 405 59 405 98 c 2,28,-1
 405 293 l 2,29,30
 405 332 405 332 434.5 361 c 128,-1,31
 464 390 464 390 503 390 c 2,16,-1
EndSplineSet
EndChar

StartChar: quotedbl
Encoding: 34 34 5
Width: 1200
GlyphClass: 2
Flags: W
LayerCount: 2
Fore
SplineSet
698 1268 m 2,0,1
 698 1307 698 1307 727 1336 c 128,-1,2
 756 1365 756 1365 795 1365 c 128,-1,3
 834 1365 834 1365 863 1336 c 128,-1,4
 892 1307 892 1307 892 1268 c 2,5,-1
 892 1073 l 2,6,7
 892 1034 892 1034 863 1004.5 c 128,-1,8
 834 975 834 975 795 975 c 128,-1,9
 756 975 756 975 727 1004.5 c 128,-1,10
 698 1034 698 1034 698 1073 c 2,11,-1
 698 1268 l 2,0,1
308 1268 m 2,12,13
 308 1307 308 1307 337 1336 c 128,-1,14
 366 1365 366 1365 405 1365 c 128,-1,15
 444 1365 444 1365 473 1336 c 128,-1,16
 502 1307 502 1307 502 1268 c 2,17,-1
 502 1073 l 2,18,19
 502 1034 502 1034 473 1004.5 c 128,-1,20
 444 975 444 975 405 975 c 128,-1,21
 366 975 366 975 337 1004.5 c 128,-1,22
 308 1034 308 1034 308 1073 c 2,23,-1
 308 1268 l 2,12,13
EndSplineSet
EndChar

StartChar: numbersign
Encoding: 35 35 6
Width: 1200
GlyphClass: 2
Flags: W
LayerCount: 2
Fore
SplineSet
794 0 m 256,0,1
 755 0 755 0 726.5 29.5 c 128,-1,2
 698 59 698 59 698 98 c 2,3,-1
 698 390 l 1,4,-1
 502 390 l 1,5,-1
 502 98 l 2,6,7
 502 59 502 59 473 29.5 c 128,-1,8
 444 0 444 0 404 0 c 0,9,10
 365 0 365 0 336.5 29.5 c 128,-1,11
 308 59 308 59 308 98 c 2,12,-1
 308 390 l 1,13,-1
 210 390 l 2,14,15
 171 390 171 390 141.5 419.5 c 128,-1,16
 112 449 112 449 112 488 c 128,-1,17
 112 527 112 527 141 556 c 128,-1,18
 170 585 170 585 210 585 c 2,19,-1
 308 585 l 1,20,-1
 308 780 l 1,21,-1
 210 780 l 2,22,23
 171 780 171 780 141.5 809.5 c 128,-1,24
 112 839 112 839 112 878 c 128,-1,25
 112 917 112 917 141 946 c 128,-1,26
 170 975 170 975 210 975 c 2,27,-1
 308 975 l 1,28,-1
 308 1268 l 2,29,30
 308 1307 308 1307 337 1336 c 128,-1,31
 366 1365 366 1365 405 1365 c 128,-1,32
 444 1365 444 1365 473 1336 c 128,-1,33
 502 1307 502 1307 502 1268 c 2,34,-1
 502 975 l 1,35,-1
 698 975 l 1,36,-1
 698 1268 l 2,37,38
 698 1307 698 1307 727 1336 c 128,-1,39
 756 1365 756 1365 795 1365 c 128,-1,40
 834 1365 834 1365 863 1336 c 128,-1,41
 892 1307 892 1307 892 1268 c 2,42,-1
 892 975 l 1,43,-1
 990 975 l 2,44,45
 1029 975 1029 975 1058.5 946 c 128,-1,46
 1088 917 1088 917 1088 878 c 128,-1,47
 1088 839 1088 839 1058 809.5 c 128,-1,48
 1028 780 1028 780 990 780 c 2,49,-1
 892 780 l 1,50,-1
 892 585 l 1,51,-1
 990 585 l 2,52,53
 1029 585 1029 585 1058.5 556 c 128,-1,54
 1088 527 1088 527 1088 488 c 128,-1,55
 1088 449 1088 449 1058 419.5 c 128,-1,56
 1028 390 1028 390 990 390 c 2,57,-1
 892 390 l 1,58,-1
 892 98 l 2,59,60
 892 59 892 59 862.5 29.5 c 128,-1,61
 833 0 833 0 794 0 c 256,0,1
502 780 m 1,62,-1
 502 585 l 1,63,-1
 698 585 l 1,64,-1
 698 780 l 1,65,-1
 502 780 l 1,62,-1
EndSplineSet
EndChar

StartChar: dollar
Encoding: 36 36 7
Width: 1200
GlyphClass: 2
Flags: W
LayerCount: 2
Fore
SplineSet
600 0 m 256,0,1
 561 0 561 0 531.5 29.5 c 128,-1,2
 502 59 502 59 502 98 c 2,3,-1
 502 195 l 1,4,-1
 210 195 l 2,5,6
 171 195 171 195 141.5 224.5 c 128,-1,7
 112 254 112 254 112 293 c 128,-1,8
 112 332 112 332 141 361 c 128,-1,9
 170 390 170 390 210 390 c 2,10,-1
 502 390 l 1,11,-1
 502 585 l 1,12,-1
 404 585 l 2,13,14
 287 585 287 585 199.5 673 c 128,-1,15
 112 761 112 761 112 878 c 128,-1,16
 112 995 112 995 200 1082.5 c 128,-1,17
 288 1170 288 1170 404 1170 c 2,18,-1
 502 1170 l 1,19,-1
 502 1268 l 2,20,21
 502 1307 502 1307 531 1336 c 128,-1,22
 560 1365 560 1365 599 1365 c 128,-1,23
 638 1365 638 1365 668 1336 c 128,-1,24
 698 1307 698 1307 698 1268 c 2,25,-1
 698 1170 l 1,26,-1
 990 1170 l 2,27,28
 1029 1170 1029 1170 1058.5 1141 c 128,-1,29
 1088 1112 1088 1112 1088 1073 c 128,-1,30
 1088 1034 1088 1034 1058 1004.5 c 128,-1,31
 1028 975 1028 975 990 975 c 2,32,-1
 698 975 l 1,33,-1
 698 780 l 1,34,-1
 794 780 l 2,35,36
 911 780 911 780 999.5 692.5 c 128,-1,37
 1088 605 1088 605 1088 488 c 128,-1,38
 1088 371 1088 371 1000 283 c 128,-1,39
 912 195 912 195 794 195 c 2,40,-1
 698 195 l 1,41,-1
 698 98 l 2,42,43
 698 59 698 59 668.5 29.5 c 128,-1,44
 639 0 639 0 600 0 c 256,0,1
308 878 m 256,45,46
 308 839 308 839 337 809.5 c 128,-1,47
 366 780 366 780 404 780 c 2,48,-1
 502 780 l 1,49,-1
 502 975 l 1,50,-1
 404 975 l 2,51,52
 365 975 365 975 336.5 946 c 128,-1,53
 308 917 308 917 308 878 c 256,45,46
794 585 m 2,54,-1
 698 585 l 1,55,-1
 698 390 l 1,56,-1
 794 390 l 2,57,58
 833 390 833 390 862.5 419.5 c 128,-1,59
 892 449 892 449 892 488 c 128,-1,60
 892 527 892 527 862.5 556 c 128,-1,61
 833 585 833 585 794 585 c 2,54,-1
EndSplineSet
EndChar

StartChar: percent
Encoding: 37 37 8
Width: 1200
GlyphClass: 2
Flags: W
LayerCount: 2
Fore
SplineSet
794 0 m 2,0,1
 755 0 755 0 726.5 29.5 c 128,-1,2
 698 59 698 59 698 98 c 2,3,-1
 698 293 l 2,4,5
 698 332 698 332 727 361 c 128,-1,6
 756 390 756 390 794 390 c 2,7,-1
 990 390 l 2,8,9
 1029 390 1029 390 1058.5 361 c 128,-1,10
 1088 332 1088 332 1088 293 c 2,11,-1
 1088 98 l 2,12,13
 1088 59 1088 59 1058 29.5 c 128,-1,14
 1028 0 1028 0 990 0 c 2,15,-1
 794 0 l 2,0,1
210 975 m 2,16,17
 171 975 171 975 141.5 1004.5 c 128,-1,18
 112 1034 112 1034 112 1073 c 2,19,-1
 112 1268 l 2,20,21
 112 1307 112 1307 141 1336 c 128,-1,22
 170 1365 170 1365 210 1365 c 2,23,-1
 404 1365 l 2,24,25
 443 1365 443 1365 472.5 1336 c 128,-1,26
 502 1307 502 1307 502 1268 c 2,27,-1
 502 1073 l 2,28,29
 502 1034 502 1034 473 1004.5 c 128,-1,30
 444 975 444 975 404 975 c 2,31,-1
 210 975 l 2,16,17
210 0 m 256,32,33
 171 0 171 0 141.5 29.5 c 128,-1,34
 112 59 112 59 112 98 c 2,35,-1
 112 293 l 2,36,37
 112 332 112 332 142 361 c 2,38,-1
 892 1116 l 1,39,-1
 892 1268 l 2,40,41
 892 1307 892 1307 921 1336 c 128,-1,42
 950 1365 950 1365 989 1365 c 128,-1,43
 1028 1365 1028 1365 1058 1336 c 128,-1,44
 1088 1307 1088 1307 1088 1268 c 2,45,-1
 1088 1073 l 2,46,47
 1088 1034 1088 1034 1058 1004 c 2,48,-1
 308 257 l 1,49,-1
 308 98 l 2,50,51
 308 59 308 59 278.5 29.5 c 128,-1,52
 249 0 249 0 210 0 c 256,32,33
EndSplineSet
EndChar

StartChar: ampersand
Encoding: 38 38 9
Width: 1200
GlyphClass: 2
Flags: W
LayerCount: 2
Fore
SplineSet
990 0 m 0,0,1
 952 0 952 0 922 29 c 2,2,-1
 790 156 l 1,3,-1
 668 29 l 2,4,5
 640 0 640 0 600 0 c 2,6,-1
 404 0 l 2,7,8
 287 0 287 0 199.5 88 c 128,-1,9
 112 176 112 176 112 293 c 2,10,-1
 112 488 l 2,11,12
 112 527 112 527 142 556 c 2,13,-1
 268 683 l 1,14,-1
 142 809 l 2,15,16
 112 838 112 838 112 878 c 2,17,-1
 112 1073 l 2,18,19
 112 1190 112 1190 200 1277.5 c 128,-1,20
 288 1365 288 1365 405 1365 c 128,-1,21
 522 1365 522 1365 610 1277.5 c 128,-1,22
 698 1190 698 1190 698 1073 c 2,23,-1
 698 878 l 2,24,25
 698 839 698 839 668 809 c 2,26,-1
 538 683 l 1,27,-1
 668 556 l 1,28,-1
 794 429 l 1,29,-1
 922 556 l 2,30,31
 951 585 951 585 989.5 585 c 128,-1,32
 1028 585 1028 585 1058 556 c 128,-1,33
 1088 527 1088 527 1088 488 c 128,-1,34
 1088 449 1088 449 1058 419 c 2,35,-1
 932 296 l 1,36,-1
 1058 166 l 2,37,38
 1087 137 1087 137 1088 98 c 2,39,40
 1088 98 1088 98 1088 97 c 0,41,42
 1088 59 1088 59 1058 30 c 0,43,44
 1029 0 1029 0 990 0 c 0,0,1
308 921 m 1,45,-1
 404 823 l 1,46,-1
 502 921 l 1,47,-1
 502 1073 l 2,48,49
 502 1112 502 1112 473 1141 c 128,-1,50
 444 1170 444 1170 404 1170 c 0,51,52
 365 1170 365 1170 336.5 1141 c 128,-1,53
 308 1112 308 1112 308 1073 c 2,54,-1
 308 921 l 1,45,-1
658 293 m 1,55,-1
 404 546 l 1,56,-1
 308 445 l 1,57,-1
 308 293 l 2,58,59
 308 254 308 254 337 224.5 c 128,-1,60
 366 195 366 195 404 195 c 2,61,-1
 560 195 l 1,62,-1
 658 293 l 1,55,-1
EndSplineSet
EndChar

StartChar: quotesingle
Encoding: 39 39 10
Width: 1200
GlyphClass: 2
Flags: W
LayerCount: 2
Fore
SplineSet
502 1268 m 2,0,1
 502 1307 502 1307 531 1336 c 128,-1,2
 560 1365 560 1365 599 1365 c 128,-1,3
 638 1365 638 1365 668 1336 c 128,-1,4
 698 1307 698 1307 698 1268 c 2,5,-1
 698 1073 l 2,6,7
 698 1034 698 1034 668 1004.5 c 128,-1,8
 638 975 638 975 599 975 c 128,-1,9
 560 975 560 975 531 1004.5 c 128,-1,10
 502 1034 502 1034 502 1073 c 2,11,-1
 502 1268 l 2,0,1
EndSplineSet
EndChar

StartChar: parenleft
Encoding: 40 40 11
Width: 1200
GlyphClass: 2
Flags: W
LayerCount: 2
Fore
SplineSet
698 0 m 0,0,1
 581 0 581 0 493 88 c 128,-1,2
 405 176 405 176 405 293 c 2,3,-1
 405 1073 l 2,4,5
 405 1190 405 1190 493 1277.5 c 128,-1,6
 581 1365 581 1365 698 1365 c 0,7,8
 737 1365 737 1365 766 1336 c 128,-1,9
 795 1307 795 1307 795 1268 c 128,-1,10
 795 1229 795 1229 766 1199.5 c 128,-1,11
 737 1170 737 1170 698 1170 c 256,12,13
 659 1170 659 1170 629.5 1141 c 128,-1,14
 600 1112 600 1112 600 1073 c 2,15,-1
 600 293 l 2,16,17
 600 254 600 254 629.5 224.5 c 128,-1,18
 659 195 659 195 698 195 c 128,-1,19
 737 195 737 195 766 166 c 128,-1,20
 795 137 795 137 795 98 c 128,-1,21
 795 59 795 59 766 29.5 c 128,-1,22
 737 0 737 0 698 0 c 0,0,1
EndSplineSet
EndChar

StartChar: parenright
Encoding: 41 41 12
Width: 1200
GlyphClass: 2
Flags: W
LayerCount: 2
Fore
SplineSet
503 0 m 0,0,1
 464 0 464 0 434.5 29.5 c 128,-1,2
 405 59 405 59 405 98 c 128,-1,3
 405 137 405 137 434.5 166 c 128,-1,4
 464 195 464 195 503 195 c 128,-1,5
 542 195 542 195 571 224.5 c 128,-1,6
 600 254 600 254 600 293 c 2,7,-1
 600 1073 l 2,8,9
 600 1112 600 1112 571 1141 c 128,-1,10
 542 1170 542 1170 503 1170 c 256,11,12
 464 1170 464 1170 434.5 1199.5 c 128,-1,13
 405 1229 405 1229 405 1268 c 128,-1,14
 405 1307 405 1307 434.5 1336 c 128,-1,15
 464 1365 464 1365 503 1365 c 0,16,17
 620 1365 620 1365 707.5 1277.5 c 128,-1,18
 795 1190 795 1190 795 1073 c 2,19,-1
 795 293 l 2,20,21
 795 176 795 176 707.5 88 c 128,-1,22
 620 0 620 0 503 0 c 0,0,1
EndSplineSet
EndChar

StartChar: asterisk
Encoding: 42 42 13
Width: 1200
GlyphClass: 2
Flags: W
LayerCount: 2
Fore
SplineSet
404 390 m 0,0,1
 365 390 365 390 336.5 419.5 c 128,-1,2
 308 449 308 449 308 488 c 128,-1,3
 308 527 308 527 336 556 c 1,4,-1
 456 780 l 1,5,-1
 210 780 l 2,6,7
 171 780 171 780 141.5 809.5 c 128,-1,8
 112 839 112 839 112 878 c 128,-1,9
 112 917 112 917 141 946 c 128,-1,10
 170 975 170 975 210 975 c 2,11,-1
 456 975 l 1,12,-1
 336 1200 l 1,13,14
 307 1229 307 1229 307 1267 c 1,15,16
 307 1267 307 1267 308 1268 c 0,17,18
 308 1307 308 1307 337 1336 c 128,-1,19
 366 1365 366 1365 405 1365 c 128,-1,20
 444 1365 444 1365 472 1336 c 1,21,-1
 600 1081 l 1,22,-1
 726 1336 l 1,23,24
 755 1365 755 1365 794.5 1365 c 128,-1,25
 834 1365 834 1365 863 1336 c 128,-1,26
 892 1307 892 1307 892 1268 c 128,-1,27
 892 1229 892 1229 862 1200 c 1,28,-1
 744 975 l 1,29,-1
 990 975 l 2,30,31
 1029 975 1029 975 1058.5 946 c 128,-1,32
 1088 917 1088 917 1088 878 c 128,-1,33
 1088 839 1088 839 1058 809.5 c 128,-1,34
 1028 780 1028 780 990 780 c 2,35,-1
 744 780 l 1,36,-1
 862 556 l 1,37,38
 892 527 892 527 892 488 c 2,39,40
 892 488 892 488 892 487 c 0,41,42
 892 450 892 450 863 420 c 128,-1,43
 834 390 834 390 794 390 c 256,44,45
 754 390 754 390 726 419 c 1,46,-1
 600 675 l 1,47,-1
 472 419 l 1,48,49
 442 390 442 390 404 390 c 0,0,1
EndSplineSet
EndChar

StartChar: plus
Encoding: 43 43 14
Width: 1200
GlyphClass: 2
Flags: W
LayerCount: 2
Fore
SplineSet
600 195 m 256,0,1
 561 195 561 195 531.5 224.5 c 128,-1,2
 502 254 502 254 502 293 c 2,3,-1
 502 585 l 1,4,-1
 210 585 l 2,5,6
 171 585 171 585 141.5 614.5 c 128,-1,7
 112 644 112 644 112 683 c 128,-1,8
 112 722 112 722 141 751 c 128,-1,9
 170 780 170 780 210 780 c 2,10,-1
 502 780 l 1,11,-1
 502 1073 l 2,12,13
 502 1112 502 1112 531 1141 c 128,-1,14
 560 1170 560 1170 599 1170 c 128,-1,15
 638 1170 638 1170 668 1141 c 128,-1,16
 698 1112 698 1112 698 1073 c 2,17,-1
 698 780 l 1,18,-1
 990 780 l 2,19,20
 1029 780 1029 780 1058.5 751 c 128,-1,21
 1088 722 1088 722 1088 683 c 128,-1,22
 1088 644 1088 644 1058 614.5 c 128,-1,23
 1028 585 1028 585 990 585 c 2,24,-1
 698 585 l 1,25,-1
 698 293 l 2,26,27
 698 254 698 254 668.5 224.5 c 128,-1,28
 639 195 639 195 600 195 c 256,0,1
EndSplineSet
EndChar

StartChar: comma
Encoding: 44 44 15
Width: 1200
GlyphClass: 2
Flags: W
LayerCount: 2
Fore
SplineSet
503 390 m 2,0,-1
 698 390 l 2,1,2
 737 390 737 390 766 361 c 128,-1,3
 795 332 795 332 795 293 c 2,4,-1
 795 98 l 2,5,6
 795 59 795 59 766 29 c 2,7,-1
 571 -166 l 2,8,9
 542 -195 542 -195 503 -195 c 256,10,11
 464 -195 464 -195 434.5 -166 c 128,-1,12
 405 -137 405 -137 405 -98 c 2,13,-1
 405 293 l 2,14,15
 405 332 405 332 434.5 361 c 128,-1,16
 464 390 464 390 503 390 c 2,0,-1
EndSplineSet
EndChar

StartChar: hyphen
Encoding: 45 45 16
Width: 1200
GlyphClass: 2
Flags: W
LayerCount: 2
Fore
SplineSet
210 585 m 2,0,1
 171 585 171 585 141.5 614.5 c 128,-1,2
 112 644 112 644 112 683 c 128,-1,3
 112 722 112 722 141 751 c 128,-1,4
 170 780 170 780 210 780 c 2,5,-1
 990 780 l 2,6,7
 1029 780 1029 780 1058.5 751 c 128,-1,8
 1088 722 1088 722 1088 683 c 128,-1,9
 1088 644 1088 644 1058 614.5 c 128,-1,10
 1028 585 1028 585 990 585 c 2,11,-1
 210 585 l 2,0,1
EndSplineSet
EndChar

StartChar: period
Encoding: 46 46 17
Width: 1200
GlyphClass: 2
Flags: W
LayerCount: 2
Fore
SplineSet
503 390 m 2,0,-1
 698 390 l 2,1,2
 737 390 737 390 766 361 c 128,-1,3
 795 332 795 332 795 293 c 2,4,-1
 795 98 l 2,5,6
 795 59 795 59 766 29.5 c 128,-1,7
 737 0 737 0 698 0 c 2,8,-1
 503 0 l 2,9,10
 464 0 464 0 434.5 29.5 c 128,-1,11
 405 59 405 59 405 98 c 2,12,-1
 405 293 l 2,13,14
 405 332 405 332 434.5 361 c 128,-1,15
 464 390 464 390 503 390 c 2,0,-1
EndSplineSet
EndChar

StartChar: slash
Encoding: 47 47 18
Width: 1200
GlyphClass: 2
Flags: W
LayerCount: 2
Fore
SplineSet
110 21 m 0,0,1
 79 46 79 46 75 87 c 0,2,3
 74 96 74 96 74 98 c 0,4,5
 82 142 82 142 95 158 c 2,6,-1
 940 1364 l 2,7,8
 964 1394 964 1394 1006 1398 c 0,9,10
 1011 1399 1011 1399 1017 1399 c 0,11,12
 1051 1399 1051 1399 1077 1376 c 0,13,14
 1105 1352 1105 1352 1111 1310 c 0,15,16
 1112 1305 1112 1305 1112 1300 c 0,17,18
 1112 1269 1112 1269 1089 1239 c 2,19,-1
 248 36 l 2,20,21
 224 6 224 6 182 1 c 0,22,23
 177 1 177 1 170 0 c 0,24,25
 136 0 136 0 110 21 c 0,0,1
EndSplineSet
EndChar

StartChar: zero
Encoding: 48 48 19
Width: 1200
GlyphClass: 2
Flags: W
LayerCount: 2
Fore
SplineSet
404 0 m 2,0,1
 287 0 287 0 199.5 88 c 128,-1,2
 112 176 112 176 112 293 c 2,3,-1
 112 1073 l 2,4,5
 112 1190 112 1190 200 1277.5 c 128,-1,6
 288 1365 288 1365 404 1365 c 2,7,-1
 794 1365 l 2,8,9
 911 1365 911 1365 999.5 1277.5 c 128,-1,10
 1088 1190 1088 1190 1088 1073 c 2,11,-1
 1088 293 l 2,12,13
 1088 176 1088 176 1000 88 c 128,-1,14
 912 0 912 0 794 0 c 2,15,-1
 404 0 l 2,0,1
308 293 m 1,16,17
 308 254 308 254 337 224.5 c 128,-1,18
 366 195 366 195 404 195 c 2,19,-1
 794 195 l 2,20,21
 833 195 833 195 862.5 224.5 c 128,-1,22
 892 254 892 254 892 293 c 2,23,-1
 892 819 l 1,24,-1
 308 293 l 1,16,17
308 546 m 1,25,-1
 892 1073 l 1,26,27
 892 1112 892 1112 863 1141 c 128,-1,28
 834 1170 834 1170 794 1170 c 2,29,-1
 404 1170 l 2,30,31
 365 1170 365 1170 336.5 1141 c 128,-1,32
 308 1112 308 1112 308 1073 c 2,33,-1
 308 546 l 1,25,-1
EndSplineSet
EndChar

StartChar: one
Encoding: 49 49 20
Width: 1200
GlyphClass: 2
Flags: W
LayerCount: 2
Fore
SplineSet
226 914 m 0,0,1
 186 914 186 914 158 944 c 0,2,3
 129 976 129 976 129 1012 c 0,4,5
 130 1060 130 1060 158 1080 c 2,6,-1
 532 1336 l 2,7,8
 554 1351 554 1351 600 1365 c 0,9,10
 606 1367 606 1367 611 1367 c 0,11,12
 636 1367 636 1367 668 1336 c 0,13,14
 698 1307 698 1307 698 1268 c 2,15,-1
 698 195 l 1,16,-1
 992 195 l 2,17,18
 1031 195 1031 195 1060.5 166 c 128,-1,19
 1090 137 1090 137 1090 98 c 0,20,21
 1090 60 1090 60 1060 30 c 128,-1,22
 1030 0 1030 0 992 0 c 2,23,-1
 207 0 l 2,24,25
 168 0 168 0 139 29.5 c 128,-1,26
 110 59 110 59 110 98 c 128,-1,27
 110 137 110 137 139 166 c 128,-1,28
 168 195 168 195 207 195 c 2,29,-1
 502 195 l 1,30,-1
 502 1072 l 1,31,-1
 294 944 l 2,32,33
 248 914 248 914 226 914 c 0,0,1
EndSplineSet
EndChar

StartChar: two
Encoding: 50 50 21
Width: 1200
GlyphClass: 2
Flags: W
LayerCount: 2
Fore
SplineSet
210 975 m 256,0,1
 171 975 171 975 141.5 1004.5 c 128,-1,2
 112 1034 112 1034 112 1073 c 0,3,4
 112 1190 112 1190 200 1277.5 c 128,-1,5
 288 1365 288 1365 404 1365 c 2,6,-1
 794 1365 l 2,7,8
 911 1365 911 1365 999.5 1277.5 c 128,-1,9
 1088 1190 1088 1190 1088 1073 c 2,10,-1
 1088 878 l 2,11,12
 1088 839 1088 839 1058 809 c 2,13,-1
 440 195 l 1,14,-1
 990 195 l 2,15,16
 1029 195 1029 195 1058.5 166 c 128,-1,17
 1088 137 1088 137 1088 98 c 128,-1,18
 1088 59 1088 59 1058 29.5 c 128,-1,19
 1028 0 1028 0 990 0 c 2,20,-1
 210 0 l 2,21,22
 171 0 171 0 141.5 29.5 c 128,-1,23
 112 59 112 59 112 98 c 128,-1,24
 112 137 112 137 142 166 c 2,25,-1
 892 921 l 1,26,-1
 892 1073 l 2,27,28
 892 1112 892 1112 863 1141 c 128,-1,29
 834 1170 834 1170 794 1170 c 2,30,-1
 404 1170 l 2,31,32
 365 1170 365 1170 336.5 1141 c 128,-1,33
 308 1112 308 1112 308 1073 c 256,34,35
 308 1034 308 1034 278.5 1004.5 c 128,-1,36
 249 975 249 975 210 975 c 256,0,1
EndSplineSet
EndChar

StartChar: three
Encoding: 51 51 22
Width: 1200
GlyphClass: 2
Flags: W
LayerCount: 2
Fore
SplineSet
794 0 m 2,0,-1
 404 0 l 2,1,2
 287 0 287 0 199.5 88 c 128,-1,3
 112 176 112 176 112 293 c 0,4,5
 112 332 112 332 141 361 c 128,-1,6
 170 390 170 390 209 390 c 128,-1,7
 248 390 248 390 278 361 c 128,-1,8
 308 332 308 332 308 293 c 256,9,10
 308 254 308 254 337 224.5 c 128,-1,11
 366 195 366 195 404 195 c 2,12,-1
 794 195 l 2,13,14
 833 195 833 195 862.5 224.5 c 128,-1,15
 892 254 892 254 892 293 c 2,16,-1
 892 488 l 2,17,18
 892 527 892 527 863 556 c 128,-1,19
 834 585 834 585 794 585 c 2,20,-1
 600 585 l 2,21,22
 561 585 561 585 531.5 614.5 c 128,-1,23
 502 644 502 644 502 683 c 128,-1,24
 502 722 502 722 531 751 c 128,-1,25
 560 780 560 780 600 780 c 2,26,-1
 794 780 l 2,27,28
 833 780 833 780 862.5 809.5 c 128,-1,29
 892 839 892 839 892 878 c 2,30,-1
 892 1073 l 2,31,32
 892 1112 892 1112 863 1141 c 128,-1,33
 834 1170 834 1170 794 1170 c 2,34,-1
 404 1170 l 2,35,36
 365 1170 365 1170 336.5 1141 c 128,-1,37
 308 1112 308 1112 308 1073 c 256,38,39
 308 1034 308 1034 278 1004.5 c 128,-1,40
 248 975 248 975 210 975 c 0,41,42
 171 975 171 975 141.5 1004.5 c 128,-1,43
 112 1034 112 1034 112 1073 c 0,44,45
 112 1190 112 1190 200 1277.5 c 128,-1,46
 288 1365 288 1365 404 1365 c 2,47,-1
 794 1365 l 2,48,49
 911 1365 911 1365 999.5 1277.5 c 128,-1,50
 1088 1190 1088 1190 1088 1073 c 2,51,-1
 1088 878 l 2,52,53
 1088 761 1088 761 1000 673 c 1,54,55
 1088 605 1088 605 1088 488 c 2,56,-1
 1088 293 l 2,57,58
 1088 176 1088 176 999.5 88 c 128,-1,59
 911 0 911 0 794 0 c 2,0,-1
EndSplineSet
EndChar

StartChar: four
Encoding: 52 52 23
Width: 1200
GlyphClass: 2
Flags: W
LayerCount: 2
Fore
SplineSet
308 585 m 1,0,-1
 698 585 l 1,1,-1
 698 1268 l 2,2,3
 698 1307 698 1307 727 1336 c 128,-1,4
 756 1365 756 1365 795 1365 c 128,-1,5
 834 1365 834 1365 863 1336 c 128,-1,6
 892 1307 892 1307 892 1268 c 2,7,-1
 892 585 l 1,8,-1
 990 585 l 2,9,10
 1029 585 1029 585 1058.5 556 c 128,-1,11
 1088 527 1088 527 1088 488 c 128,-1,12
 1088 449 1088 449 1058 419.5 c 128,-1,13
 1028 390 1028 390 990 390 c 2,14,-1
 892 390 l 1,15,-1
 892 98 l 2,16,17
 892 59 892 59 863 29.5 c 128,-1,18
 834 0 834 0 794 0 c 0,19,20
 755 0 755 0 726.5 29.5 c 128,-1,21
 698 59 698 59 698 98 c 2,22,-1
 698 390 l 1,23,-1
 210 390 l 2,24,25
 171 390 171 390 141.5 419.5 c 128,-1,26
 112 449 112 449 112 488 c 2,27,-1
 112 1073 l 2,28,29
 112 1112 112 1112 141 1141 c 128,-1,30
 170 1170 170 1170 209 1170 c 128,-1,31
 248 1170 248 1170 278 1141 c 128,-1,32
 308 1112 308 1112 308 1073 c 2,33,-1
 308 585 l 1,0,-1
EndSplineSet
EndChar

StartChar: five
Encoding: 53 53 24
Width: 1200
GlyphClass: 2
Flags: W
LayerCount: 2
Fore
SplineSet
210 585 m 2,0,1
 171 585 171 585 141.5 614.5 c 128,-1,2
 112 644 112 644 112 683 c 2,3,-1
 112 1268 l 2,4,5
 112 1307 112 1307 141 1336 c 128,-1,6
 170 1365 170 1365 210 1365 c 2,7,-1
 990 1365 l 2,8,9
 1029 1365 1029 1365 1058.5 1336 c 128,-1,10
 1088 1307 1088 1307 1088 1268 c 128,-1,11
 1088 1229 1088 1229 1058 1199.5 c 128,-1,12
 1028 1170 1028 1170 990 1170 c 2,13,-1
 308 1170 l 1,14,-1
 308 780 l 1,15,-1
 794 780 l 2,16,17
 911 780 911 780 999.5 692.5 c 128,-1,18
 1088 605 1088 605 1088 488 c 2,19,-1
 1088 293 l 2,20,21
 1088 176 1088 176 1000 88 c 128,-1,22
 912 0 912 0 794 0 c 2,23,-1
 210 0 l 2,24,25
 171 0 171 0 141.5 29.5 c 128,-1,26
 112 59 112 59 112 98 c 128,-1,27
 112 137 112 137 141 166 c 128,-1,28
 170 195 170 195 210 195 c 2,29,-1
 794 195 l 2,30,31
 833 195 833 195 862.5 224.5 c 128,-1,32
 892 254 892 254 892 293 c 2,33,-1
 892 488 l 2,34,35
 892 527 892 527 863 556 c 128,-1,36
 834 585 834 585 794 585 c 2,37,-1
 210 585 l 2,0,1
EndSplineSet
EndChar

StartChar: six
Encoding: 54 54 25
Width: 1200
GlyphClass: 2
Flags: W
LayerCount: 2
Fore
SplineSet
404 0 m 2,0,1
 287 0 287 0 199.5 88 c 128,-1,2
 112 176 112 176 112 293 c 2,3,-1
 112 1073 l 2,4,5
 112 1190 112 1190 200 1277.5 c 128,-1,6
 288 1365 288 1365 404 1365 c 2,7,-1
 794 1365 l 2,8,9
 833 1365 833 1365 862.5 1336 c 128,-1,10
 892 1307 892 1307 892 1268 c 128,-1,11
 892 1229 892 1229 863 1199.5 c 128,-1,12
 834 1170 834 1170 794 1170 c 2,13,-1
 404 1170 l 2,14,15
 365 1170 365 1170 336.5 1141 c 128,-1,16
 308 1112 308 1112 308 1073 c 2,17,-1
 308 780 l 1,18,-1
 794 780 l 2,19,20
 911 780 911 780 999.5 702 c 128,-1,21
 1088 624 1088 624 1088 488 c 2,22,-1
 1088 293 l 2,23,24
 1088 176 1088 176 1000 88 c 128,-1,25
 912 0 912 0 794 0 c 2,26,-1
 404 0 l 2,0,1
308 585 m 1,27,-1
 308 293 l 2,28,29
 308 254 308 254 337 224.5 c 128,-1,30
 366 195 366 195 404 195 c 2,31,-1
 794 195 l 2,32,33
 833 195 833 195 862.5 224.5 c 128,-1,34
 892 254 892 254 892 293 c 2,35,-1
 892 488 l 2,36,37
 892 527 892 527 863 556 c 128,-1,38
 834 585 834 585 794 585 c 2,39,-1
 308 585 l 1,27,-1
EndSplineSet
EndChar

StartChar: seven
Encoding: 55 55 26
Width: 1200
GlyphClass: 2
Flags: W
LayerCount: 2
Fore
SplineSet
210 0 m 0,0,1
 171 0 171 0 141.5 29.5 c 128,-1,2
 112 59 112 59 112 98 c 128,-1,3
 112 137 112 137 142 166 c 2,4,-1
 892 921 l 1,5,-1
 892 1170 l 1,6,-1
 210 1170 l 2,7,8
 171 1170 171 1170 141.5 1199.5 c 128,-1,9
 112 1229 112 1229 112 1268 c 128,-1,10
 112 1307 112 1307 141 1336 c 128,-1,11
 170 1365 170 1365 210 1365 c 2,12,-1
 990 1365 l 2,13,14
 1029 1365 1029 1365 1058.5 1336 c 128,-1,15
 1088 1307 1088 1307 1088 1268 c 2,16,-1
 1088 878 l 2,17,18
 1088 839 1088 839 1058 809 c 2,19,-1
 278 29 l 2,20,21
 250 0 250 0 210 0 c 0,0,1
EndSplineSet
EndChar

StartChar: eight
Encoding: 56 56 27
Width: 1200
GlyphClass: 2
Flags: W
LayerCount: 2
Fore
SplineSet
113 293 m 2,0,-1
 113 488 l 2,1,2
 113 668 113 668 326 714 c 1,3,4
 201 755 201 755 201 878 c 2,5,-1
 201 1073 l 2,6,7
 201 1190 201 1190 288.5 1277.5 c 128,-1,8
 376 1365 376 1365 493 1365 c 2,9,-1
 699 1365 l 2,10,11
 816 1365 816 1365 904 1277.5 c 128,-1,12
 992 1190 992 1190 992 1073 c 2,13,-1
 992 878 l 2,14,15
 992 758 992 758 868 718 c 1,16,17
 1088 672 1088 672 1088 488 c 2,18,-1
 1088 293 l 2,19,20
 1088 176 1088 176 1000 88 c 128,-1,21
 912 0 912 0 795 0 c 2,22,-1
 405 0 l 2,23,24
 288 0 288 0 200.5 88 c 128,-1,25
 113 176 113 176 113 293 c 2,0,-1
699 780 m 2,26,27
 738 780 738 780 767.5 809.5 c 128,-1,28
 797 839 797 839 797 878 c 2,29,-1
 797 1073 l 2,30,31
 797 1112 797 1112 767.5 1141 c 128,-1,32
 738 1170 738 1170 699 1170 c 2,33,-1
 493 1170 l 2,34,35
 454 1170 454 1170 425 1141 c 128,-1,36
 396 1112 396 1112 396 1073 c 2,37,-1
 396 878 l 2,38,39
 396 839 396 839 425 809.5 c 128,-1,40
 454 780 454 780 493 780 c 2,41,-1
 699 780 l 2,26,27
893 488 m 2,42,43
 893 527 893 527 863.5 556 c 128,-1,44
 834 585 834 585 795 585 c 2,45,-1
 405 585 l 2,46,47
 366 585 366 585 337 556 c 128,-1,48
 308 527 308 527 308 488 c 2,49,-1
 308 293 l 2,50,51
 308 254 308 254 337 224.5 c 128,-1,52
 366 195 366 195 405 195 c 2,53,-1
 795 195 l 2,54,55
 834 195 834 195 863.5 224.5 c 128,-1,56
 893 254 893 254 893 293 c 2,57,-1
 893 488 l 2,42,43
EndSplineSet
EndChar

StartChar: nine
Encoding: 57 57 28
Width: 1200
GlyphClass: 2
Flags: W
LayerCount: 2
Fore
SplineSet
794 1365 m 2,0,1
 911 1365 911 1365 999.5 1277.5 c 128,-1,2
 1088 1190 1088 1190 1088 1073 c 2,3,-1
 1088 293 l 2,4,5
 1088 176 1088 176 1000 88 c 128,-1,6
 912 0 912 0 794 0 c 2,7,-1
 210 0 l 2,8,9
 171 0 171 0 141.5 29.5 c 128,-1,10
 112 59 112 59 112 98 c 128,-1,11
 112 137 112 137 141 166 c 128,-1,12
 170 195 170 195 210 195 c 2,13,-1
 794 195 l 2,14,15
 833 195 833 195 862.5 224.5 c 128,-1,16
 892 254 892 254 892 293 c 2,17,-1
 892 585 l 1,18,-1
 445 585 l 2,19,20
 328 585 328 585 240.5 663 c 128,-1,21
 153 741 153 741 153 878 c 2,22,-1
 153 1073 l 2,23,24
 153 1190 153 1190 241 1278 c 0,25,26
 329 1365 329 1365 445 1365 c 2,27,-1
 794 1365 l 2,0,1
892 780 m 1,28,-1
 892 1073 l 2,29,30
 892 1112 892 1112 863 1141 c 128,-1,31
 834 1170 834 1170 794 1170 c 2,32,-1
 445 1170 l 2,33,34
 406 1170 406 1170 377.5 1141 c 128,-1,35
 349 1112 349 1112 349 1073 c 2,36,-1
 349 878 l 2,37,38
 349 839 349 839 378 809.5 c 128,-1,39
 407 780 407 780 445 780 c 2,40,-1
 892 780 l 1,28,-1
EndSplineSet
EndChar

StartChar: colon
Encoding: 58 58 29
Width: 1200
GlyphClass: 2
Flags: W
LayerCount: 2
Fore
SplineSet
503 1170 m 2,0,-1
 698 1170 l 2,1,2
 737 1170 737 1170 766 1141 c 128,-1,3
 795 1112 795 1112 795 1073 c 2,4,-1
 795 878 l 2,5,6
 795 839 795 839 766 809.5 c 128,-1,7
 737 780 737 780 698 780 c 2,8,-1
 503 780 l 2,9,10
 464 780 464 780 434.5 809.5 c 128,-1,11
 405 839 405 839 405 878 c 2,12,-1
 405 1073 l 2,13,14
 405 1112 405 1112 434.5 1141 c 128,-1,15
 464 1170 464 1170 503 1170 c 2,0,-1
503 390 m 2,16,-1
 698 390 l 2,17,18
 737 390 737 390 766 361 c 128,-1,19
 795 332 795 332 795 293 c 2,20,-1
 795 98 l 2,21,22
 795 59 795 59 766 29.5 c 128,-1,23
 737 0 737 0 698 0 c 2,24,-1
 503 0 l 2,25,26
 464 0 464 0 434.5 29.5 c 128,-1,27
 405 59 405 59 405 98 c 2,28,-1
 405 293 l 2,29,30
 405 332 405 332 434.5 361 c 128,-1,31
 464 390 464 390 503 390 c 2,16,-1
EndSplineSet
EndChar

StartChar: semicolon
Encoding: 59 59 30
Width: 1200
GlyphClass: 2
Flags: W
LayerCount: 2
Fore
SplineSet
503 1170 m 2,0,-1
 698 1170 l 2,1,2
 737 1170 737 1170 766 1141 c 128,-1,3
 795 1112 795 1112 795 1073 c 2,4,-1
 795 878 l 2,5,6
 795 839 795 839 766 809.5 c 128,-1,7
 737 780 737 780 698 780 c 2,8,-1
 503 780 l 2,9,10
 464 780 464 780 434.5 809.5 c 128,-1,11
 405 839 405 839 405 878 c 2,12,-1
 405 1073 l 2,13,14
 405 1112 405 1112 434.5 1141 c 128,-1,15
 464 1170 464 1170 503 1170 c 2,0,-1
503 390 m 2,16,-1
 698 390 l 2,17,18
 737 390 737 390 766 361 c 128,-1,19
 795 332 795 332 795 293 c 2,20,-1
 795 98 l 2,21,22
 795 59 795 59 766 29 c 2,23,-1
 571 -166 l 2,24,25
 542 -195 542 -195 503 -195 c 256,26,27
 464 -195 464 -195 434.5 -166 c 128,-1,28
 405 -137 405 -137 405 -98 c 2,29,-1
 405 293 l 2,30,31
 405 332 405 332 434.5 361 c 128,-1,32
 464 390 464 390 503 390 c 2,16,-1
EndSplineSet
EndChar

StartChar: less
Encoding: 60 60 31
Width: 1200
GlyphClass: 2
Flags: W
LayerCount: 2
Fore
SplineSet
440 683 m 1,0,-1
 961 166 l 2,1,2
 990 137 990 137 990 98 c 128,-1,3
 990 59 990 59 961 29.5 c 128,-1,4
 932 0 932 0 893 0 c 256,5,6
 854 0 854 0 824 29 c 2,7,-1
 239 614 l 2,8,9
 210 643 210 643 210 682.5 c 128,-1,10
 210 722 210 722 239 751 c 2,11,-1
 824 1336 l 2,12,13
 853 1365 853 1365 892.5 1365 c 128,-1,14
 932 1365 932 1365 961 1336 c 128,-1,15
 990 1307 990 1307 990 1268 c 128,-1,16
 990 1229 990 1229 961 1200 c 2,17,-1
 440 683 l 1,0,-1
EndSplineSet
EndChar

StartChar: equal
Encoding: 61 61 32
Width: 1200
GlyphClass: 2
Flags: W
LayerCount: 2
Fore
SplineSet
210 780 m 2,0,1
 171 780 171 780 141.5 809.5 c 128,-1,2
 112 839 112 839 112 878 c 128,-1,3
 112 917 112 917 141 946 c 128,-1,4
 170 975 170 975 210 975 c 2,5,-1
 990 975 l 2,6,7
 1029 975 1029 975 1058.5 946 c 128,-1,8
 1088 917 1088 917 1088 878 c 128,-1,9
 1088 839 1088 839 1058 809.5 c 128,-1,10
 1028 780 1028 780 990 780 c 2,11,-1
 210 780 l 2,0,1
210 390 m 2,12,13
 171 390 171 390 141.5 419.5 c 128,-1,14
 112 449 112 449 112 488 c 128,-1,15
 112 527 112 527 141 556 c 128,-1,16
 170 585 170 585 210 585 c 2,17,-1
 990 585 l 2,18,19
 1029 585 1029 585 1058.5 556 c 128,-1,20
 1088 527 1088 527 1088 488 c 128,-1,21
 1088 449 1088 449 1058 419.5 c 128,-1,22
 1028 390 1028 390 990 390 c 2,23,-1
 210 390 l 2,12,13
EndSplineSet
EndChar

StartChar: greater
Encoding: 62 62 33
Width: 1200
GlyphClass: 2
Flags: W
LayerCount: 2
Fore
SplineSet
760 683 m 1,0,-1
 239 1200 l 2,1,2
 210 1229 210 1229 210 1268 c 128,-1,3
 210 1307 210 1307 239.5 1336 c 128,-1,4
 269 1365 269 1365 308 1365 c 128,-1,5
 347 1365 347 1365 376 1336 c 2,6,-1
 961 751 l 2,7,8
 990 722 990 722 990 683 c 128,-1,9
 990 644 990 644 961 614 c 2,10,-1
 376 29 l 2,11,12
 347 0 347 0 308 0 c 256,13,14
 269 0 269 0 239.5 29.5 c 128,-1,15
 210 59 210 59 210 98 c 128,-1,16
 210 137 210 137 239 166 c 2,17,-1
 760 683 l 1,0,-1
EndSplineSet
EndChar

StartChar: question
Encoding: 63 63 34
Width: 1200
GlyphClass: 2
Flags: W
LayerCount: 2
Fore
SplineSet
600 0 m 256,0,1
 561 0 561 0 531.5 29.5 c 128,-1,2
 502 59 502 59 502 98 c 128,-1,3
 502 137 502 137 531 166 c 128,-1,4
 560 195 560 195 599 195 c 128,-1,5
 638 195 638 195 668 166 c 128,-1,6
 698 137 698 137 698 98 c 128,-1,7
 698 59 698 59 668.5 29.5 c 128,-1,8
 639 0 639 0 600 0 c 256,0,1
600 390 m 0,9,10
 561 390 561 390 531.5 419.5 c 128,-1,11
 502 449 502 449 502 488 c 128,-1,12
 502 527 502 527 532 556 c 2,13,-1
 892 921 l 1,14,-1
 892 1073 l 2,15,16
 892 1112 892 1112 863 1141 c 128,-1,17
 834 1170 834 1170 794 1170 c 2,18,-1
 404 1170 l 2,19,20
 365 1170 365 1170 336.5 1141 c 128,-1,21
 308 1112 308 1112 308 1073 c 256,22,23
 308 1034 308 1034 278 1004.5 c 128,-1,24
 248 975 248 975 209 975 c 128,-1,25
 170 975 170 975 141 1004.5 c 128,-1,26
 112 1034 112 1034 112 1073 c 0,27,28
 112 1190 112 1190 200 1277.5 c 128,-1,29
 288 1365 288 1365 404 1365 c 2,30,-1
 794 1365 l 2,31,32
 911 1365 911 1365 999.5 1277.5 c 128,-1,33
 1088 1190 1088 1190 1088 1073 c 2,34,-1
 1088 878 l 2,35,36
 1088 839 1088 839 1058 809 c 2,37,-1
 668 419 l 2,38,39
 640 390 640 390 600 390 c 0,9,10
EndSplineSet
EndChar

StartChar: at
Encoding: 64 64 35
Width: 1200
GlyphClass: 2
Flags: W
LayerCount: 2
Fore
SplineSet
794 390 m 256,0,1
 677 390 677 390 589.5 478 c 128,-1,2
 502 566 502 566 502 683 c 128,-1,3
 502 800 502 800 590 887.5 c 128,-1,4
 678 975 678 975 794 975 c 2,5,-1
 892 975 l 1,6,-1
 892 1073 l 2,7,8
 892 1112 892 1112 863 1141 c 128,-1,9
 834 1170 834 1170 794 1170 c 2,10,-1
 404 1170 l 2,11,12
 365 1170 365 1170 336.5 1141 c 128,-1,13
 308 1112 308 1112 308 1073 c 2,14,-1
 308 293 l 2,15,16
 308 254 308 254 337 224.5 c 128,-1,17
 366 195 366 195 404 195 c 2,18,-1
 990 195 l 2,19,20
 1029 195 1029 195 1058.5 166 c 128,-1,21
 1088 137 1088 137 1088 98 c 128,-1,22
 1088 59 1088 59 1058 29.5 c 128,-1,23
 1028 0 1028 0 990 0 c 2,24,-1
 404 0 l 2,25,26
 287 0 287 0 199.5 88 c 128,-1,27
 112 176 112 176 112 293 c 2,28,-1
 112 1073 l 2,29,30
 112 1190 112 1190 200 1277.5 c 128,-1,31
 288 1365 288 1365 404 1365 c 2,32,-1
 794 1365 l 2,33,34
 911 1365 911 1365 999.5 1277.5 c 128,-1,35
 1088 1190 1088 1190 1088 1073 c 2,36,-1
 1088 683 l 2,37,38
 1088 566 1088 566 999.5 478 c 128,-1,39
 911 390 911 390 794 390 c 256,0,1
794 780 m 256,40,41
 755 780 755 780 726.5 751 c 128,-1,42
 698 722 698 722 698 683 c 128,-1,43
 698 644 698 644 727 614.5 c 128,-1,44
 756 585 756 585 795 585 c 128,-1,45
 834 585 834 585 863 614.5 c 128,-1,46
 892 644 892 644 892 683 c 128,-1,47
 892 722 892 722 862.5 751 c 128,-1,48
 833 780 833 780 794 780 c 256,40,41
EndSplineSet
EndChar

StartChar: A
Encoding: 65 65 36
Width: 1200
GlyphClass: 2
Flags: W
LayerCount: 2
Fore
SplineSet
210 0 m 256,0,1
 171 0 171 0 141.5 29.5 c 128,-1,2
 112 59 112 59 112 98 c 2,3,-1
 112 782 l 1,4,-1
 223 1073 l 2,5,6
 277 1214 277 1214 337 1278 c 0,7,8
 421 1365 421 1365 541 1365 c 2,9,-1
 659 1365 l 2,10,11
 777 1365 777 1365 864 1278 c 0,12,13
 905 1237 905 1237 971 1073 c 2,14,-1
 1088 782 l 1,15,-1
 1088 98 l 2,16,17
 1088 59 1088 59 1058 30 c 0,18,19
 1028 0 1028 0 989 0 c 128,-1,20
 950 0 950 0 921 29.5 c 128,-1,21
 892 59 892 59 892 98 c 2,22,-1
 892 585 l 1,23,-1
 308 585 l 1,24,-1
 308 98 l 2,25,26
 308 59 308 59 278.5 29.5 c 128,-1,27
 249 0 249 0 210 0 c 256,0,1
308 780 m 1,28,-1
 892 780 l 1,29,-1
 775 1073 l 2,30,31
 761 1108 761 1108 728 1141 c 0,32,33
 699 1170 699 1170 659 1170 c 2,34,-1
 541 1170 l 2,35,36
 505 1170 505 1170 474 1141 c 0,37,38
 431 1105 431 1105 419 1073 c 2,39,-1
 308 780 l 1,28,-1
EndSplineSet
EndChar

StartChar: B
Encoding: 66 66 37
Width: 1200
GlyphClass: 2
Flags: W
LayerCount: 2
Fore
SplineSet
210 0 m 2,0,1
 171 0 171 0 141.5 29.5 c 128,-1,2
 112 59 112 59 112 98 c 2,3,-1
 112 1268 l 2,4,5
 112 1307 112 1307 141 1336 c 128,-1,6
 170 1365 170 1365 210 1365 c 2,7,-1
 691 1365 l 2,8,9
 808 1365 808 1365 896.5 1277.5 c 128,-1,10
 985 1190 985 1190 985 1073 c 2,11,-1
 985 878 l 2,12,13
 985 761 985 761 897 673 c 1,14,15
 1088 668 1088 668 1088 488 c 2,16,-1
 1088 293 l 2,17,18
 1088 176 1088 176 1000 88 c 128,-1,19
 912 0 912 0 794 0 c 2,20,-1
 210 0 l 2,0,1
308 780 m 1,21,-1
 691 780 l 2,22,23
 730 780 730 780 759.5 809.5 c 128,-1,24
 789 839 789 839 789 878 c 2,25,-1
 789 1073 l 2,26,27
 789 1112 789 1112 760 1141 c 128,-1,28
 731 1170 731 1170 691 1170 c 2,29,-1
 308 1170 l 1,30,-1
 308 780 l 1,21,-1
308 195 m 1,31,-1
 794 195 l 2,32,33
 833 195 833 195 862.5 224.5 c 128,-1,34
 892 254 892 254 892 293 c 2,35,-1
 892 488 l 2,36,37
 892 527 892 527 863 556 c 128,-1,38
 834 585 834 585 794 585 c 2,39,-1
 308 585 l 1,40,-1
 308 195 l 1,31,-1
EndSplineSet
EndChar

StartChar: C
Encoding: 67 67 38
Width: 1200
GlyphClass: 2
Flags: W
LayerCount: 2
Fore
SplineSet
404 0 m 2,0,1
 287 0 287 0 199.5 88 c 128,-1,2
 112 176 112 176 112 293 c 2,3,-1
 112 1073 l 2,4,5
 112 1190 112 1190 200 1277.5 c 128,-1,6
 288 1365 288 1365 404 1365 c 2,7,-1
 794 1365 l 2,8,9
 911 1365 911 1365 999.5 1277.5 c 128,-1,10
 1088 1190 1088 1190 1088 1073 c 0,11,12
 1088 1034 1088 1034 1058 1004.5 c 128,-1,13
 1028 975 1028 975 990 975 c 0,14,15
 951 975 951 975 921.5 1004.5 c 128,-1,16
 892 1034 892 1034 892 1073 c 256,17,18
 892 1112 892 1112 863 1141 c 128,-1,19
 834 1170 834 1170 794 1170 c 2,20,-1
 404 1170 l 2,21,22
 365 1170 365 1170 336.5 1141 c 128,-1,23
 308 1112 308 1112 308 1073 c 2,24,-1
 308 293 l 2,25,26
 308 254 308 254 337 224.5 c 128,-1,27
 366 195 366 195 404 195 c 2,28,-1
 794 195 l 2,29,30
 833 195 833 195 862.5 224.5 c 128,-1,31
 892 254 892 254 892 293 c 256,32,33
 892 332 892 332 921 361 c 128,-1,34
 950 390 950 390 989 390 c 128,-1,35
 1028 390 1028 390 1058 361 c 128,-1,36
 1088 332 1088 332 1088 293 c 0,37,38
 1088 176 1088 176 1000 88 c 128,-1,39
 912 0 912 0 794 0 c 2,40,-1
 404 0 l 2,0,1
EndSplineSet
EndChar

StartChar: D
Encoding: 68 68 39
Width: 1200
GlyphClass: 2
Flags: W
LayerCount: 2
Fore
SplineSet
210 0 m 2,0,1
 171 0 171 0 141.5 29.5 c 128,-1,2
 112 59 112 59 112 98 c 2,3,-1
 112 1268 l 2,4,5
 112 1307 112 1307 141 1336 c 128,-1,6
 170 1365 170 1365 210 1365 c 2,7,-1
 794 1365 l 2,8,9
 911 1365 911 1365 999.5 1277.5 c 128,-1,10
 1088 1190 1088 1190 1088 1073 c 2,11,-1
 1088 293 l 2,12,13
 1088 176 1088 176 1000 88 c 128,-1,14
 912 0 912 0 794 0 c 2,15,-1
 210 0 l 2,0,1
892 293 m 2,16,-1
 892 1073 l 2,17,18
 892 1112 892 1112 863 1141 c 128,-1,19
 834 1170 834 1170 794 1170 c 2,20,-1
 308 1170 l 1,21,-1
 308 195 l 1,22,-1
 794 195 l 2,23,24
 833 195 833 195 862.5 224.5 c 128,-1,25
 892 254 892 254 892 293 c 2,16,-1
EndSplineSet
EndChar

StartChar: E
Encoding: 69 69 40
Width: 1200
GlyphClass: 2
Flags: W
LayerCount: 2
Fore
SplineSet
794 585 m 2,0,-1
 308 585 l 1,1,-1
 308 195 l 1,2,-1
 990 195 l 2,3,4
 1029 195 1029 195 1058.5 166 c 128,-1,5
 1088 137 1088 137 1088 98 c 128,-1,6
 1088 59 1088 59 1058 29.5 c 128,-1,7
 1028 0 1028 0 990 0 c 2,8,-1
 210 0 l 2,9,10
 171 0 171 0 141.5 29.5 c 128,-1,11
 112 59 112 59 112 98 c 2,12,-1
 112 1268 l 2,13,14
 112 1307 112 1307 141 1336 c 128,-1,15
 170 1365 170 1365 210 1365 c 2,16,-1
 990 1365 l 2,17,18
 1029 1365 1029 1365 1058.5 1336 c 128,-1,19
 1088 1307 1088 1307 1088 1268 c 128,-1,20
 1088 1229 1088 1229 1058 1199.5 c 128,-1,21
 1028 1170 1028 1170 990 1170 c 2,22,-1
 308 1170 l 1,23,-1
 308 780 l 1,24,-1
 794 780 l 2,25,26
 833 780 833 780 862.5 751 c 128,-1,27
 892 722 892 722 892 683 c 128,-1,28
 892 644 892 644 862.5 614.5 c 128,-1,29
 833 585 833 585 794 585 c 2,0,-1
EndSplineSet
EndChar

StartChar: F
Encoding: 70 70 41
Width: 1200
GlyphClass: 2
Flags: W
LayerCount: 2
Fore
SplineSet
794 585 m 2,0,-1
 308 585 l 1,1,-1
 308 195 l 2,2,3
 308 58 308 58 278 29 c 128,-1,4
 248 0 248 0 209 0 c 128,-1,5
 170 0 170 0 141 29.5 c 128,-1,6
 112 59 112 59 112 98 c 2,7,-1
 112 1268 l 2,8,9
 112 1307 112 1307 141 1336 c 128,-1,10
 170 1365 170 1365 210 1365 c 2,11,-1
 990 1365 l 2,12,13
 1029 1365 1029 1365 1058.5 1336 c 128,-1,14
 1088 1307 1088 1307 1088 1268 c 128,-1,15
 1088 1229 1088 1229 1058 1199.5 c 128,-1,16
 1028 1170 1028 1170 990 1170 c 2,17,-1
 308 1170 l 1,18,-1
 308 780 l 1,19,-1
 794 780 l 2,20,21
 833 780 833 780 862.5 751 c 128,-1,22
 892 722 892 722 892 683 c 128,-1,23
 892 644 892 644 862.5 614.5 c 128,-1,24
 833 585 833 585 794 585 c 2,0,-1
EndSplineSet
EndChar

StartChar: G
Encoding: 71 71 42
Width: 1200
GlyphClass: 2
Flags: W
LayerCount: 2
Fore
SplineSet
404 0 m 2,0,1
 287 0 287 0 199.5 88 c 128,-1,2
 112 176 112 176 112 293 c 2,3,-1
 112 1073 l 2,4,5
 112 1190 112 1190 200 1277.5 c 128,-1,6
 288 1365 288 1365 404 1365 c 2,7,-1
 794 1365 l 2,8,9
 911 1365 911 1365 999.5 1277.5 c 128,-1,10
 1088 1190 1088 1190 1088 1073 c 0,11,12
 1088 1034 1088 1034 1058 1004.5 c 128,-1,13
 1028 975 1028 975 990 975 c 0,14,15
 951 975 951 975 921.5 1004.5 c 128,-1,16
 892 1034 892 1034 892 1073 c 256,17,18
 892 1112 892 1112 863 1141 c 128,-1,19
 834 1170 834 1170 794 1170 c 2,20,-1
 404 1170 l 2,21,22
 365 1170 365 1170 336.5 1141 c 128,-1,23
 308 1112 308 1112 308 1073 c 2,24,-1
 308 293 l 2,25,26
 308 254 308 254 337 224.5 c 128,-1,27
 366 195 366 195 404 195 c 2,28,-1
 794 195 l 2,29,30
 833 195 833 195 862.5 224.5 c 128,-1,31
 892 254 892 254 892 293 c 2,32,-1
 892 585 l 1,33,-1
 794 585 l 2,34,35
 755 585 755 585 726.5 614.5 c 128,-1,36
 698 644 698 644 698 683 c 128,-1,37
 698 722 698 722 727 751 c 128,-1,38
 756 780 756 780 794 780 c 2,39,-1
 990 780 l 2,40,41
 1029 780 1029 780 1058.5 751 c 128,-1,42
 1088 722 1088 722 1088 683 c 2,43,-1
 1088 293 l 2,44,45
 1088 176 1088 176 1000 88 c 128,-1,46
 912 0 912 0 794 0 c 2,47,-1
 404 0 l 2,0,1
EndSplineSet
EndChar

StartChar: H
Encoding: 72 72 43
Width: 1200
GlyphClass: 2
Flags: W
LayerCount: 2
Fore
SplineSet
1088 1268 m 2,0,-1
 1088 98 l 2,1,2
 1088 59 1088 59 1058 29.5 c 128,-1,3
 1028 0 1028 0 989 0 c 128,-1,4
 950 0 950 0 921 29.5 c 128,-1,5
 892 59 892 59 892 98 c 2,6,-1
 892 585 l 1,7,-1
 308 585 l 1,8,-1
 308 98 l 2,9,10
 308 59 308 59 278 29.5 c 128,-1,11
 248 0 248 0 209 0 c 128,-1,12
 170 0 170 0 141 29.5 c 128,-1,13
 112 59 112 59 112 98 c 2,14,-1
 112 1268 l 2,15,16
 112 1307 112 1307 141 1336 c 128,-1,17
 170 1365 170 1365 209 1365 c 128,-1,18
 248 1365 248 1365 278 1336 c 128,-1,19
 308 1307 308 1307 308 1268 c 2,20,-1
 308 780 l 1,21,-1
 892 780 l 1,22,-1
 892 1268 l 2,23,24
 892 1307 892 1307 921 1336 c 128,-1,25
 950 1365 950 1365 989 1365 c 128,-1,26
 1028 1365 1028 1365 1058 1336 c 128,-1,27
 1088 1307 1088 1307 1088 1268 c 2,0,-1
EndSplineSet
EndChar

StartChar: I
Encoding: 73 73 44
Width: 1200
GlyphClass: 2
Flags: W
LayerCount: 2
Fore
SplineSet
369 0 m 2,0,1
 330 0 330 0 301.5 29.5 c 128,-1,2
 273 59 273 59 273 98 c 128,-1,3
 273 137 273 137 302 166 c 128,-1,4
 331 195 331 195 369 195 c 2,5,-1
 502 195 l 1,6,-1
 502 1170 l 1,7,-1
 404 1170 l 2,8,9
 330 1170 330 1170 301.5 1199.5 c 128,-1,10
 273 1229 273 1229 273 1268 c 128,-1,11
 273 1307 273 1307 302 1336 c 128,-1,12
 331 1365 331 1365 369 1365 c 2,13,-1
 833 1365 l 2,14,15
 872 1365 872 1365 901.5 1336 c 128,-1,16
 931 1307 931 1307 931 1268 c 128,-1,17
 931 1229 931 1229 902 1200 c 0,18,19
 873 1170 873 1170 833 1170 c 2,20,-1
 698 1170 l 1,21,-1
 698 195 l 1,22,-1
 833 195 l 2,23,24
 872 195 872 195 901.5 166 c 128,-1,25
 931 137 931 137 931 98 c 128,-1,26
 931 59 931 59 902 29 c 0,27,28
 873 0 873 0 833 0 c 2,29,-1
 369 0 l 2,0,1
EndSplineSet
EndChar

StartChar: J
Encoding: 74 74 45
Width: 1200
GlyphClass: 2
Flags: W
LayerCount: 2
Fore
SplineSet
794 0 m 2,0,-1
 404 0 l 2,1,2
 287 0 287 0 199.5 88 c 128,-1,3
 112 176 112 176 112 293 c 0,4,5
 112 332 112 332 141 361 c 128,-1,6
 170 390 170 390 209 390 c 128,-1,7
 248 390 248 390 278 361 c 128,-1,8
 308 332 308 332 308 293 c 256,9,10
 308 254 308 254 337 224.5 c 128,-1,11
 366 195 366 195 404 195 c 2,12,-1
 794 195 l 2,13,14
 833 195 833 195 862.5 224.5 c 128,-1,15
 892 254 892 254 892 293 c 2,16,-1
 892 1268 l 2,17,18
 892 1307 892 1307 921 1336 c 128,-1,19
 950 1365 950 1365 989 1365 c 128,-1,20
 1028 1365 1028 1365 1058 1336 c 128,-1,21
 1088 1307 1088 1307 1088 1268 c 2,22,-1
 1088 293 l 2,23,24
 1088 176 1088 176 999.5 88 c 128,-1,25
 911 0 911 0 794 0 c 2,0,-1
EndSplineSet
EndChar

StartChar: K
Encoding: 75 75 46
Width: 1200
GlyphClass: 2
Flags: W
LayerCount: 2
Fore
SplineSet
538 683 m 1,0,-1
 1058 166 l 2,1,2
 1088 137 1088 137 1088 98 c 2,3,4
 1088 98 1088 98 1088 97 c 0,5,6
 1088 60 1088 60 1058 30 c 128,-1,7
 1028 0 1028 0 989 0 c 128,-1,8
 950 0 950 0 922 29 c 2,9,-1
 404 550 l 1,10,-1
 308 453 l 1,11,-1
 308 98 l 2,12,13
 308 59 308 59 278 29.5 c 128,-1,14
 248 0 248 0 209 0 c 128,-1,15
 170 0 170 0 141 29.5 c 128,-1,16
 112 59 112 59 112 98 c 2,17,-1
 112 1268 l 2,18,19
 112 1307 112 1307 141 1336 c 128,-1,20
 170 1365 170 1365 209 1365 c 128,-1,21
 248 1365 248 1365 278 1336 c 128,-1,22
 308 1307 308 1307 308 1268 c 2,23,-1
 308 726 l 1,24,-1
 922 1336 l 2,25,26
 951 1365 951 1365 989.5 1365 c 128,-1,27
 1028 1365 1028 1365 1058 1336 c 128,-1,28
 1088 1307 1088 1307 1088 1268 c 128,-1,29
 1088 1229 1088 1229 1058 1200 c 2,30,-1
 538 683 l 1,0,-1
EndSplineSet
EndChar

StartChar: L
Encoding: 76 76 47
Width: 1200
GlyphClass: 2
Flags: W
LayerCount: 2
Fore
SplineSet
308 195 m 1,0,-1
 990 195 l 2,1,2
 1029 195 1029 195 1058.5 166 c 128,-1,3
 1088 137 1088 137 1088 98 c 128,-1,4
 1088 59 1088 59 1058 29.5 c 128,-1,5
 1028 0 1028 0 990 0 c 2,6,-1
 210 0 l 2,7,8
 171 0 171 0 141.5 29.5 c 128,-1,9
 112 59 112 59 112 98 c 2,10,-1
 112 1268 l 2,11,12
 112 1307 112 1307 141 1336 c 128,-1,13
 170 1365 170 1365 209 1365 c 128,-1,14
 248 1365 248 1365 278 1336 c 128,-1,15
 308 1307 308 1307 308 1268 c 2,16,-1
 308 195 l 1,0,-1
EndSplineSet
EndChar

StartChar: M
Encoding: 77 77 48
Width: 1200
GlyphClass: 2
Flags: W
LayerCount: 2
Fore
SplineSet
210 0 m 256,0,1
 171 0 171 0 141.5 29.5 c 128,-1,2
 112 59 112 59 112 98 c 2,3,-1
 112 1268 l 2,4,5
 112 1307 112 1307 141 1336 c 128,-1,6
 170 1365 170 1365 209 1365 c 128,-1,7
 248 1365 248 1365 278 1336 c 2,8,-1
 600 1014 l 1,9,-1
 922 1336 l 2,10,11
 951 1365 951 1365 989.5 1365 c 128,-1,12
 1028 1365 1028 1365 1058 1336 c 128,-1,13
 1088 1307 1088 1307 1088 1268 c 2,14,-1
 1088 98 l 2,15,16
 1088 59 1088 59 1058 29.5 c 128,-1,17
 1028 0 1028 0 989 0 c 128,-1,18
 950 0 950 0 921 29.5 c 128,-1,19
 892 59 892 59 892 98 c 2,20,-1
 892 1038 l 1,21,-1
 668 809 l 2,22,23
 639 780 639 780 599.5 780 c 128,-1,24
 560 780 560 780 532 809 c 2,25,-1
 308 1034 l 1,26,-1
 308 98 l 2,27,28
 308 59 308 59 278.5 29.5 c 128,-1,29
 249 0 249 0 210 0 c 256,0,1
EndSplineSet
EndChar

StartChar: N
Encoding: 78 78 49
Width: 1200
GlyphClass: 2
Flags: W
LayerCount: 2
Fore
SplineSet
210 0 m 256,0,1
 171 0 171 0 141.5 29.5 c 128,-1,2
 112 59 112 59 112 98 c 2,3,-1
 112 1268 l 2,4,5
 112 1307 112 1307 141 1336 c 128,-1,6
 170 1365 170 1365 209 1365 c 128,-1,7
 248 1365 248 1365 278 1336 c 2,8,-1
 892 722 l 1,9,-1
 892 1268 l 2,10,11
 892 1307 892 1307 921 1336 c 128,-1,12
 950 1365 950 1365 989 1365 c 128,-1,13
 1028 1365 1028 1365 1058 1336 c 128,-1,14
 1088 1307 1088 1307 1088 1268 c 2,15,-1
 1088 98 l 2,16,17
 1088 59 1088 59 1058 29.5 c 128,-1,18
 1028 0 1028 0 989 0 c 128,-1,19
 950 0 950 0 921 29.5 c 128,-1,20
 892 59 892 59 892 98 c 2,21,-1
 892 449 l 1,22,-1
 308 1034 l 1,23,-1
 308 98 l 2,24,25
 308 59 308 59 278.5 29.5 c 128,-1,26
 249 0 249 0 210 0 c 256,0,1
EndSplineSet
EndChar

StartChar: O
Encoding: 79 79 50
Width: 1200
GlyphClass: 2
Flags: W
LayerCount: 2
Fore
SplineSet
404 0 m 2,0,1
 287 0 287 0 199.5 88 c 128,-1,2
 112 176 112 176 112 293 c 2,3,-1
 112 1073 l 2,4,5
 112 1190 112 1190 200 1277.5 c 128,-1,6
 288 1365 288 1365 404 1365 c 2,7,-1
 794 1365 l 2,8,9
 911 1365 911 1365 999.5 1277.5 c 128,-1,10
 1088 1190 1088 1190 1088 1073 c 2,11,-1
 1088 293 l 2,12,13
 1088 176 1088 176 1000 88 c 128,-1,14
 912 0 912 0 794 0 c 2,15,-1
 404 0 l 2,0,1
892 1073 m 2,16,17
 892 1112 892 1112 863 1141 c 128,-1,18
 834 1170 834 1170 794 1170 c 2,19,-1
 404 1170 l 2,20,21
 365 1170 365 1170 336.5 1141 c 128,-1,22
 308 1112 308 1112 308 1073 c 2,23,-1
 308 293 l 2,24,25
 308 254 308 254 337 224.5 c 128,-1,26
 366 195 366 195 404 195 c 2,27,-1
 794 195 l 2,28,29
 833 195 833 195 862.5 224.5 c 128,-1,30
 892 254 892 254 892 293 c 2,31,-1
 892 1073 l 2,16,17
EndSplineSet
EndChar

StartChar: P
Encoding: 80 80 51
Width: 1200
GlyphClass: 2
Flags: W
LayerCount: 2
Fore
SplineSet
308 780 m 1,0,-1
 794 780 l 2,1,2
 833 780 833 780 862.5 809.5 c 128,-1,3
 892 839 892 839 892 878 c 2,4,-1
 892 1073 l 2,5,6
 892 1112 892 1112 863 1141 c 128,-1,7
 834 1170 834 1170 794 1170 c 2,8,-1
 308 1170 l 1,9,-1
 308 780 l 1,0,-1
308 98 m 2,10,11
 308 59 308 59 278 29.5 c 128,-1,12
 248 0 248 0 209 0 c 128,-1,13
 170 0 170 0 141 29.5 c 128,-1,14
 112 59 112 59 112 98 c 2,15,-1
 112 1268 l 2,16,17
 112 1307 112 1307 141 1336 c 128,-1,18
 170 1365 170 1365 210 1365 c 2,19,-1
 794 1365 l 2,20,21
 911 1365 911 1365 999.5 1277.5 c 128,-1,22
 1088 1190 1088 1190 1088 1073 c 2,23,-1
 1088 878 l 2,24,25
 1088 761 1088 761 1000 673 c 128,-1,26
 912 585 912 585 794 585 c 2,27,-1
 308 585 l 1,28,-1
 308 98 l 2,10,11
EndSplineSet
EndChar

StartChar: Q
Encoding: 81 81 52
Width: 1200
GlyphClass: 2
Flags: W
LayerCount: 2
Fore
SplineSet
892 1073 m 2,0,1
 892 1112 892 1112 863 1141 c 128,-1,2
 834 1170 834 1170 794 1170 c 2,3,-1
 404 1170 l 2,4,5
 365 1170 365 1170 336.5 1141 c 128,-1,6
 308 1112 308 1112 308 1073 c 2,7,-1
 308 293 l 2,8,9
 308 254 308 254 337 224.5 c 128,-1,10
 366 195 366 195 404 195 c 2,11,-1
 560 195 l 1,12,-1
 658 293 l 1,13,-1
 532 419 l 2,14,15
 502 448 502 448 502 488 c 2,16,17
 502 488 502 488 502 489 c 0,18,19
 502 528 502 528 531 556 c 0,20,21
 560 585 560 585 599 585 c 128,-1,22
 638 585 638 585 668 556 c 2,23,-1
 768 456 l 1,24,-1
 892 581 l 1,25,-1
 892 1073 l 2,0,1
1088 488 m 2,26,27
 1088 449 1088 449 1058 419 c 2,28,-1
 928 293 l 1,29,-1
 1058 166 l 2,30,31
 1088 137 1088 137 1088 98 c 2,32,33
 1088 98 1088 98 1088 97 c 0,34,35
 1088 60 1088 60 1058 30 c 128,-1,36
 1028 0 1028 0 989 0 c 128,-1,37
 950 0 950 0 922 29 c 2,38,-1
 790 156 l 1,39,-1
 668 29 l 2,40,41
 640 0 640 0 600 0 c 2,42,-1
 404 0 l 2,43,44
 287 0 287 0 199.5 88 c 128,-1,45
 112 176 112 176 112 293 c 2,46,-1
 112 1073 l 2,47,48
 112 1190 112 1190 200 1277.5 c 128,-1,49
 288 1365 288 1365 404 1365 c 2,50,-1
 794 1365 l 2,51,52
 911 1365 911 1365 999.5 1277.5 c 128,-1,53
 1088 1190 1088 1190 1088 1073 c 2,54,-1
 1088 488 l 2,26,27
EndSplineSet
EndChar

StartChar: R
Encoding: 82 82 53
Width: 1200
GlyphClass: 2
Flags: W
LayerCount: 2
Fore
SplineSet
308 780 m 1,0,-1
 701 780 l 2,1,2
 740 780 740 780 769.5 809.5 c 128,-1,3
 799 839 799 839 799 878 c 2,4,-1
 799 1073 l 2,5,6
 799 1112 799 1112 770 1141 c 128,-1,7
 741 1170 741 1170 701 1170 c 2,8,-1
 308 1170 l 1,9,-1
 308 780 l 1,0,-1
990 0 m 256,10,11
 951 0 951 0 921.5 29.5 c 128,-1,12
 892 59 892 59 892 98 c 2,13,-1
 892 488 l 2,14,15
 892 527 892 527 863 556 c 128,-1,16
 834 585 834 585 794 585 c 2,17,-1
 308 585 l 1,18,-1
 308 98 l 2,19,20
 308 59 308 59 278 29.5 c 128,-1,21
 248 0 248 0 209 0 c 128,-1,22
 170 0 170 0 141 29.5 c 128,-1,23
 112 59 112 59 112 98 c 2,24,-1
 112 1268 l 2,25,26
 112 1307 112 1307 141 1336 c 128,-1,27
 170 1365 170 1365 210 1365 c 2,28,-1
 701 1365 l 2,29,30
 818 1365 818 1365 906.5 1277.5 c 128,-1,31
 995 1190 995 1190 995 1073 c 2,32,-1
 995 878 l 2,33,34
 995 761 995 761 907 673 c 1,35,36
 1088 666 1088 666 1088 488 c 2,37,-1
 1088 98 l 2,38,39
 1088 59 1088 59 1058.5 29.5 c 128,-1,40
 1029 0 1029 0 990 0 c 256,10,11
EndSplineSet
EndChar

StartChar: S
Encoding: 83 83 54
Width: 1200
GlyphClass: 2
Flags: W
LayerCount: 2
Fore
SplineSet
404 585 m 2,0,1
 267 585 267 585 189.5 663 c 128,-1,2
 112 741 112 741 112 878 c 2,3,-1
 112 1073 l 2,4,5
 112 1190 112 1190 190 1277.5 c 128,-1,6
 268 1365 268 1365 404 1365 c 2,7,-1
 794 1365 l 2,8,9
 911 1365 911 1365 999.5 1277.5 c 128,-1,10
 1088 1190 1088 1190 1088 1073 c 0,11,12
 1088 1034 1088 1034 1058 1004.5 c 128,-1,13
 1028 975 1028 975 990 975 c 0,14,15
 951 975 951 975 921.5 1004.5 c 128,-1,16
 892 1034 892 1034 892 1073 c 256,17,18
 892 1112 892 1112 863 1141 c 128,-1,19
 834 1170 834 1170 794 1170 c 2,20,-1
 404 1170 l 2,21,22
 365 1170 365 1170 336.5 1141 c 128,-1,23
 308 1112 308 1112 308 1073 c 2,24,-1
 308 878 l 2,25,26
 308 839 308 839 337 809.5 c 128,-1,27
 366 780 366 780 404 780 c 2,28,-1
 794 780 l 2,29,30
 911 780 911 780 999.5 692.5 c 128,-1,31
 1088 605 1088 605 1088 488 c 2,32,-1
 1088 293 l 2,33,34
 1088 156 1088 156 1000 78 c 128,-1,35
 912 0 912 0 794 0 c 2,36,-1
 404 0 l 2,37,38
 287 0 287 0 199.5 88 c 128,-1,39
 112 176 112 176 112 293 c 0,40,41
 112 332 112 332 141 361 c 128,-1,42
 170 390 170 390 209 390 c 128,-1,43
 248 390 248 390 278 361 c 128,-1,44
 308 332 308 332 308 293 c 256,45,46
 308 254 308 254 337 224.5 c 128,-1,47
 366 195 366 195 404 195 c 2,48,-1
 794 195 l 2,49,50
 833 195 833 195 862.5 224.5 c 128,-1,51
 892 254 892 254 892 293 c 2,52,-1
 892 488 l 2,53,54
 892 527 892 527 863 556 c 128,-1,55
 834 585 834 585 794 585 c 2,56,-1
 404 585 l 2,0,1
EndSplineSet
EndChar

StartChar: T
Encoding: 84 84 55
Width: 1200
GlyphClass: 2
Flags: W
LayerCount: 2
Fore
SplineSet
210 1170 m 2,0,1
 171 1170 171 1170 141.5 1199.5 c 128,-1,2
 112 1229 112 1229 112 1268 c 128,-1,3
 112 1307 112 1307 141 1336 c 128,-1,4
 170 1365 170 1365 210 1365 c 2,5,-1
 990 1365 l 2,6,7
 1029 1365 1029 1365 1058.5 1336 c 128,-1,8
 1088 1307 1088 1307 1088 1268 c 128,-1,9
 1088 1229 1088 1229 1058 1199.5 c 128,-1,10
 1028 1170 1028 1170 990 1170 c 2,11,-1
 698 1170 l 1,12,-1
 698 98 l 2,13,14
 698 59 698 59 668 29.5 c 128,-1,15
 638 0 638 0 599 0 c 128,-1,16
 560 0 560 0 531 29.5 c 128,-1,17
 502 59 502 59 502 98 c 2,18,-1
 502 1170 l 1,19,-1
 210 1170 l 2,0,1
EndSplineSet
EndChar

StartChar: U
Encoding: 85 85 56
Width: 1200
GlyphClass: 2
Flags: W
LayerCount: 2
Fore
SplineSet
794 0 m 2,0,-1
 404 0 l 2,1,2
 287 0 287 0 199.5 88 c 128,-1,3
 112 176 112 176 112 293 c 2,4,-1
 112 1268 l 2,5,6
 112 1307 112 1307 141 1336 c 128,-1,7
 170 1365 170 1365 209 1365 c 128,-1,8
 248 1365 248 1365 278 1336 c 128,-1,9
 308 1307 308 1307 308 1268 c 2,10,-1
 308 293 l 2,11,12
 308 254 308 254 337 224.5 c 128,-1,13
 366 195 366 195 404 195 c 2,14,-1
 794 195 l 2,15,16
 833 195 833 195 862.5 224.5 c 128,-1,17
 892 254 892 254 892 293 c 2,18,-1
 892 1268 l 2,19,20
 892 1307 892 1307 921 1336 c 128,-1,21
 950 1365 950 1365 989 1365 c 128,-1,22
 1028 1365 1028 1365 1058 1336 c 128,-1,23
 1088 1307 1088 1307 1088 1268 c 2,24,-1
 1088 293 l 2,25,26
 1088 176 1088 176 999.5 88 c 128,-1,27
 911 0 911 0 794 0 c 2,0,-1
EndSplineSet
EndChar

StartChar: V
Encoding: 86 86 57
Width: 1200
GlyphClass: 2
Flags: W
LayerCount: 2
Fore
SplineSet
600 0 m 0,0,1
 562 0 562 0 532 29 c 2,2,-1
 142 419 l 2,3,4
 112 448 112 448 112 488 c 2,5,-1
 112 1268 l 2,6,7
 112 1307 112 1307 141 1336 c 128,-1,8
 170 1365 170 1365 209 1365 c 128,-1,9
 248 1365 248 1365 278 1336 c 128,-1,10
 308 1307 308 1307 308 1268 c 2,11,-1
 308 581 l 1,12,-1
 600 289 l 1,13,-1
 892 581 l 1,14,-1
 892 1268 l 2,15,16
 892 1307 892 1307 921 1336 c 128,-1,17
 950 1365 950 1365 989 1365 c 128,-1,18
 1028 1365 1028 1365 1058 1336 c 128,-1,19
 1088 1307 1088 1307 1088 1268 c 2,20,-1
 1088 488 l 2,21,22
 1088 449 1088 449 1058 419 c 2,23,-1
 668 29 l 2,24,25
 640 0 640 0 600 0 c 0,0,1
EndSplineSet
EndChar

StartChar: W
Encoding: 87 87 58
Width: 1200
GlyphClass: 2
Flags: W
LayerCount: 2
Fore
SplineSet
794 0 m 0,0,1
 678 0 678 0 590 88 c 1,2,3
 522 0 522 0 404 0 c 0,4,5
 287 0 287 0 199.5 88 c 128,-1,6
 112 176 112 176 112 293 c 2,7,-1
 112 1268 l 2,8,9
 112 1307 112 1307 141 1336 c 128,-1,10
 170 1365 170 1365 209 1365 c 128,-1,11
 248 1365 248 1365 278 1336 c 128,-1,12
 308 1307 308 1307 308 1268 c 2,13,-1
 308 293 l 2,14,15
 308 254 308 254 337 224.5 c 128,-1,16
 366 195 366 195 404 195 c 0,17,18
 443 195 443 195 472.5 224.5 c 128,-1,19
 502 254 502 254 502 293 c 2,20,-1
 502 683 l 2,21,22
 502 722 502 722 531 751 c 128,-1,23
 560 780 560 780 599 780 c 128,-1,24
 638 780 638 780 668 751 c 128,-1,25
 698 722 698 722 698 683 c 2,26,-1
 698 293 l 2,27,28
 698 254 698 254 727 224.5 c 128,-1,29
 756 195 756 195 794 195 c 0,30,31
 833 195 833 195 862.5 224.5 c 128,-1,32
 892 254 892 254 892 293 c 2,33,-1
 892 1268 l 2,34,35
 892 1307 892 1307 921 1336 c 128,-1,36
 950 1365 950 1365 989 1365 c 128,-1,37
 1028 1365 1028 1365 1058 1336 c 128,-1,38
 1088 1307 1088 1307 1088 1268 c 2,39,-1
 1088 293 l 2,40,41
 1088 176 1088 176 999.5 88 c 128,-1,42
 911 0 911 0 794 0 c 0,0,1
EndSplineSet
EndChar

StartChar: X
Encoding: 88 88 59
Width: 1200
GlyphClass: 2
Flags: W
LayerCount: 2
Fore
SplineSet
308 254 m 1,0,-1
 308 98 l 2,1,2
 308 59 308 59 278 29.5 c 128,-1,3
 248 0 248 0 209 0 c 128,-1,4
 170 0 170 0 141 29.5 c 128,-1,5
 112 59 112 59 112 98 c 2,6,-1
 112 293 l 2,7,8
 112 332 112 332 142 361 c 2,9,-1
 464 683 l 1,10,-1
 142 1004 l 2,11,12
 112 1033 112 1033 112 1073 c 2,13,-1
 112 1268 l 2,14,15
 112 1307 112 1307 141 1336 c 128,-1,16
 170 1365 170 1365 209 1365 c 128,-1,17
 248 1365 248 1365 278 1336 c 128,-1,18
 308 1307 308 1307 308 1268 c 2,19,-1
 308 1112 l 1,20,-1
 600 819 l 1,21,-1
 892 1112 l 1,22,-1
 892 1268 l 2,23,24
 892 1307 892 1307 921 1336 c 128,-1,25
 950 1365 950 1365 989 1365 c 128,-1,26
 1028 1365 1028 1365 1058 1336 c 128,-1,27
 1088 1307 1088 1307 1088 1268 c 2,28,-1
 1088 1073 l 2,29,30
 1088 1034 1088 1034 1058 1004 c 2,31,-1
 732 683 l 1,32,-1
 1058 361 l 2,33,34
 1088 332 1088 332 1088 293 c 2,35,-1
 1088 98 l 2,36,37
 1088 59 1088 59 1058 29.5 c 128,-1,38
 1028 0 1028 0 989 0 c 128,-1,39
 950 0 950 0 921 29.5 c 128,-1,40
 892 59 892 59 892 98 c 2,41,-1
 892 254 l 1,42,-1
 600 546 l 1,43,-1
 308 254 l 1,0,-1
EndSplineSet
EndChar

StartChar: Y
Encoding: 89 89 60
Width: 1200
GlyphClass: 2
Flags: W
LayerCount: 2
Fore
SplineSet
502 644 m 1,0,-1
 142 1004 l 2,1,2
 112 1033 112 1033 112 1073 c 2,3,-1
 112 1268 l 2,4,5
 112 1307 112 1307 141 1336 c 128,-1,6
 170 1365 170 1365 209 1365 c 128,-1,7
 248 1365 248 1365 278 1336 c 128,-1,8
 308 1307 308 1307 308 1268 c 2,9,-1
 308 1112 l 1,10,-1
 600 819 l 1,11,-1
 892 1112 l 1,12,-1
 892 1268 l 2,13,14
 892 1307 892 1307 921 1336 c 128,-1,15
 950 1365 950 1365 989 1365 c 128,-1,16
 1028 1365 1028 1365 1058 1336 c 128,-1,17
 1088 1307 1088 1307 1088 1268 c 2,18,-1
 1088 1073 l 2,19,20
 1088 1034 1088 1034 1058 1004 c 2,21,-1
 698 648 l 1,22,-1
 698 98 l 2,23,24
 698 59 698 59 668 29.5 c 128,-1,25
 638 0 638 0 599 0 c 128,-1,26
 560 0 560 0 531 29.5 c 128,-1,27
 502 59 502 59 502 98 c 2,28,-1
 502 644 l 1,0,-1
EndSplineSet
EndChar

StartChar: Z
Encoding: 90 90 61
Width: 1200
GlyphClass: 2
Flags: W
LayerCount: 2
Fore
SplineSet
112 293 m 2,0,1
 112 332 112 332 142 361 c 2,2,-1
 892 1116 l 1,3,-1
 892 1170 l 1,4,-1
 210 1170 l 2,5,6
 171 1170 171 1170 141.5 1199.5 c 128,-1,7
 112 1229 112 1229 112 1268 c 128,-1,8
 112 1307 112 1307 141 1336 c 128,-1,9
 170 1365 170 1365 210 1365 c 2,10,-1
 990 1365 l 2,11,12
 1029 1365 1029 1365 1058.5 1336 c 128,-1,13
 1088 1307 1088 1307 1088 1268 c 2,14,-1
 1088 1073 l 2,15,16
 1088 1034 1088 1034 1058 1004 c 2,17,-1
 308 257 l 1,18,-1
 308 195 l 1,19,-1
 990 195 l 2,20,21
 1029 195 1029 195 1058.5 166 c 128,-1,22
 1088 137 1088 137 1088 98 c 128,-1,23
 1088 59 1088 59 1058 29.5 c 128,-1,24
 1028 0 1028 0 990 0 c 2,25,-1
 210 0 l 2,26,27
 171 0 171 0 141.5 29.5 c 128,-1,28
 112 59 112 59 112 98 c 2,29,-1
 112 293 l 2,0,1
EndSplineSet
EndChar

StartChar: bracketleft
Encoding: 91 91 62
Width: 1200
GlyphClass: 2
Flags: W
LayerCount: 2
Fore
SplineSet
698 0 m 2,0,-1
 503 0 l 2,1,2
 464 0 464 0 434.5 29.5 c 128,-1,3
 405 59 405 59 405 98 c 2,4,-1
 405 1268 l 2,5,6
 405 1307 405 1307 434.5 1336 c 128,-1,7
 464 1365 464 1365 503 1365 c 2,8,-1
 698 1365 l 2,9,10
 737 1365 737 1365 766 1336 c 128,-1,11
 795 1307 795 1307 795 1268 c 128,-1,12
 795 1229 795 1229 766 1199.5 c 128,-1,13
 737 1170 737 1170 698 1170 c 2,14,-1
 600 1170 l 1,15,-1
 600 195 l 1,16,-1
 698 195 l 2,17,18
 737 195 737 195 766 166 c 128,-1,19
 795 137 795 137 795 98 c 128,-1,20
 795 59 795 59 766 29.5 c 128,-1,21
 737 0 737 0 698 0 c 2,0,-1
EndSplineSet
EndChar

StartChar: backslash
Encoding: 92 92 63
Width: 1200
GlyphClass: 2
Flags: W
LayerCount: 2
Fore
SplineSet
1092 23 m 0,0,1
 1066 2 1066 2 1033 2 c 0,2,3
 1026 2 1026 2 1020 3 c 0,4,5
 979 8 979 8 955 39 c 2,6,-1
 102 1261 l 2,7,8
 90 1283 90 1283 90 1306 c 0,9,10
 90 1320 90 1320 94 1335 c 0,11,12
 105 1374 105 1374 138 1394 c 0,13,14
 160 1406 160 1406 185 1406 c 0,15,16
 198 1406 198 1406 212 1403 c 0,17,18
 252 1392 252 1392 272 1358 c 2,19,-1
 1107 160 l 2,20,21
 1128 135 1128 135 1128 102 c 0,22,23
 1128 95 1128 95 1127 88 c 0,24,25
 1122 47 1122 47 1092 23 c 0,0,1
EndSplineSet
EndChar

StartChar: bracketright
Encoding: 93 93 64
Width: 1200
GlyphClass: 2
Flags: W
LayerCount: 2
Fore
SplineSet
503 0 m 2,0,1
 464 0 464 0 434.5 29.5 c 128,-1,2
 405 59 405 59 405 98 c 128,-1,3
 405 137 405 137 434.5 166 c 128,-1,4
 464 195 464 195 503 195 c 2,5,-1
 600 195 l 1,6,-1
 600 1170 l 1,7,-1
 503 1170 l 2,8,9
 464 1170 464 1170 434.5 1199.5 c 128,-1,10
 405 1229 405 1229 405 1268 c 128,-1,11
 405 1307 405 1307 434.5 1336 c 128,-1,12
 464 1365 464 1365 503 1365 c 2,13,-1
 698 1365 l 2,14,15
 737 1365 737 1365 766 1336 c 128,-1,16
 795 1307 795 1307 795 1268 c 2,17,-1
 795 98 l 2,18,19
 795 59 795 59 766 29.5 c 128,-1,20
 737 0 737 0 698 0 c 2,21,-1
 503 0 l 2,0,1
EndSplineSet
EndChar

StartChar: asciicircum
Encoding: 94 94 65
Width: 1200
GlyphClass: 2
Flags: W
LayerCount: 2
Fore
SplineSet
210 780 m 0,0,1
 171 780 171 780 141.5 809.5 c 128,-1,2
 112 839 112 839 112 878 c 128,-1,3
 112 917 112 917 142 946 c 2,4,-1
 532 1336 l 2,5,6
 561 1365 561 1365 599.5 1365 c 128,-1,7
 638 1365 638 1365 668 1336 c 2,8,-1
 1058 946 l 2,9,10
 1088 917 1088 917 1088 878 c 2,11,12
 1088 878 1088 878 1088 877 c 0,13,14
 1088 840 1088 840 1058 810 c 128,-1,15
 1028 780 1028 780 990 780 c 256,16,17
 952 780 952 780 922 809 c 2,18,-1
 600 1135 l 1,19,-1
 278 809 l 2,20,21
 250 780 250 780 210 780 c 0,0,1
EndSplineSet
EndChar

StartChar: underscore
Encoding: 95 95 66
Width: 1200
GlyphClass: 2
Flags: W
LayerCount: 2
Fore
SplineSet
210 -195 m 2,0,1
 171 -195 171 -195 141.5 -166 c 128,-1,2
 112 -137 112 -137 112 -98 c 128,-1,3
 112 -59 112 -59 141 -29.5 c 128,-1,4
 170 0 170 0 210 0 c 2,5,-1
 990 0 l 2,6,7
 1029 0 1029 0 1058.5 -29.5 c 128,-1,8
 1088 -59 1088 -59 1088 -98 c 128,-1,9
 1088 -137 1088 -137 1058 -166 c 128,-1,10
 1028 -195 1028 -195 990 -195 c 2,11,-1
 210 -195 l 2,0,1
EndSplineSet
EndChar

StartChar: grave
Encoding: 96 96 67
Width: 1200
GlyphClass: 2
Flags: W
LayerCount: 2
Fore
SplineSet
434 1200 m 2,0,1
 405 1229 405 1229 405 1268 c 128,-1,2
 405 1307 405 1307 434.5 1336 c 128,-1,3
 464 1365 464 1365 503 1365 c 128,-1,4
 542 1365 542 1365 571 1336 c 2,5,-1
 766 1141 l 2,6,7
 795 1112 795 1112 795 1073 c 128,-1,8
 795 1034 795 1034 766 1004.5 c 128,-1,9
 737 975 737 975 698 975 c 256,10,11
 659 975 659 975 629 1004 c 2,12,-1
 434 1200 l 2,0,1
EndSplineSet
EndChar

StartChar: a
Encoding: 97 97 68
Width: 1200
GlyphClass: 2
Flags: W
LayerCount: 2
Fore
SplineSet
404 0 m 2,0,1
 287 0 287 0 199.5 88 c 128,-1,2
 112 176 112 176 112 293 c 256,3,4
 112 410 112 410 200 497.5 c 128,-1,5
 288 585 288 585 404 585 c 2,6,-1
 892 585 l 1,7,-1
 892 683 l 2,8,9
 892 722 892 722 863 751 c 128,-1,10
 834 780 834 780 794 780 c 2,11,-1
 404 780 l 2,12,13
 365 780 365 780 336.5 809.5 c 128,-1,14
 308 839 308 839 308 878 c 128,-1,15
 308 917 308 917 337 946 c 128,-1,16
 366 975 366 975 404 975 c 2,17,-1
 794 975 l 2,18,19
 911 975 911 975 999.5 887.5 c 128,-1,20
 1088 800 1088 800 1088 683 c 2,21,-1
 1088 98 l 2,22,23
 1088 59 1088 59 1058 29.5 c 128,-1,24
 1028 0 1028 0 990 0 c 2,25,-1
 404 0 l 2,0,1
892 390 m 1,26,-1
 404 390 l 2,27,28
 365 390 365 390 336.5 361 c 128,-1,29
 308 332 308 332 308 293 c 256,30,31
 308 254 308 254 337 224.5 c 128,-1,32
 366 195 366 195 404 195 c 2,33,-1
 892 195 l 1,34,-1
 892 390 l 1,26,-1
EndSplineSet
EndChar

StartChar: b
Encoding: 98 98 69
Width: 1200
GlyphClass: 2
Flags: W
LayerCount: 2
Fore
SplineSet
794 780 m 2,0,-1
 308 780 l 1,1,-1
 308 195 l 1,2,-1
 794 195 l 2,3,4
 833 195 833 195 862.5 224.5 c 128,-1,5
 892 254 892 254 892 293 c 2,6,-1
 892 683 l 2,7,8
 892 722 892 722 862.5 751 c 128,-1,9
 833 780 833 780 794 780 c 2,0,-1
210 0 m 2,10,11
 171 0 171 0 141.5 29.5 c 128,-1,12
 112 59 112 59 112 98 c 2,13,-1
 112 1268 l 2,14,15
 112 1307 112 1307 141 1336 c 128,-1,16
 170 1365 170 1365 209 1365 c 128,-1,17
 248 1365 248 1365 278 1336 c 128,-1,18
 308 1307 308 1307 308 1268 c 2,19,-1
 308 975 l 1,20,-1
 794 975 l 2,21,22
 911 975 911 975 999.5 887.5 c 128,-1,23
 1088 800 1088 800 1088 683 c 2,24,-1
 1088 293 l 2,25,26
 1088 176 1088 176 1000 88 c 128,-1,27
 912 0 912 0 794 0 c 2,28,-1
 210 0 l 2,10,11
EndSplineSet
EndChar

StartChar: c
Encoding: 99 99 70
Width: 1200
GlyphClass: 2
Flags: W
LayerCount: 2
Fore
SplineSet
404 0 m 2,0,1
 287 0 287 0 199.5 88 c 128,-1,2
 112 176 112 176 112 293 c 2,3,-1
 112 683 l 2,4,5
 112 800 112 800 200 887.5 c 128,-1,6
 288 975 288 975 404 975 c 2,7,-1
 794 975 l 2,8,9
 911 975 911 975 999.5 887.5 c 128,-1,10
 1088 800 1088 800 1088 683 c 0,11,12
 1088 644 1088 644 1058 614.5 c 128,-1,13
 1028 585 1028 585 990 585 c 0,14,15
 951 585 951 585 921.5 614.5 c 128,-1,16
 892 644 892 644 892 683 c 256,17,18
 892 722 892 722 863 751 c 128,-1,19
 834 780 834 780 794 780 c 2,20,-1
 404 780 l 2,21,22
 365 780 365 780 336.5 751 c 128,-1,23
 308 722 308 722 308 683 c 2,24,-1
 308 293 l 2,25,26
 308 254 308 254 337 224.5 c 128,-1,27
 366 195 366 195 404 195 c 2,28,-1
 794 195 l 2,29,30
 833 195 833 195 862.5 224.5 c 128,-1,31
 892 254 892 254 892 293 c 256,32,33
 892 332 892 332 921 361 c 128,-1,34
 950 390 950 390 989 390 c 128,-1,35
 1028 390 1028 390 1058 361 c 128,-1,36
 1088 332 1088 332 1088 293 c 0,37,38
 1088 176 1088 176 1000 88 c 128,-1,39
 912 0 912 0 794 0 c 2,40,-1
 404 0 l 2,0,1
EndSplineSet
EndChar

StartChar: d
Encoding: 100 100 71
Width: 1200
GlyphClass: 2
Flags: W
LayerCount: 2
Fore
SplineSet
404 780 m 2,0,1
 365 780 365 780 336.5 751 c 128,-1,2
 308 722 308 722 308 683 c 2,3,-1
 308 293 l 2,4,5
 308 254 308 254 337 224.5 c 128,-1,6
 366 195 366 195 404 195 c 2,7,-1
 892 195 l 1,8,-1
 892 780 l 1,9,-1
 404 780 l 2,0,1
990 0 m 2,10,-1
 404 0 l 2,11,12
 287 0 287 0 199.5 88 c 128,-1,13
 112 176 112 176 112 293 c 2,14,-1
 112 683 l 2,15,16
 112 800 112 800 200 887.5 c 128,-1,17
 288 975 288 975 404 975 c 2,18,-1
 892 975 l 1,19,-1
 892 1268 l 2,20,21
 892 1307 892 1307 921 1336 c 128,-1,22
 950 1365 950 1365 989 1365 c 128,-1,23
 1028 1365 1028 1365 1058 1336 c 128,-1,24
 1088 1307 1088 1307 1088 1268 c 2,25,-1
 1088 98 l 2,26,27
 1088 59 1088 59 1058.5 29.5 c 128,-1,28
 1029 0 1029 0 990 0 c 2,10,-1
EndSplineSet
EndChar

StartChar: e
Encoding: 101 101 72
Width: 1200
GlyphClass: 2
Flags: W
LayerCount: 2
Fore
SplineSet
404 0 m 2,0,1
 287 0 287 0 199.5 88 c 128,-1,2
 112 176 112 176 112 293 c 2,3,-1
 112 683 l 2,4,5
 112 800 112 800 200 887.5 c 128,-1,6
 288 975 288 975 404 975 c 2,7,-1
 794 975 l 2,8,9
 911 975 911 975 999.5 887.5 c 128,-1,10
 1088 800 1088 800 1088 683 c 2,11,-1
 1088 488 l 2,12,13
 1088 449 1088 449 1058 419.5 c 128,-1,14
 1028 390 1028 390 990 390 c 2,15,-1
 308 390 l 1,16,-1
 308 293 l 2,17,18
 308 254 308 254 337 224.5 c 128,-1,19
 366 195 366 195 404 195 c 2,20,-1
 794 195 l 2,21,22
 833 195 833 195 862.5 166 c 128,-1,23
 892 137 892 137 892 98 c 128,-1,24
 892 59 892 59 863 29.5 c 128,-1,25
 834 0 834 0 794 0 c 2,26,-1
 404 0 l 2,0,1
308 585 m 1,27,-1
 892 585 l 1,28,-1
 892 683 l 2,29,30
 892 722 892 722 863 751 c 128,-1,31
 834 780 834 780 794 780 c 2,32,-1
 404 780 l 2,33,34
 365 780 365 780 336.5 751 c 128,-1,35
 308 722 308 722 308 683 c 2,36,-1
 308 585 l 1,27,-1
EndSplineSet
EndChar

StartChar: f
Encoding: 102 102 73
Width: 1200
GlyphClass: 2
Flags: W
LayerCount: 2
Fore
SplineSet
698 780 m 2,0,-1
 600 780 l 1,1,-1
 600 98 l 2,2,3
 600 59 600 59 571 29.5 c 128,-1,4
 542 0 542 0 503 0 c 128,-1,5
 464 0 464 0 434.5 29.5 c 128,-1,6
 405 59 405 59 405 98 c 2,7,-1
 405 780 l 1,8,-1
 308 780 l 2,9,10
 269 780 269 780 239.5 809.5 c 128,-1,11
 210 839 210 839 210 878 c 128,-1,12
 210 917 210 917 239.5 946 c 128,-1,13
 269 975 269 975 308 975 c 2,14,-1
 405 975 l 1,15,-1
 405 1073 l 2,16,17
 405 1190 405 1190 493 1277.5 c 128,-1,18
 581 1365 581 1365 698 1365 c 2,19,-1
 893 1365 l 2,20,21
 932 1365 932 1365 961 1336 c 128,-1,22
 990 1307 990 1307 990 1268 c 128,-1,23
 990 1229 990 1229 961 1199.5 c 128,-1,24
 932 1170 932 1170 893 1170 c 2,25,-1
 698 1170 l 2,26,27
 659 1170 659 1170 629.5 1141 c 128,-1,28
 600 1112 600 1112 600 1073 c 2,29,-1
 600 975 l 1,30,-1
 698 975 l 2,31,32
 737 975 737 975 766 946 c 128,-1,33
 795 917 795 917 795 878 c 128,-1,34
 795 839 795 839 766 809.5 c 128,-1,35
 737 780 737 780 698 780 c 2,0,-1
EndSplineSet
EndChar

StartChar: g
Encoding: 103 103 74
Width: 1200
GlyphClass: 2
Flags: W
LayerCount: 2
Fore
SplineSet
404 195 m 2,0,1
 287 195 287 195 199.5 283 c 128,-1,2
 112 371 112 371 112 488 c 2,3,-1
 112 683 l 2,4,5
 112 800 112 800 200 887.5 c 128,-1,6
 288 975 288 975 404 975 c 2,7,-1
 990 975 l 2,8,9
 1029 975 1029 975 1058.5 946 c 128,-1,10
 1088 917 1088 917 1088 878 c 2,11,-1
 1088 98 l 2,12,13
 1088 -19 1088 -19 1000 -107 c 128,-1,14
 912 -195 912 -195 794 -195 c 2,15,-1
 404 -195 l 2,16,17
 365 -195 365 -195 336.5 -166 c 128,-1,18
 308 -137 308 -137 308 -98 c 128,-1,19
 308 -59 308 -59 337 -29.5 c 128,-1,20
 366 0 366 0 404 0 c 2,21,-1
 794 0 l 2,22,23
 833 0 833 0 862.5 29.5 c 128,-1,24
 892 59 892 59 892 98 c 2,25,-1
 892 195 l 1,26,-1
 404 195 l 2,0,1
892 390 m 1,27,-1
 892 780 l 1,28,-1
 404 780 l 2,29,30
 365 780 365 780 336.5 751 c 128,-1,31
 308 722 308 722 308 683 c 2,32,-1
 308 488 l 2,33,34
 308 449 308 449 337 419.5 c 128,-1,35
 366 390 366 390 404 390 c 2,36,-1
 892 390 l 1,27,-1
EndSplineSet
EndChar

StartChar: h
Encoding: 104 104 75
Width: 1200
GlyphClass: 2
Flags: W
LayerCount: 2
Fore
SplineSet
112 1268 m 2,0,1
 112 1307 112 1307 141 1336 c 128,-1,2
 170 1365 170 1365 209 1365 c 128,-1,3
 248 1365 248 1365 278 1336 c 128,-1,4
 308 1307 308 1307 308 1268 c 2,5,-1
 308 975 l 1,6,-1
 794 975 l 2,7,8
 911 975 911 975 999.5 887.5 c 128,-1,9
 1088 800 1088 800 1088 683 c 2,10,-1
 1088 98 l 2,11,12
 1088 59 1088 59 1058 29.5 c 128,-1,13
 1028 0 1028 0 989 0 c 128,-1,14
 950 0 950 0 921 29.5 c 128,-1,15
 892 59 892 59 892 98 c 2,16,-1
 892 683 l 2,17,18
 892 722 892 722 863 751 c 128,-1,19
 834 780 834 780 794 780 c 2,20,-1
 308 780 l 1,21,-1
 308 98 l 2,22,23
 308 59 308 59 278 29.5 c 128,-1,24
 248 0 248 0 209 0 c 128,-1,25
 170 0 170 0 141 29.5 c 128,-1,26
 112 59 112 59 112 98 c 2,27,-1
 112 1268 l 2,0,1
EndSplineSet
EndChar

StartChar: i
Encoding: 105 105 76
Width: 1200
GlyphClass: 2
Flags: W
LayerCount: 2
Fore
SplineSet
502 780 m 1,0,-1
 404 780 l 2,1,2
 365 780 365 780 336.5 809.5 c 128,-1,3
 308 839 308 839 308 878 c 128,-1,4
 308 917 308 917 337 946 c 128,-1,5
 366 975 366 975 404 975 c 2,6,-1
 600 975 l 2,7,8
 639 975 639 975 668.5 946 c 128,-1,9
 698 917 698 917 698 878 c 2,10,-1
 698 195 l 1,11,-1
 794 195 l 2,12,13
 833 195 833 195 862.5 166 c 128,-1,14
 892 137 892 137 892 98 c 128,-1,15
 892 59 892 59 863 29.5 c 128,-1,16
 834 0 834 0 794 0 c 2,17,-1
 404 0 l 2,18,19
 365 0 365 0 336.5 29.5 c 128,-1,20
 308 59 308 59 308 98 c 128,-1,21
 308 137 308 137 337 166 c 128,-1,22
 366 195 366 195 404 195 c 2,23,-1
 502 195 l 1,24,-1
 502 780 l 1,0,-1
600 1170 m 256,25,26
 561 1170 561 1170 531.5 1199.5 c 128,-1,27
 502 1229 502 1229 502 1268 c 256,28,29
 502 1307 502 1307 531 1336 c 128,-1,30
 560 1365 560 1365 599 1365 c 128,-1,31
 638 1365 638 1365 668 1336 c 128,-1,32
 698 1307 698 1307 698 1268 c 256,33,34
 698 1229 698 1229 668.5 1199.5 c 128,-1,35
 639 1170 639 1170 600 1170 c 256,25,26
EndSplineSet
EndChar

StartChar: j
Encoding: 106 106 77
Width: 1200
GlyphClass: 2
Flags: W
LayerCount: 2
Fore
SplineSet
893 1170 m 256,0,1
 854 1170 854 1170 824.5 1199.5 c 128,-1,2
 795 1229 795 1229 795 1268 c 128,-1,3
 795 1307 795 1307 824.5 1336 c 128,-1,4
 854 1365 854 1365 893 1365 c 128,-1,5
 932 1365 932 1365 961 1336 c 128,-1,6
 990 1307 990 1307 990 1268 c 128,-1,7
 990 1229 990 1229 961 1199.5 c 128,-1,8
 932 1170 932 1170 893 1170 c 256,0,1
698 780 m 2,9,10
 659 780 659 780 629.5 809.5 c 128,-1,11
 600 839 600 839 600 878 c 128,-1,12
 600 917 600 917 629.5 946 c 128,-1,13
 659 975 659 975 698 975 c 2,14,-1
 893 975 l 2,15,16
 932 975 932 975 961 946 c 128,-1,17
 990 917 990 917 990 878 c 2,18,-1
 990 98 l 2,19,20
 990 -19 990 -19 902.5 -107 c 128,-1,21
 815 -195 815 -195 698 -195 c 2,22,-1
 503 -195 l 2,23,24
 386 -195 386 -195 298 -107.5 c 128,-1,25
 210 -20 210 -20 210 98 c 0,26,27
 210 137 210 137 239.5 166 c 128,-1,28
 269 195 269 195 308 195 c 128,-1,29
 347 195 347 195 376 166 c 128,-1,30
 405 137 405 137 405 98 c 256,31,32
 405 59 405 59 434.5 29.5 c 128,-1,33
 464 0 464 0 503 0 c 2,34,-1
 698 0 l 2,35,36
 737 0 737 0 766 29.5 c 128,-1,37
 795 59 795 59 795 98 c 2,38,-1
 795 780 l 1,39,-1
 698 780 l 2,9,10
EndSplineSet
EndChar

StartChar: k
Encoding: 107 107 78
Width: 1200
GlyphClass: 2
Flags: W
LayerCount: 2
Fore
SplineSet
893 0 m 256,0,1
 854 0 854 0 824 29 c 2,2,-1
 503 351 l 1,3,-1
 405 254 l 1,4,-1
 405 98 l 2,5,6
 405 59 405 59 376 29.5 c 128,-1,7
 347 0 347 0 308 0 c 128,-1,8
 269 0 269 0 239.5 29.5 c 128,-1,9
 210 59 210 59 210 98 c 2,10,-1
 210 1268 l 2,11,12
 210 1307 210 1307 239.5 1336 c 128,-1,13
 269 1365 269 1365 308 1365 c 128,-1,14
 347 1365 347 1365 376 1336 c 128,-1,15
 405 1307 405 1307 405 1268 c 2,16,-1
 405 531 l 1,17,-1
 824 946 l 2,18,19
 853 975 853 975 892.5 975 c 128,-1,20
 932 975 932 975 961 946 c 128,-1,21
 990 917 990 917 990 878 c 128,-1,22
 990 839 990 839 961 809 c 2,23,-1
 639 492 l 1,24,-1
 961 166 l 2,25,26
 990 137 990 137 990 98 c 128,-1,27
 990 59 990 59 961 29.5 c 128,-1,28
 932 0 932 0 893 0 c 256,0,1
EndSplineSet
EndChar

StartChar: l
Encoding: 108 108 79
Width: 1200
GlyphClass: 2
Flags: W
LayerCount: 2
Fore
SplineSet
404 0 m 2,0,1
 365 0 365 0 336.5 29.5 c 128,-1,2
 308 59 308 59 308 98 c 128,-1,3
 308 137 308 137 337 166 c 128,-1,4
 366 195 366 195 404 195 c 2,5,-1
 502 195 l 1,6,-1
 502 1170 l 1,7,-1
 404 1170 l 2,8,9
 365 1170 365 1170 336.5 1199.5 c 128,-1,10
 308 1229 308 1229 308 1268 c 128,-1,11
 308 1307 308 1307 337 1336 c 128,-1,12
 366 1365 366 1365 404 1365 c 2,13,-1
 600 1365 l 2,14,15
 639 1365 639 1365 668.5 1336 c 128,-1,16
 698 1307 698 1307 698 1268 c 2,17,-1
 698 195 l 1,18,-1
 794 195 l 2,19,20
 833 195 833 195 862.5 166 c 128,-1,21
 892 137 892 137 892 98 c 128,-1,22
 892 59 892 59 863 29.5 c 128,-1,23
 834 0 834 0 794 0 c 2,24,-1
 404 0 l 2,0,1
EndSplineSet
EndChar

StartChar: m
Encoding: 109 109 80
Width: 1200
GlyphClass: 2
Flags: W
LayerCount: 2
Fore
SplineSet
308 780 m 1,0,-1
 308 98 l 2,1,2
 308 59 308 59 278 29.5 c 128,-1,3
 248 0 248 0 209 0 c 128,-1,4
 170 0 170 0 141 29.5 c 128,-1,5
 112 59 112 59 112 98 c 2,6,-1
 112 878 l 2,7,8
 112 917 112 917 141 946 c 128,-1,9
 170 975 170 975 210 975 c 2,10,-1
 404 975 l 2,11,12
 522 975 522 975 610 887 c 1,13,14
 678 975 678 975 794 975 c 0,15,16
 911 975 911 975 999.5 887.5 c 128,-1,17
 1088 800 1088 800 1088 683 c 2,18,-1
 1088 98 l 2,19,20
 1088 59 1088 59 1058 29.5 c 128,-1,21
 1028 0 1028 0 989 0 c 128,-1,22
 950 0 950 0 921 29.5 c 128,-1,23
 892 59 892 59 892 98 c 2,24,-1
 892 683 l 2,25,26
 892 722 892 722 863 751 c 128,-1,27
 834 780 834 780 794 780 c 0,28,29
 755 780 755 780 726.5 751 c 128,-1,30
 698 722 698 722 698 683 c 2,31,-1
 698 98 l 2,32,33
 698 59 698 59 668 29.5 c 128,-1,34
 638 0 638 0 599 0 c 128,-1,35
 560 0 560 0 531 29.5 c 128,-1,36
 502 59 502 59 502 98 c 2,37,-1
 502 683 l 2,38,39
 502 722 502 722 473 751 c 128,-1,40
 444 780 444 780 404 780 c 2,41,-1
 308 780 l 1,0,-1
EndSplineSet
EndChar

StartChar: n
Encoding: 110 110 81
Width: 1200
GlyphClass: 2
Flags: W
LayerCount: 2
Fore
SplineSet
308 780 m 1,0,-1
 308 98 l 2,1,2
 308 59 308 59 278 29.5 c 128,-1,3
 248 0 248 0 209 0 c 128,-1,4
 170 0 170 0 141 29.5 c 128,-1,5
 112 59 112 59 112 98 c 2,6,-1
 112 878 l 2,7,8
 112 917 112 917 141 946 c 128,-1,9
 170 975 170 975 210 975 c 2,10,-1
 794 975 l 2,11,12
 911 975 911 975 999.5 887.5 c 128,-1,13
 1088 800 1088 800 1088 683 c 2,14,-1
 1088 98 l 2,15,16
 1088 59 1088 59 1058 29.5 c 128,-1,17
 1028 0 1028 0 989 0 c 128,-1,18
 950 0 950 0 921 29.5 c 128,-1,19
 892 59 892 59 892 98 c 2,20,-1
 892 683 l 2,21,22
 892 722 892 722 863 751 c 128,-1,23
 834 780 834 780 794 780 c 2,24,-1
 308 780 l 1,0,-1
EndSplineSet
EndChar

StartChar: o
Encoding: 111 111 82
Width: 1200
GlyphClass: 2
Flags: W
LayerCount: 2
Fore
SplineSet
404 0 m 2,0,1
 287 0 287 0 199.5 88 c 128,-1,2
 112 176 112 176 112 293 c 2,3,-1
 112 683 l 2,4,5
 112 800 112 800 200 887.5 c 128,-1,6
 288 975 288 975 404 975 c 2,7,-1
 794 975 l 2,8,9
 911 975 911 975 999.5 887.5 c 128,-1,10
 1088 800 1088 800 1088 683 c 2,11,-1
 1088 293 l 2,12,13
 1088 176 1088 176 1000 88 c 128,-1,14
 912 0 912 0 794 0 c 2,15,-1
 404 0 l 2,0,1
892 683 m 2,16,17
 892 722 892 722 863 751 c 128,-1,18
 834 780 834 780 794 780 c 2,19,-1
 404 780 l 2,20,21
 365 780 365 780 336.5 751 c 128,-1,22
 308 722 308 722 308 683 c 2,23,-1
 308 293 l 2,24,25
 308 254 308 254 337 224.5 c 128,-1,26
 366 195 366 195 404 195 c 2,27,-1
 794 195 l 2,28,29
 833 195 833 195 862.5 224.5 c 128,-1,30
 892 254 892 254 892 293 c 2,31,-1
 892 683 l 2,16,17
EndSplineSet
EndChar

StartChar: p
Encoding: 112 112 83
Width: 1200
GlyphClass: 2
Flags: W
LayerCount: 2
Fore
SplineSet
794 195 m 2,0,-1
 308 195 l 1,1,-1
 308 -98 l 2,2,3
 308 -137 308 -137 278 -166 c 128,-1,4
 248 -195 248 -195 209 -195 c 128,-1,5
 170 -195 170 -195 141 -167.5 c 128,-1,6
 112 -140 112 -140 112 -98 c 2,7,-1
 112 878 l 2,8,9
 112 917 112 917 141 946 c 128,-1,10
 170 975 170 975 210 975 c 2,11,-1
 794 975 l 2,12,13
 911 975 911 975 999.5 887.5 c 128,-1,14
 1088 800 1088 800 1088 683 c 2,15,-1
 1088 488 l 2,16,17
 1088 371 1088 371 999.5 283 c 128,-1,18
 911 195 911 195 794 195 c 2,0,-1
308 390 m 1,19,-1
 794 390 l 2,20,21
 833 390 833 390 862.5 419.5 c 128,-1,22
 892 449 892 449 892 488 c 2,23,-1
 892 683 l 2,24,25
 892 722 892 722 863 751 c 128,-1,26
 834 780 834 780 794 780 c 2,27,-1
 308 780 l 1,28,-1
 308 390 l 1,19,-1
EndSplineSet
EndChar

StartChar: q
Encoding: 113 113 84
Width: 1200
GlyphClass: 2
Flags: W
LayerCount: 2
Fore
SplineSet
404 195 m 2,0,1
 287 195 287 195 199.5 283 c 128,-1,2
 112 371 112 371 112 488 c 2,3,-1
 112 683 l 2,4,5
 112 800 112 800 200 887.5 c 128,-1,6
 288 975 288 975 404 975 c 2,7,-1
 990 975 l 2,8,9
 1029 975 1029 975 1058.5 946 c 128,-1,10
 1088 917 1088 917 1088 878 c 2,11,-1
 1088 -98 l 2,12,13
 1088 -141 1088 -141 1058 -168 c 128,-1,14
 1028 -195 1028 -195 989 -195 c 128,-1,15
 950 -195 950 -195 921 -166 c 128,-1,16
 892 -137 892 -137 892 -98 c 2,17,-1
 892 195 l 1,18,-1
 404 195 l 2,0,1
892 390 m 1,19,-1
 892 780 l 1,20,-1
 404 780 l 2,21,22
 365 780 365 780 336.5 751 c 128,-1,23
 308 722 308 722 308 683 c 2,24,-1
 308 488 l 2,25,26
 308 449 308 449 337 419.5 c 128,-1,27
 366 390 366 390 404 390 c 2,28,-1
 892 390 l 1,19,-1
EndSplineSet
EndChar

StartChar: r
Encoding: 114 114 85
Width: 1200
GlyphClass: 2
Flags: W
LayerCount: 2
Fore
SplineSet
405 780 m 1,0,-1
 405 98 l 2,1,2
 405 59 405 59 376 29.5 c 128,-1,3
 347 0 347 0 308 0 c 128,-1,4
 269 0 269 0 239.5 29.5 c 128,-1,5
 210 59 210 59 210 98 c 2,6,-1
 210 878 l 2,7,8
 210 917 210 917 239.5 946 c 128,-1,9
 269 975 269 975 308 975 c 2,10,-1
 698 975 l 2,11,12
 815 975 815 975 902.5 887.5 c 128,-1,13
 990 800 990 800 990 683 c 0,14,15
 990 644 990 644 961 614.5 c 128,-1,16
 932 585 932 585 893 585 c 128,-1,17
 854 585 854 585 824.5 614.5 c 128,-1,18
 795 644 795 644 795 683 c 256,19,20
 795 722 795 722 766 751 c 128,-1,21
 737 780 737 780 698 780 c 2,22,-1
 405 780 l 1,0,-1
EndSplineSet
EndChar

StartChar: s
Encoding: 115 115 86
Width: 1200
GlyphClass: 2
Flags: W
LayerCount: 2
Fore
SplineSet
404 390 m 2,0,1
 287 390 287 390 199.5 478 c 128,-1,2
 112 566 112 566 112 683 c 128,-1,3
 112 800 112 800 200 887.5 c 128,-1,4
 288 975 288 975 404 975 c 2,5,-1
 990 975 l 2,6,7
 1029 975 1029 975 1058.5 946 c 128,-1,8
 1088 917 1088 917 1088 878 c 128,-1,9
 1088 839 1088 839 1058 809.5 c 128,-1,10
 1028 780 1028 780 990 780 c 0,11,12
 444 780 444 780 404 780 c 0,13,14
 365 780 365 780 336.5 751 c 128,-1,15
 308 722 308 722 308 683 c 128,-1,16
 308 644 308 644 337 614.5 c 128,-1,17
 366 585 366 585 404 585 c 2,18,-1
 794 585 l 2,19,20
 911 585 911 585 999.5 497.5 c 128,-1,21
 1088 410 1088 410 1088 293 c 128,-1,22
 1088 176 1088 176 1000 88 c 128,-1,23
 912 0 912 0 794 0 c 2,24,-1
 210 0 l 2,25,26
 171 0 171 0 141.5 29.5 c 128,-1,27
 112 59 112 59 112 98 c 128,-1,28
 112 137 112 137 141 166 c 128,-1,29
 170 195 170 195 210 195 c 2,30,-1
 794 195 l 2,31,32
 833 195 833 195 862.5 224.5 c 128,-1,33
 892 254 892 254 892 293 c 128,-1,34
 892 332 892 332 863 361 c 128,-1,35
 834 390 834 390 790 390 c 2,36,-1
 404 390 l 2,0,1
EndSplineSet
EndChar

StartChar: t
Encoding: 116 116 87
Width: 1200
GlyphClass: 2
Flags: W
LayerCount: 2
Fore
SplineSet
308 780 m 2,0,1
 269 780 269 780 239.5 809.5 c 128,-1,2
 210 839 210 839 210 878 c 128,-1,3
 210 917 210 917 239.5 946 c 128,-1,4
 269 975 269 975 308 975 c 2,5,-1
 405 975 l 1,6,-1
 405 1268 l 2,7,8
 405 1307 405 1307 434.5 1336 c 128,-1,9
 464 1365 464 1365 503 1365 c 128,-1,10
 542 1365 542 1365 571 1336 c 128,-1,11
 600 1307 600 1307 600 1268 c 2,12,-1
 600 975 l 1,13,-1
 893 975 l 2,14,15
 932 975 932 975 961 946 c 128,-1,16
 990 917 990 917 990 878 c 128,-1,17
 990 839 990 839 961 809.5 c 128,-1,18
 932 780 932 780 893 780 c 2,19,-1
 600 780 l 1,20,-1
 600 293 l 2,21,22
 600 254 600 254 629.5 224.5 c 128,-1,23
 659 195 659 195 698 195 c 2,24,-1
 893 195 l 2,25,26
 932 195 932 195 961 166 c 128,-1,27
 990 137 990 137 990 98 c 128,-1,28
 990 59 990 59 961 29.5 c 128,-1,29
 932 0 932 0 893 0 c 2,30,-1
 698 0 l 2,31,32
 581 0 581 0 493 88 c 128,-1,33
 405 176 405 176 405 293 c 2,34,-1
 405 780 l 1,35,-1
 308 780 l 2,0,1
EndSplineSet
EndChar

StartChar: u
Encoding: 117 117 88
Width: 1200
GlyphClass: 2
Flags: W
LayerCount: 2
Fore
SplineSet
892 195 m 1,0,-1
 892 878 l 2,1,2
 892 917 892 917 921 946 c 128,-1,3
 950 975 950 975 989 975 c 128,-1,4
 1028 975 1028 975 1058 946 c 128,-1,5
 1088 917 1088 917 1088 878 c 2,6,-1
 1088 98 l 2,7,8
 1088 59 1088 59 1058 29.5 c 128,-1,9
 1028 0 1028 0 990 0 c 2,10,-1
 404 0 l 2,11,12
 287 0 287 0 199.5 88 c 128,-1,13
 112 176 112 176 112 293 c 2,14,-1
 112 878 l 2,15,16
 112 917 112 917 141 946 c 128,-1,17
 170 975 170 975 209 975 c 128,-1,18
 248 975 248 975 278 946 c 128,-1,19
 308 917 308 917 308 878 c 2,20,-1
 308 293 l 2,21,22
 308 254 308 254 337 224.5 c 128,-1,23
 366 195 366 195 404 195 c 2,24,-1
 892 195 l 1,0,-1
EndSplineSet
EndChar

StartChar: v
Encoding: 118 118 89
Width: 1200
GlyphClass: 2
Flags: W
LayerCount: 2
Fore
SplineSet
600 0 m 0,0,1
 562 0 562 0 532 29 c 2,2,-1
 142 419 l 2,3,4
 112 448 112 448 112 488 c 2,5,-1
 112 878 l 2,6,7
 112 917 112 917 141 946 c 128,-1,8
 170 975 170 975 209 975 c 128,-1,9
 248 975 248 975 278 946 c 128,-1,10
 308 917 308 917 308 878 c 2,11,-1
 308 581 l 1,12,-1
 600 289 l 1,13,-1
 892 581 l 1,14,-1
 892 878 l 2,15,16
 892 917 892 917 921 946 c 128,-1,17
 950 975 950 975 989 975 c 128,-1,18
 1028 975 1028 975 1058 946 c 128,-1,19
 1088 917 1088 917 1088 878 c 2,20,-1
 1088 488 l 2,21,22
 1088 449 1088 449 1058 419 c 2,23,-1
 668 29 l 2,24,25
 640 0 640 0 600 0 c 0,0,1
EndSplineSet
EndChar

StartChar: w
Encoding: 119 119 90
Width: 1200
GlyphClass: 2
Flags: W
LayerCount: 2
Fore
SplineSet
794 0 m 0,0,1
 678 0 678 0 590 88 c 1,2,3
 522 0 522 0 404 0 c 0,4,5
 287 0 287 0 199.5 88 c 128,-1,6
 112 176 112 176 112 293 c 2,7,-1
 112 878 l 2,8,9
 112 917 112 917 141 946 c 128,-1,10
 170 975 170 975 209 975 c 128,-1,11
 248 975 248 975 278 946 c 128,-1,12
 308 917 308 917 308 878 c 2,13,-1
 308 293 l 2,14,15
 308 254 308 254 337 224.5 c 128,-1,16
 366 195 366 195 404 195 c 0,17,18
 443 195 443 195 472.5 224.5 c 128,-1,19
 502 254 502 254 502 293 c 2,20,-1
 502 683 l 2,21,22
 502 722 502 722 531 751 c 128,-1,23
 560 780 560 780 599 780 c 128,-1,24
 638 780 638 780 668 751 c 128,-1,25
 698 722 698 722 698 683 c 2,26,-1
 698 293 l 2,27,28
 698 254 698 254 727 224.5 c 128,-1,29
 756 195 756 195 794 195 c 0,30,31
 833 195 833 195 862.5 224.5 c 128,-1,32
 892 254 892 254 892 293 c 2,33,-1
 892 878 l 2,34,35
 892 917 892 917 921 946 c 128,-1,36
 950 975 950 975 989 975 c 128,-1,37
 1028 975 1028 975 1058 946 c 128,-1,38
 1088 917 1088 917 1088 878 c 2,39,-1
 1088 293 l 2,40,41
 1088 176 1088 176 999.5 88 c 128,-1,42
 911 0 911 0 794 0 c 0,0,1
EndSplineSet
EndChar

StartChar: x
Encoding: 120 120 91
Width: 1200
GlyphClass: 2
Flags: W
LayerCount: 2
Fore
SplineSet
600 355 m 1,0,-1
 278 29 l 2,1,2
 249 0 249 0 209.5 0 c 128,-1,3
 170 0 170 0 141 29.5 c 128,-1,4
 112 59 112 59 112 98 c 128,-1,5
 112 137 112 137 142 166 c 2,6,-1
 460 488 l 1,7,-1
 142 809 l 2,8,9
 112 838 112 838 112 878 c 2,10,11
 112 878 112 878 112 879 c 0,12,13
 112 918 112 918 141 946 c 0,14,15
 170 975 170 975 209 975 c 128,-1,16
 248 975 248 975 278 946 c 2,17,-1
 600 628 l 1,18,-1
 922 946 l 2,19,20
 951 975 951 975 989.5 975 c 128,-1,21
 1028 975 1028 975 1058 946 c 128,-1,22
 1088 917 1088 917 1088 878 c 128,-1,23
 1088 839 1088 839 1058 809 c 2,24,-1
 732 488 l 1,25,-1
 1058 166 l 2,26,27
 1088 137 1088 137 1088 98 c 2,28,29
 1088 98 1088 98 1088 97 c 0,30,31
 1088 60 1088 60 1058 30 c 128,-1,32
 1028 0 1028 0 989 0 c 128,-1,33
 950 0 950 0 922 29 c 2,34,-1
 600 355 l 1,0,-1
EndSplineSet
EndChar

StartChar: y
Encoding: 121 121 92
Width: 1200
GlyphClass: 2
Flags: W
LayerCount: 2
Fore
SplineSet
404 195 m 2,0,1
 287 195 287 195 199.5 283 c 128,-1,2
 112 371 112 371 112 488 c 2,3,-1
 112 878 l 2,4,5
 112 917 112 917 141 946 c 128,-1,6
 170 975 170 975 209 975 c 128,-1,7
 248 975 248 975 278 946 c 128,-1,8
 308 917 308 917 308 878 c 2,9,-1
 308 488 l 2,10,11
 308 449 308 449 337 419.5 c 128,-1,12
 366 390 366 390 404 390 c 2,13,-1
 892 390 l 1,14,-1
 892 878 l 2,15,16
 892 917 892 917 921 946 c 128,-1,17
 950 975 950 975 989 975 c 128,-1,18
 1028 975 1028 975 1058 946 c 128,-1,19
 1088 917 1088 917 1088 878 c 2,20,-1
 1088 98 l 2,21,22
 1088 -19 1088 -19 1000 -107 c 128,-1,23
 912 -195 912 -195 794 -195 c 2,24,-1
 404 -195 l 2,25,26
 365 -195 365 -195 336.5 -166 c 128,-1,27
 308 -137 308 -137 308 -98 c 128,-1,28
 308 -59 308 -59 337 -29.5 c 128,-1,29
 366 0 366 0 404 0 c 2,30,-1
 794 0 l 2,31,32
 833 0 833 0 862.5 29.5 c 128,-1,33
 892 59 892 59 892 98 c 2,34,-1
 892 195 l 1,35,-1
 404 195 l 2,0,1
EndSplineSet
EndChar

StartChar: z
Encoding: 122 122 93
Width: 1200
GlyphClass: 2
Flags: W
LayerCount: 2
Fore
SplineSet
210 0 m 2,0,1
 171 0 171 0 141.5 29.5 c 128,-1,2
 112 59 112 59 112 98 c 128,-1,3
 112 137 112 137 142 166 c 2,4,-1
 752 780 l 1,5,-1
 210 780 l 2,6,7
 171 780 171 780 141.5 809.5 c 128,-1,8
 112 839 112 839 112 878 c 128,-1,9
 112 917 112 917 141 946 c 128,-1,10
 170 975 170 975 210 975 c 2,11,-1
 990 975 l 2,12,13
 1029 975 1029 975 1058.5 946 c 128,-1,14
 1088 917 1088 917 1088 878 c 128,-1,15
 1088 839 1088 839 1058 809 c 2,16,-1
 440 195 l 1,17,-1
 990 195 l 2,18,19
 1029 195 1029 195 1058.5 166 c 128,-1,20
 1088 137 1088 137 1088 98 c 128,-1,21
 1088 59 1088 59 1058 29.5 c 128,-1,22
 1028 0 1028 0 990 0 c 2,23,-1
 210 0 l 2,0,1
EndSplineSet
EndChar

StartChar: braceleft
Encoding: 123 123 94
Width: 1200
GlyphClass: 2
Flags: W
LayerCount: 2
Fore
SplineSet
544 0 m 0,0,1
 427 0 427 0 362 88 c 0,2,3
 318 148 318 148 318 222 c 0,4,5
 318 256 318 256 327 293 c 2,6,-1
 377 488 l 2,7,8
 380 500 380 500 380 511 c 0,9,10
 380 536 380 536 365 556 c 0,11,12
 343 585 343 585 304 585 c 0,13,14
 303 585 303 585 302 585 c 0,15,16
 266 585 266 585 244 614 c 0,17,18
 229 634 229 634 229 659 c 0,19,20
 229 670 229 670 232 683 c 0,21,22
 242 722 242 722 278.5 751 c 128,-1,23
 315 780 315 780 354 780 c 2,24,-1
 359 780 l 2,25,26
 393 780 393 780 427 807 c 0,27,28
 466 838 466 838 477 878 c 2,29,-1
 528 1073 l 2,30,31
 558 1190 558 1190 668 1277.5 c 128,-1,32
 778 1365 778 1365 895 1365 c 0,33,34
 934 1365 934 1365 956 1336 c 0,35,36
 971 1316 971 1316 971 1291 c 0,37,38
 971 1280 971 1280 968 1268 c 0,39,40
 958 1229 958 1229 920.5 1199.5 c 128,-1,41
 883 1170 883 1170 844 1170 c 256,42,43
 805 1170 805 1170 769 1141 c 128,-1,44
 733 1112 733 1112 723 1073 c 2,45,-1
 672 878 l 2,46,47
 642 761 642 761 532 673 c 1,48,49
 581 626 581 626 581 555 c 0,50,51
 581 524 581 524 572 488 c 2,52,-1
 522 293 l 2,53,54
 519 281 519 281 519 269 c 0,55,56
 520 244 520 244 534 224 c 0,57,58
 555 195 555 195 592 195 c 0,59,60
 593 195 593 195 594 195 c 0,61,62
 633 195 633 195 655 166 c 0,63,64
 670 146 670 146 670 121 c 0,65,66
 670 110 670 110 667 98 c 0,67,68
 657 59 657 59 620 29.5 c 128,-1,69
 583 0 583 0 544 0 c 0,0,1
EndSplineSet
EndChar

StartChar: bar
Encoding: 124 124 95
Width: 1200
GlyphClass: 2
Flags: W
LayerCount: 2
Fore
SplineSet
600 0 m 256,0,1
 561 0 561 0 531.5 29.5 c 128,-1,2
 502 59 502 59 502 98 c 2,3,-1
 502 1268 l 2,4,5
 502 1307 502 1307 531 1336 c 128,-1,6
 560 1365 560 1365 599 1365 c 128,-1,7
 638 1365 638 1365 668 1336 c 128,-1,8
 698 1307 698 1307 698 1268 c 2,9,-1
 698 98 l 2,10,11
 698 59 698 59 668.5 29.5 c 128,-1,12
 639 0 639 0 600 0 c 256,0,1
EndSplineSet
EndChar

StartChar: braceright
Encoding: 125 125 96
Width: 1200
GlyphClass: 2
Flags: W
LayerCount: 2
Fore
SplineSet
656 1363 m 0,0,1
 773 1363 773 1363 838 1275 c 0,2,3
 882 1215 882 1215 882 1141 c 0,4,5
 882 1107 882 1107 873 1070 c 2,6,-1
 823 875 l 2,7,8
 820 863 820 863 820 852 c 0,9,10
 820 827 820 827 835 807 c 0,11,12
 857 778 857 778 896 778 c 0,13,14
 934 778 934 778 956 748 c 0,15,16
 971 728 971 728 971 704 c 0,17,18
 971 693 971 693 968 680 c 0,19,20
 958 641 958 641 921.5 612 c 128,-1,21
 885 583 885 583 846 583 c 2,22,-1
 841 583 l 2,23,24
 807 583 807 583 773 556 c 0,25,26
 734 525 734 525 723 485 c 2,27,-1
 672 290 l 2,28,29
 642 173 642 173 532 85.5 c 128,-1,30
 422 -2 422 -2 305 -2 c 0,31,32
 266 -2 266 -2 244 27 c 0,33,34
 229 47 229 47 229 72 c 0,35,36
 229 83 229 83 232 95 c 0,37,38
 242 134 242 134 279.5 163.5 c 128,-1,39
 317 193 317 193 356 193 c 256,40,41
 395 193 395 193 431 222 c 128,-1,42
 467 251 467 251 477 290 c 2,43,-1
 528 485 l 2,44,45
 558 602 558 602 668 690 c 1,46,47
 619 737 619 737 619 808 c 0,48,49
 619 839 619 839 628 875 c 2,50,-1
 678 1070 l 2,51,52
 681 1082 681 1082 681 1094 c 0,53,54
 680 1118 680 1118 666 1138 c 0,55,56
 644 1168 644 1168 606 1168 c 0,57,58
 567 1168 567 1168 545 1197 c 0,59,60
 530 1217 530 1217 530 1242 c 0,61,62
 530 1253 530 1253 533 1265 c 0,63,64
 543 1304 543 1304 580 1333.5 c 128,-1,65
 617 1363 617 1363 656 1363 c 0,0,1
EndSplineSet
EndChar

StartChar: asciitilde
Encoding: 126 126 97
Width: 1200
GlyphClass: 2
Flags: W
LayerCount: 2
Fore
SplineSet
210 975 m 256,0,1
 171 975 171 975 141.5 1004.5 c 128,-1,2
 112 1034 112 1034 112 1073 c 0,3,4
 112 1186 112 1186 200 1275.5 c 128,-1,5
 288 1365 288 1365 404 1365 c 0,6,7
 521 1365 521 1365 609.5 1277.5 c 128,-1,8
 698 1190 698 1190 698 1073 c 0,9,10
 698 1034 698 1034 727 1004.5 c 128,-1,11
 756 975 756 975 794 975 c 0,12,13
 833 975 833 975 862.5 1004.5 c 128,-1,14
 892 1034 892 1034 892 1073 c 256,15,16
 892 1112 892 1112 921 1141 c 128,-1,17
 950 1170 950 1170 989 1170 c 128,-1,18
 1028 1170 1028 1170 1058 1141 c 128,-1,19
 1088 1112 1088 1112 1088 1073 c 0,20,21
 1088 956 1088 956 1000 868 c 128,-1,22
 912 780 912 780 794 780 c 0,23,24
 677 780 677 780 589.5 868 c 128,-1,25
 502 956 502 956 502 1073 c 0,26,27
 502 1112 502 1112 473 1141 c 128,-1,28
 444 1170 444 1170 404 1170 c 0,29,30
 365 1170 365 1170 336.5 1141 c 128,-1,31
 308 1112 308 1112 308 1073 c 256,32,33
 308 1034 308 1034 278.5 1004.5 c 128,-1,34
 249 975 249 975 210 975 c 256,0,1
EndSplineSet
EndChar

StartChar: exclamdown
Encoding: 161 161 98
Width: 1200
GlyphClass: 2
Flags: W
LayerCount: 2
Fore
SplineSet
0 1638 m 1,0,-1
 1200 1638 l 1,1,-1
 1200 -408 l 1,2,-1
 0 -408 l 1,3,-1
 0 1638 l 1,0,-1
EndSplineSet
EndChar

StartChar: cent
Encoding: 162 162 99
Width: 1200
GlyphClass: 2
Flags: W
LayerCount: 2
Fore
SplineSet
0 1638 m 1,0,-1
 1200 1638 l 1,1,-1
 1200 809 l 1,2,-1
 898 809 l 1,3,-1
 898 1109 l 1,4,-1
 604 1109 l 1,5,-1
 604 809 l 1,6,-1
 898 809 l 1,7,-1
 898 209 l 1,8,-1
 1200 209 l 1,9,-1
 1200 -109 l 1,10,-1
 603 -109 l 1,11,-1
 603 -408 l 1,12,-1
 0 -408 l 1,13,-1
 0 809 l 1,14,-1
 302 809 l 1,15,-1
 302 1109 l 1,16,-1
 0 1109 l 1,17,-1
 0 1638 l 1,0,-1
300 1636 m 1,18,-1
 300 1409 l 1,19,-1
 601 1409 l 1,20,-1
 601 1636 l 1,21,-1
 300 1636 l 1,18,-1
302 503 m 1,22,-1
 302 209 l 1,23,-1
 604 209 l 1,24,-1
 604 503 l 1,25,-1
 302 503 l 1,22,-1
EndSplineSet
EndChar

StartChar: currency
Encoding: 164 164 100
Width: 1200
GlyphClass: 2
Flags: W
LayerCount: 2
Fore
SplineSet
0 1638 m 1,0,-1
 1200 1638 l 1,1,-1
 1200 -109 l 1,2,-1
 898 -109 l 1,3,-1
 898 209 l 1,4,-1
 300 209 l 1,5,-1
 300 -109 l 1,6,-1
 898 -109 l 1,7,-1
 898 -408 l 1,8,-1
 0 -408 l 1,9,-1
 0 506 l 1,10,-1
 300 506 l 1,11,-1
 300 809 l 1,12,-1
 0 809 l 1,13,-1
 0 1109 l 1,14,-1
 298 1109 l 1,15,-1
 298 1409 l 1,16,-1
 0 1409 l 1,17,-1
 0 1638 l 1,0,-1
602 1409 m 1,18,-1
 602 809 l 1,19,-1
 898 809 l 1,20,-1
 898 1409 l 1,21,-1
 602 1409 l 1,18,-1
EndSplineSet
Validated: 1
EndChar

StartChar: brokenbar
Encoding: 166 166 101
Width: 1200
GlyphClass: 2
Flags: W
LayerCount: 2
Fore
SplineSet
298 809 m 1024,0,-1
600 506 m 1024,1,-1
600 209 m 1024,2,-1
298 809 m 1,3,-1
 298 1109 l 1,4,-1
 0 1109 l 1,5,-1
 0 1409 l 1,6,-1
 298 1409 l 1,7,-1
 298 1638 l 1,8,-1
 900 1638 l 1,9,-1
 900 1407 l 1,10,-1
 1200 1407 l 1,11,-1
 1200 809 l 1,12,-1
 900 809 l 1,13,-1
 900 506 l 1,14,-1
 1200 506 l 1,15,-1
 1200 209 l 1,16,-1
 900 209 l 1,17,-1
 900 506 l 1,18,-1
 600 506 l 1,19,-1
 600 209 l 1,20,-1
 900 209 l 1,21,-1
 900 -109 l 1,22,-1
 1200 -109 l 1,23,-1
 1200 -408 l 1,24,-1
 0 -408 l 1,25,-1
 0 809 l 1,26,-1
 298 809 l 1,3,-1
EndSplineSet
Validated: 1
EndChar

StartChar: section
Encoding: 167 167 102
Width: 1200
GlyphClass: 2
Flags: W
LayerCount: 2
Fore
SplineSet
0 1638 m 1,0,-1
 1200 1638 l 1,1,-1
 1200 -408 l 1,2,-1
 900 -408 l 1,3,-1
 900 -109 l 1,4,-1
 602 -109 l 1,5,-1
 602 -408 l 1,6,-1
 0 -408 l 1,7,-1
 0 809 l 1,8,-1
 298 809 l 1,9,-1
 298 1109 l 1,10,-1
 606 1109 l 1,11,-1
 606 1409 l 1,12,-1
 298 1409 l 1,13,-1
 298 1109 l 1,14,-1
 0 1109 l 1,15,-1
 0 1638 l 1,0,-1
298 506 m 1,16,-1
 298 209 l 1,17,-1
 898 209 l 1,18,-1
 898 506 l 1,19,-1
 298 506 l 1,16,-1
606 1109 m 1,20,-1
 606 809 l 1,21,-1
 898 809 l 1,22,-1
 898 1109 l 1,23,-1
 606 1109 l 1,20,-1
EndSplineSet
Validated: 1
EndChar

StartChar: dieresis
Encoding: 168 168 103
Width: 1200
GlyphClass: 2
Flags: W
LayerCount: 2
Fore
SplineSet
0 1638 m 1,0,-1
 1200 1638 l 1,1,-1
 1200 -408 l 1,2,-1
 298 -408 l 1,3,-1
 298 -109 l 1,4,-1
 0 -109 l 1,5,-1
 0 1638 l 1,0,-1
284 1636 m 1,6,-1
 284 1409 l 1,7,-1
 586 1409 l 1,8,-1
 586 1636 l 1,9,-1
 284 1636 l 1,6,-1
602 506 m 1,10,-1
 602 209 l 1,11,-1
 900 209 l 1,12,-1
 900 506 l 1,13,-1
 602 506 l 1,10,-1
EndSplineSet
EndChar

StartChar: copyright
Encoding: 169 169 104
Width: 1200
GlyphClass: 2
Flags: W
LayerCount: 2
Fore
SplineSet
591 369 m 1,0,-1
 591 82 l 1,1,-1
 1200 78 l 1,2,-1
 1200 -408 l 1,3,-1
 603 -409 l 1,4,-1
 603 0 l 1,5,-1
 275 0 l 1,6,-1
 275 -410 l 1,7,-1
 400 -410 l 1,8,-1
 0 -411 l 1,9,-1
 0 398 l 1,10,-1
 287 398 l 1,11,-1
 287 702 l 1,12,-1
 585 702 l 1,13,-1
 585 989 l 1,14,-1
 287 989 l 1,15,-1
 287 1281 l 1,16,-1
 0 1281 l 1,17,-1
 0 1638 l 1,18,-1
 673 1636 l 1,19,-1
 673 1287 l 1,20,-1
 1200 1283 l 1,21,-1
 1200 365 l 1,22,-1
 591 369 l 1,0,-1
1200 1634 m 1,23,-1
 673 1638 l 1,24,-1
 673 1636 l 1,25,-1
 1200 1634 l 1,23,-1
0 989 m 1,26,-1
 287 989 l 1,27,-1
 287 702 l 1,28,-1
 0 702 l 1,29,-1
 0 989 l 1,26,-1
603 -409 m 1,30,-1
 400 -410 l 1,31,-1
 603 -410 l 1,32,-1
 603 -409 l 1,30,-1
EndSplineSet
Validated: 1
EndChar

StartChar: ordfeminine
Encoding: 170 170 105
Width: 1200
GlyphClass: 2
Flags: W
LayerCount: 2
Fore
SplineSet
0 1638 m 1,0,-1
 1200 1638 l 1,1,-1
 1200 1109 l 1,2,-1
 603 1109 l 1,3,-1
 603 809 l 1,4,-1
 1200 809 l 1,5,-1
 1200 -408 l 1,6,-1
 900 -408 l 1,7,-1
 900 -109 l 1,8,-1
 602 -109 l 1,9,-1
 602 -408 l 1,10,-1
 0 -408 l 1,11,-1
 0 1638 l 1,0,-1
900 -408 m 1,12,-1
 602 -408 l 1,13,-1
 602 -409 l 1,14,-1
 900 -409 l 1,15,-1
 900 -408 l 1,12,-1
EndSplineSet
Validated: 1
EndChar

StartChar: guillemotleft
Encoding: 171 171 106
Width: 1200
GlyphClass: 2
Flags: W
LayerCount: 2
Fore
SplineSet
434 1200 m 2,0,1
 405 1229 405 1229 405 1268 c 128,-1,2
 405 1307 405 1307 434.5 1336 c 128,-1,3
 464 1365 464 1365 503 1365 c 128,-1,4
 542 1365 542 1365 571 1336 c 2,5,-1
 766 1141 l 2,6,7
 795 1112 795 1112 795 1073 c 128,-1,8
 795 1034 795 1034 766 1004.5 c 128,-1,9
 737 975 737 975 698 975 c 256,10,11
 659 975 659 975 629 1004 c 2,12,-1
 434 1200 l 2,0,1
EndSplineSet
EndChar

StartChar: uni00AD
Encoding: 173 173 107
Width: 1200
GlyphClass: 2
Flags: W
LayerCount: 2
Fore
SplineSet
210 585 m 2,0,1
 171 585 171 585 141.5 614.5 c 128,-1,2
 112 644 112 644 112 683 c 128,-1,3
 112 722 112 722 141 751 c 128,-1,4
 170 780 170 780 210 780 c 2,5,-1
 990 780 l 2,6,7
 1029 780 1029 780 1058.5 751 c 128,-1,8
 1088 722 1088 722 1088 683 c 128,-1,9
 1088 644 1088 644 1058 614.5 c 128,-1,10
 1028 585 1028 585 990 585 c 2,11,-1
 210 585 l 2,0,1
EndSplineSet
EndChar

StartChar: Aacute
Encoding: 193 193 108
Width: 1200
GlyphClass: 2
Flags: W
LayerCount: 2
Fore
SplineSet
298 -109 m 1,0,-1
 298 -408 l 1,1,-1
 603 -408 l 1,2,-1
 603 -109 l 1,3,-1
 298 -109 l 1,0,-1
1200 506 m 1,4,-1
 300 506 l 1,5,-1
 300 209 l 1,6,-1
 1200 209 l 1,7,-1
 1200 506 l 1,4,-1
898 1109 m 1,8,-1
 898 809 l 1,9,-1
 1200 809 l 1,10,-1
 1200 1109 l 1,11,-1
 898 1109 l 1,8,-1
603 1636 m 1,12,-1
 1200 1636 l 1,13,-1
 1200 1409 l 1,14,-1
 603 1409 l 1,15,-1
 603 1636 l 1,12,-1
0 1409 m 1,16,-1
 0 1109 l 1,17,-1
 604 1109 l 1,18,-1
 604 1409 l 1,19,-1
 0 1409 l 1,16,-1
0 1638 m 1,20,-1
 1200 1638 l 1,21,-1
 1200 -408 l 1,22,-1
 0 -408 l 1,23,-1
 0 1638 l 1,20,-1
EndSplineSet
Validated: 1
EndChar

StartChar: Atilde
Encoding: 195 195 109
Width: 1200
GlyphClass: 2
Flags: W
LayerCount: 2
Fore
SplineSet
0 1109 m 1,0,-1
 0 809 l 1,1,-1
 296 809 l 1,2,-1
 296 1109 l 1,3,-1
 0 1109 l 1,0,-1
898 -109 m 1,4,-1
 898 -408 l 1,5,-1
 1200 -408 l 1,6,-1
 1200 -109 l 1,7,-1
 898 -109 l 1,4,-1
298 209 m 1,8,-1
 298 -109 l 1,9,-1
 601 -111 l 1,10,-1
 601 207 l 1,11,-1
 298 209 l 1,8,-1
602 809 m 1,12,-1
 602 506 l 1,13,-1
 1200 506 l 1,14,-1
 1200 809 l 1,15,-1
 602 809 l 1,12,-1
604 1109 m 1,16,-1
 902 1109 l 1,17,-1
 902 1409 l 1,18,-1
 604 1409 l 1,19,-1
 604 1109 l 1,16,-1
300 1636 m 1,20,-1
 300 1409 l 1,21,-1
 604 1409 l 1,22,-1
 604 1636 l 1,23,-1
 300 1636 l 1,20,-1
0 1638 m 1,24,-1
 1200 1638 l 1,25,-1
 1200 -408 l 1,26,-1
 0 -408 l 1,27,-1
 0 1638 l 1,24,-1
EndSplineSet
Validated: 1
EndChar

StartChar: Egrave
Encoding: 200 200 110
Width: 1200
GlyphClass: 2
Flags: W
LayerCount: 2
Fore
SplineSet
440 683 m 1,0,-1
 961 166 l 2,1,2
 990 137 990 137 990 98 c 128,-1,3
 990 59 990 59 961 29.5 c 128,-1,4
 932 0 932 0 893 0 c 256,5,6
 854 0 854 0 824 29 c 2,7,-1
 239 614 l 2,8,9
 210 643 210 643 210 682.5 c 128,-1,10
 210 722 210 722 239 751 c 2,11,-1
 824 1336 l 2,12,13
 853 1365 853 1365 892.5 1365 c 128,-1,14
 932 1365 932 1365 961 1336 c 128,-1,15
 990 1307 990 1307 990 1268 c 128,-1,16
 990 1229 990 1229 961 1200 c 2,17,-1
 440 683 l 1,0,-1
EndSplineSet
EndChar

StartChar: Eacute
Encoding: 201 201 111
Width: 1200
GlyphClass: 2
Flags: W
LayerCount: 2
Fore
SplineSet
760 683 m 1,0,-1
 239 1200 l 2,1,2
 210 1229 210 1229 210 1268 c 128,-1,3
 210 1307 210 1307 239.5 1336 c 128,-1,4
 269 1365 269 1365 308 1365 c 128,-1,5
 347 1365 347 1365 376 1336 c 2,6,-1
 961 751 l 2,7,8
 990 722 990 722 990 683 c 128,-1,9
 990 644 990 644 961 614 c 2,10,-1
 376 29 l 2,11,12
 347 0 347 0 308 0 c 256,13,14
 269 0 269 0 239.5 29.5 c 128,-1,15
 210 59 210 59 210 98 c 128,-1,16
 210 137 210 137 239 166 c 2,17,-1
 760 683 l 1,0,-1
EndSplineSet
EndChar

StartChar: uni2010
Encoding: 8208 8208 112
Width: 1200
GlyphClass: 2
Flags: W
LayerCount: 2
Fore
SplineSet
210 585 m 2,0,1
 171 585 171 585 141.5 614.5 c 128,-1,2
 112 644 112 644 112 683 c 128,-1,3
 112 722 112 722 141 751 c 128,-1,4
 170 780 170 780 210 780 c 2,5,-1
 990 780 l 2,6,7
 1029 780 1029 780 1058.5 751 c 128,-1,8
 1088 722 1088 722 1088 683 c 128,-1,9
 1088 644 1088 644 1058 614.5 c 128,-1,10
 1028 585 1028 585 990 585 c 2,11,-1
 210 585 l 2,0,1
EndSplineSet
EndChar

StartChar: uni2011
Encoding: 8209 8209 113
Width: 1200
GlyphClass: 2
Flags: W
LayerCount: 2
Fore
SplineSet
210 585 m 2,0,1
 171 585 171 585 141.5 614.5 c 128,-1,2
 112 644 112 644 112 683 c 128,-1,3
 112 722 112 722 141 751 c 128,-1,4
 170 780 170 780 210 780 c 2,5,-1
 990 780 l 2,6,7
 1029 780 1029 780 1058.5 751 c 128,-1,8
 1088 722 1088 722 1088 683 c 128,-1,9
 1088 644 1088 644 1058 614.5 c 128,-1,10
 1028 585 1028 585 990 585 c 2,11,-1
 210 585 l 2,0,1
EndSplineSet
EndChar

StartChar: figuredash
Encoding: 8210 8210 114
Width: 1200
GlyphClass: 2
Flags: W
LayerCount: 2
Fore
SplineSet
210 585 m 2,0,1
 171 585 171 585 141.5 614.5 c 128,-1,2
 112 644 112 644 112 683 c 128,-1,3
 112 722 112 722 141 751 c 128,-1,4
 170 780 170 780 210 780 c 2,5,-1
 990 780 l 2,6,7
 1029 780 1029 780 1058.5 751 c 128,-1,8
 1088 722 1088 722 1088 683 c 128,-1,9
 1088 644 1088 644 1058 614.5 c 128,-1,10
 1028 585 1028 585 990 585 c 2,11,-1
 210 585 l 2,0,1
EndSplineSet
EndChar

StartChar: endash
Encoding: 8211 8211 115
Width: 1200
GlyphClass: 2
Flags: W
LayerCount: 2
Fore
SplineSet
215 585 m 2,0,1
 174 585 174 585 143 614.5 c 128,-1,2
 112 644 112 644 112 683 c 128,-1,3
 112 722 112 722 142.5 751 c 128,-1,4
 173 780 173 780 215 780 c 2,5,-1
 1033 780 l 2,6,7
 1074 780 1074 780 1105 751 c 128,-1,8
 1136 722 1136 722 1136 683 c 128,-1,9
 1136 644 1136 644 1104.5 614.5 c 128,-1,10
 1073 585 1073 585 1033 585 c 2,11,-1
 215 585 l 2,0,1
EndSplineSet
EndChar

StartChar: emdash
Encoding: 8212 8212 116
Width: 1200
GlyphClass: 2
Flags: W
LayerCount: 2
Fore
SplineSet
318 585 m 2,0,1
 236 585 236 585 174 614.5 c 128,-1,2
 112 644 112 644 112 683 c 128,-1,3
 112 722 112 722 173 751 c 128,-1,4
 234 780 234 780 318 780 c 2,5,-1
 1954 780 l 2,6,7
 2036 780 2036 780 2098 751 c 128,-1,8
 2160 722 2160 722 2160 683 c 128,-1,9
 2160 644 2160 644 2097 614.5 c 128,-1,10
 2034 585 2034 585 1954 585 c 2,11,-1
 318 585 l 2,0,1
EndSplineSet
EndChar

StartChar: arrowleft
Encoding: 8592 8592 117
Width: 1200
GlyphClass: 2
Flags: W
LayerCount: 2
Fore
SplineSet
444 780 m 1,0,-1
 990 780 l 2,1,2
 1029 780 1029 780 1058.5 751 c 128,-1,3
 1088 722 1088 722 1088 683 c 128,-1,4
 1088 644 1088 644 1058 614.5 c 128,-1,5
 1028 585 1028 585 990 585 c 2,6,-1
 445 585 l 1,7,-1
 491 539 l 2,8,9
 518 512 518 512 518 470 c 0,10,11
 518 469 518 469 519 469 c 1,12,13
 519 428 519 428 491 401 c 0,14,15
 464 373 464 373 423 373 c 1,16,-1
 422 374 l 1,17,18
 380 374 380 374 353 401 c 2,19,-1
 141 613 l 2,20,21
 125 629 125 629 118 650 c 0,22,23
 112 665 112 665 112 683 c 128,-1,24
 112 701 112 701 118 717 c 0,25,26
 125 737 125 737 141 753 c 2,27,-1
 353 965 l 2,28,29
 380 992 380 992 422 992 c 0,30,31
 423 992 423 992 423 993 c 1,32,33
 464 993 464 993 491 965 c 0,34,35
 519 938 519 938 519 897 c 1,36,-1
 518 896 l 1,37,38
 518 854 518 854 491 827 c 2,39,-1
 444 780 l 1,0,-1
EndSplineSet
EndChar

StartChar: arrowup
Encoding: 8593 8593 118
Width: 1200
GlyphClass: 2
Flags: W
LayerCount: 2
Fore
SplineSet
530 1150 m 2,0,1
 558 1178 558 1178 599 1178 c 2,2,-1
 600 1178 l 1,3,-1
 600 1178 l 1,4,-1
 600 1178 l 1,5,-1
 601 1178 l 2,6,7
 642 1178 642 1178 669 1150 c 2,8,-1
 882 938 l 2,9,10
 910 911 910 911 910 869 c 2,11,-1
 910 868 l 2,12,13
 910 827 910 827 882 800 c 0,14,15
 855 772 855 772 814 772 c 2,16,-1
 813 772 l 2,17,18
 771 772 771 772 744 800 c 2,19,-1
 697 847 l 1,20,-1
 697 302 l 2,21,22
 697 263 697 263 668 233.5 c 128,-1,23
 639 204 639 204 600 204 c 128,-1,24
 561 204 561 204 531.5 233 c 128,-1,25
 502 262 502 262 502 302 c 2,26,-1
 502 846 l 1,27,-1
 456 800 l 2,28,29
 429 772 429 772 387 772 c 2,30,-1
 386 772 l 2,31,32
 345 772 345 772 318 800 c 0,33,34
 290 827 290 827 290 868 c 2,35,-1
 290 869 l 2,36,37
 290 911 290 911 318 938 c 2,38,-1
 530 1150 l 2,0,1
EndSplineSet
EndChar

StartChar: arrowright
Encoding: 8594 8594 119
Width: 1200
GlyphClass: 2
Flags: W
LayerCount: 2
Fore
SplineSet
756 584 m 1,0,-1
 210 584 l 2,1,2
 171 584 171 584 141.5 613 c 128,-1,3
 112 642 112 642 112 681 c 128,-1,4
 112 720 112 720 142 749.5 c 128,-1,5
 172 779 172 779 210 779 c 2,6,-1
 755 779 l 1,7,-1
 709 825 l 2,8,9
 682 852 682 852 682 894 c 0,10,11
 682 895 682 895 681 895 c 1,12,13
 681 936 681 936 709 963 c 0,14,15
 736 991 736 991 777 991 c 1,16,-1
 778 990 l 1,17,18
 820 990 820 990 847 963 c 2,19,-1
 1059 751 l 2,20,21
 1075 735 1075 735 1082 714 c 0,22,23
 1088 699 1088 699 1088 681 c 128,-1,24
 1088 663 1088 663 1082 647 c 0,25,26
 1075 627 1075 627 1059 611 c 2,27,-1
 847 399 l 2,28,29
 820 372 820 372 778 372 c 0,30,31
 777 372 777 372 777 371 c 1,32,33
 736 371 736 371 709 399 c 0,34,35
 681 426 681 426 681 467 c 1,36,-1
 682 468 l 1,37,38
 682 510 682 510 709 537 c 2,39,-1
 756 584 l 1,0,-1
EndSplineSet
EndChar

StartChar: arrowdown
Encoding: 8595 8595 120
Width: 1200
GlyphClass: 2
Flags: W
LayerCount: 2
Fore
SplineSet
670 232 m 2,0,1
 642 204 642 204 601 204 c 2,2,3
 601 204 601 204 600 204 c 1,4,-1
 600 204 l 1,5,-1
 600 204 l 1,6,-1
 599 204 l 2,7,8
 558 204 558 204 531 232 c 2,9,-1
 318 444 l 2,10,11
 290 471 290 471 290 513 c 2,12,-1
 290 514 l 2,13,14
 290 555 290 555 318 582 c 0,15,16
 345 610 345 610 386 610 c 2,17,-1
 387 610 l 2,18,19
 429 610 429 610 456 582 c 2,20,-1
 503 535 l 1,21,-1
 503 1080 l 2,22,23
 503 1119 503 1119 532 1148.5 c 128,-1,24
 561 1178 561 1178 600 1178 c 128,-1,25
 639 1178 639 1178 668.5 1149 c 128,-1,26
 698 1120 698 1120 698 1080 c 2,27,-1
 698 536 l 1,28,-1
 744 582 l 2,29,30
 771 610 771 610 813 610 c 2,31,-1
 814 610 l 2,32,33
 855 610 855 610 882 582 c 0,34,35
 910 555 910 555 910 514 c 2,36,-1
 910 513 l 2,37,38
 910 471 910 471 882 444 c 2,39,-1
 670 232 l 2,0,1
EndSplineSet
EndChar

StartChar: arrowboth
Encoding: 8596 8596 121
Width: 1200
GlyphClass: 2
Flags: W
LayerCount: 2
Fore
SplineSet
58 717 m 0,0,1
 65 737 65 737 81 753 c 2,2,-1
 293 965 l 2,3,4
 320 992 320 992 362 992 c 0,5,6
 363 992 363 992 363 993 c 1,7,8
 404 993 404 993 431 965 c 0,9,10
 459 938 459 938 459 897 c 1,11,-1
 458 896 l 1,12,13
 458 854 458 854 431 827 c 2,14,-1
 384 780 l 1,15,-1
 815 780 l 1,16,-1
 769 826 l 2,17,18
 742 853 742 853 742 895 c 0,19,20
 742 896 742 896 741 896 c 1,21,22
 741 937 741 937 769 964 c 0,23,24
 796 992 796 992 837 992 c 2,25,-1
 838 992 l 2,26,27
 880 992 880 992 907 964 c 2,28,-1
 1119 752 l 2,29,30
 1135 736 1135 736 1142 715 c 0,31,32
 1148 700 1148 700 1148 682 c 128,-1,33
 1148 664 1148 664 1142 648 c 0,34,35
 1135 628 1135 628 1119 612 c 2,36,-1
 907 400 l 2,37,38
 880 372 880 372 838 372 c 2,39,-1
 837 372 l 2,40,41
 796 372 796 372 769 400 c 0,42,43
 741 427 741 427 741 468 c 1,44,-1
 742 469 l 1,45,46
 742 511 742 511 769 538 c 2,47,-1
 816 585 l 1,48,-1
 385 585 l 1,49,-1
 431 539 l 2,50,51
 458 512 458 512 458 470 c 0,52,53
 458 469 458 469 459 469 c 1,54,55
 459 428 459 428 431 401 c 0,56,57
 404 373 404 373 363 373 c 1,58,-1
 362 374 l 1,59,60
 320 374 320 374 293 401 c 2,61,-1
 81 613 l 2,62,63
 65 629 65 629 58 650 c 0,64,65
 52 665 52 665 52 683 c 128,-1,66
 52 701 52 701 58 717 c 0,0,1
EndSplineSet
EndChar

StartChar: arrowupdn
Encoding: 8597 8597 122
Width: 1200
GlyphClass: 2
Flags: W
LayerCount: 2
Fore
SplineSet
669 164 m 2,0,1
 641 136 641 136 600 136 c 2,2,-1
 599 136 l 1,3,-1
 598 136 l 2,4,5
 557 136 557 136 530 164 c 2,6,-1
 318 376 l 2,7,8
 291 403 291 403 290 445 c 0,9,10
 290 446 290 446 290 448 c 0,11,12
 290 488 290 488 317 514 c 0,13,14
 344 542 344 542 385 542 c 2,15,-1
 386 542 l 2,16,17
 428 542 428 542 456 514 c 2,18,-1
 502 468 l 1,19,-1
 502 897 l 1,20,-1
 457 852 l 2,21,22
 430 824 430 824 388 824 c 2,23,-1
 387 824 l 2,24,25
 346 824 346 824 319 852 c 0,26,27
 291 879 291 879 291 921 c 128,-1,28
 291 963 291 963 319 990 c 2,29,-1
 531 1202 l 2,30,31
 559 1230 559 1230 600 1230 c 2,32,-1
 601 1230 l 1,33,-1
 602 1230 l 2,34,35
 643 1230 643 1230 670 1202 c 2,36,-1
 882 990 l 2,37,38
 909 963 909 963 910 921 c 0,39,40
 910 920 910 920 910 918 c 0,41,42
 910 878 910 878 883 852 c 0,43,44
 856 824 856 824 815 824 c 2,45,-1
 814 824 l 2,46,47
 772 824 772 824 744 852 c 2,48,-1
 698 898 l 1,49,-1
 698 469 l 1,50,-1
 743 514 l 2,51,52
 770 542 770 542 812 542 c 2,53,-1
 813 542 l 2,54,55
 854 542 854 542 881 514 c 0,56,57
 909 487 909 487 909 445 c 128,-1,58
 909 403 909 403 881 376 c 2,59,-1
 669 164 l 2,0,1
EndSplineSet
EndChar

StartChar: uni2196
Encoding: 8598 8598 123
Width: 1200
GlyphClass: 2
Flags: W
LayerCount: 2
Fore
SplineSet
560 864 m 1,0,-1
 945 479 l 2,1,2
 973 451 973 451 973 409.5 c 128,-1,3
 973 368 973 368 945.5 340.5 c 128,-1,4
 918 313 918 313 876.5 313 c 128,-1,5
 835 313 835 313 807 341 c 2,6,-1
 422 726 l 1,7,-1
 422 661 l 2,8,9
 422 622 422 622 393 592 c 0,10,11
 366 563 366 563 329 563 c 0,12,13
 328 563 328 563 327 563 c 128,-1,14
 326 563 326 563 325 563 c 0,15,16
 286 563 286 563 256.5 592.5 c 128,-1,17
 227 622 227 622 227 661 c 2,18,-1
 227 961 l 2,19,20
 227 980 227 980 233 996 c 0,21,22
 240 1016 240 1016 256 1031 c 128,-1,23
 272 1046 272 1046 292 1053 c 0,24,25
 308 1059 308 1059 326 1059 c 2,26,-1
 626 1059 l 2,27,28
 664 1059 664 1059 694 1030 c 128,-1,29
 724 1001 724 1001 724 962 c 128,-1,30
 724 923 724 923 694 893.5 c 128,-1,31
 664 864 664 864 626 864 c 2,32,-1
 560 864 l 1,0,-1
EndSplineSet
EndChar

StartChar: uni2197
Encoding: 8599 8599 124
Width: 1200
GlyphClass: 2
Flags: W
LayerCount: 2
Fore
SplineSet
646 864 m 1,0,-1
 580 864 l 2,1,2
 542 864 542 864 512 893.5 c 128,-1,3
 482 923 482 923 482 962 c 128,-1,4
 482 1001 482 1001 512 1030 c 128,-1,5
 542 1059 542 1059 580 1059 c 2,6,-1
 880 1059 l 2,7,8
 898 1059 898 1059 914 1053 c 0,9,10
 934 1046 934 1046 950 1031 c 128,-1,11
 966 1016 966 1016 973 996 c 0,12,13
 979 980 979 980 979 961 c 2,14,-1
 979 661 l 2,15,16
 979 622 979 622 949.5 592.5 c 128,-1,17
 920 563 920 563 881 563 c 0,18,19
 880 563 880 563 879 563 c 128,-1,20
 878 563 878 563 877 563 c 0,21,22
 840 563 840 563 813 592 c 0,23,24
 784 622 784 622 784 661 c 2,25,-1
 784 726 l 1,26,-1
 399 341 l 2,27,28
 371 313 371 313 329.5 313 c 128,-1,29
 288 313 288 313 260.5 340.5 c 128,-1,30
 233 368 233 368 233 409.5 c 128,-1,31
 233 451 233 451 261 479 c 2,32,-1
 646 864 l 1,0,-1
EndSplineSet
EndChar

StartChar: uni2198
Encoding: 8600 8600 125
Width: 1200
GlyphClass: 2
Flags: W
LayerCount: 2
Fore
SplineSet
646 512 m 1,0,-1
 261 897 l 2,1,2
 233 925 233 925 233 966.5 c 128,-1,3
 233 1008 233 1008 260.5 1035.5 c 128,-1,4
 288 1063 288 1063 329.5 1063 c 128,-1,5
 371 1063 371 1063 399 1035 c 2,6,-1
 784 650 l 1,7,-1
 784 715 l 2,8,9
 784 754 784 754 813 784 c 0,10,11
 840 813 840 813 877 813 c 0,12,13
 878 813 878 813 879 813 c 128,-1,14
 880 813 880 813 881 813 c 0,15,16
 920 813 920 813 949.5 783.5 c 128,-1,17
 979 754 979 754 979 715 c 2,18,-1
 979 415 l 2,19,20
 979 396 979 396 973 380 c 0,21,22
 966 360 966 360 950 345 c 128,-1,23
 934 330 934 330 914 323 c 0,24,25
 898 317 898 317 880 317 c 2,26,-1
 580 317 l 2,27,28
 542 317 542 317 512 346 c 128,-1,29
 482 375 482 375 482 414 c 128,-1,30
 482 453 482 453 512 482.5 c 128,-1,31
 542 512 542 512 580 512 c 2,32,-1
 646 512 l 1,0,-1
EndSplineSet
EndChar

StartChar: uni2199
Encoding: 8601 8601 126
Width: 1200
GlyphClass: 2
Flags: W
LayerCount: 2
Fore
SplineSet
560 512 m 1,0,-1
 626 512 l 2,1,2
 664 512 664 512 694 482.5 c 128,-1,3
 724 453 724 453 724 414 c 128,-1,4
 724 375 724 375 694 346 c 128,-1,5
 664 317 664 317 626 317 c 2,6,-1
 326 317 l 2,7,8
 308 317 308 317 292 323 c 0,9,10
 272 330 272 330 256 345 c 128,-1,11
 240 360 240 360 233 380 c 0,12,13
 227 396 227 396 227 415 c 2,14,-1
 227 715 l 2,15,16
 227 754 227 754 256.5 783.5 c 128,-1,17
 286 813 286 813 325 813 c 0,18,19
 326 813 326 813 327 813 c 128,-1,20
 328 813 328 813 329 813 c 0,21,22
 366 813 366 813 393 784 c 0,23,24
 422 754 422 754 422 715 c 2,25,-1
 422 650 l 1,26,-1
 807 1035 l 2,27,28
 835 1063 835 1063 876.5 1063 c 128,-1,29
 918 1063 918 1063 945.5 1035.5 c 128,-1,30
 973 1008 973 1008 973 966.5 c 128,-1,31
 973 925 973 925 945 897 c 2,32,-1
 560 512 l 1,0,-1
EndSplineSet
EndChar

StartChar: uni233D
Encoding: 9021 9021 127
Width: 1200
GlyphClass: 2
Flags: W
LayerCount: 2
Fore
SplineSet
546 511 m 2,0,1
 520 511 520 511 499 539 c 0,2,3
 479 566 479 566 479 602 c 2,4,-1
 479 764 l 2,5,6
 479 801 479 801 499 828 c 256,7,8
 519 855 519 855 546 855 c 2,9,-1
 623 855 l 2,10,11
 649 855 649 855 670 828 c 256,12,13
 691 801 691 801 691 764 c 2,14,-1
 691 602 l 2,15,16
 691 565 691 565 671 539 c 0,17,18
 650 511 650 511 623 511 c 2,19,-1
 546 511 l 2,0,1
421 236 m 2,20,21
 306 236 306 236 216 295 c 0,22,23
 129 355 129 355 129 495 c 2,24,-1
 129 885 l 2,25,26
 129 1045 129 1045 217 1105 c 0,27,28
 305 1164 305 1164 421 1164 c 2,29,-1
 753 1164 l 2,30,31
 870 1164 870 1164 958 1104 c 0,32,33
 1047 1044 1047 1044 1047 885 c 2,34,-1
 1047 495 l 2,35,36
 1047 350 1047 350 959 295 c 0,37,38
 864 236 864 236 753 236 c 2,39,-1
 421 236 l 2,20,21
851 885 m 2,40,41
 851 952 851 952 822 972 c 256,42,43
 793 992 793 992 753 992 c 2,44,-1
 421 992 l 2,45,46
 382 992 382 992 353.5 972 c 128,-1,47
 325 952 325 952 325 885 c 2,48,-1
 325 495 l 2,49,50
 325 431 325 431 354 411 c 256,51,52
 383 391 383 391 421 391 c 2,53,-1
 753 391 l 2,54,55
 792 391 792 391 822 411 c 0,56,57
 851 431 851 431 851 495 c 2,58,-1
 851 885 l 2,40,41
EndSplineSet
EndChar

StartChar: uni24E0
Encoding: 9440 9440 128
Width: 1200
GlyphClass: 2
Flags: W
LayerCount: 2
Fore
SplineSet
675 472 m 2,0,1
 674 473 674 473 649 481 c 0,2,3
 632 486 632 486 632 519 c 0,4,5
 632 535 632 535 636 557 c 2,6,-1
 659 685 l 1,7,8
 541 685 541 685 540 686 c 0,9,10
 483 686 483 686 483 779 c 0,11,12
 483 868 483 868 544 868 c 2,13,-1
 713 869 l 2,14,15
 747 869 747 869 760 842 c 0,16,17
 781 794 781 794 781 780 c 0,18,19
 781 779 781 779 781 778 c 2,20,-1
 738 553 l 1,21,22
 731 493 731 493 730 491 c 0,23,24
 718 472 718 472 705 472 c 2,25,-1
 675 472 l 2,0,1
421 236 m 2,26,27
 306 236 306 236 216 295 c 0,28,29
 127 353 127 353 127 462 c 0,30,31
 127 478 127 478 129 495 c 2,32,-1
 173 885 l 2,33,34
 193 1059 193 1059 261 1105 c 0,35,36
 348 1164 348 1164 465 1164 c 2,37,-1
 797 1164 l 2,38,39
 906 1164 906 1164 1002 1104 c 0,40,41
 1093 1048 1093 1048 1093 926 c 0,42,43
 1093 906 1093 906 1091 885 c 2,44,-1
 1047 495 l 2,45,46
 1029 338 1029 338 959 295 c 0,47,48
 863 236 863 236 753 236 c 2,49,-1
 421 236 l 2,26,27
895 933 m 2,50,51
 896 942 896 942 896 951 c 0,52,53
 896 1000 896 1000 866 1020 c 0,54,55
 837 1040 837 1040 797 1040 c 2,56,-1
 465 1040 l 2,57,58
 421 1040 421 1040 398 1020 c 128,-1,59
 375 1000 375 1000 369 933 c 2,60,-1
 325 444 l 2,61,62
 324 435 324 435 324 427 c 0,63,64
 324 380 324 380 354 360 c 0,65,66
 383 340 383 340 421 340 c 2,67,-1
 753 340 l 2,68,69
 798 340 798 340 822 360 c 0,70,71
 845 380 845 380 851 444 c 2,72,-1
 895 933 l 2,50,51
EndSplineSet
EndChar

StartChar: uni2501
Encoding: 9473 9473 129
Width: 1200
GlyphClass: 2
Flags: W
LayerCount: 2
Fore
SplineSet
1200 549 m 1,0,-1
 3 549 l 1,1,-1
 3 694 l 1,2,-1
 1200 694 l 1,3,-1
 1200 549 l 1,0,-1
EndSplineSet
EndChar

StartChar: uni2503
Encoding: 9475 9475 130
Width: 1200
GlyphClass: 2
Flags: W
LayerCount: 2
Fore
SplineSet
532 -410 m 1,0,-1
 532 1653 l 1,1,-1
 672 1653 l 1,2,-1
 672 -410 l 1,3,-1
 532 -410 l 1,0,-1
EndSplineSet
EndChar

StartChar: uni250F
Encoding: 9487 9487 131
Width: 1200
GlyphClass: 2
Flags: W
LayerCount: 2
Fore
SplineSet
1200 693 m 1,0,-1
 1200 548 l 1,1,-1
 671 548 l 1,2,-1
 671 -411 l 1,3,-1
 531 -411 l 1,4,-1
 531 693 l 1,5,-1
 1200 693 l 1,0,-1
EndSplineSet
EndChar

StartChar: uni2513
Encoding: 9491 9491 132
Width: 1200
GlyphClass: 2
Flags: W
LayerCount: 2
Fore
SplineSet
528 549 m 1,0,-1
 0 549 l 1,1,-1
 0 694 l 1,2,-1
 668 694 l 1,3,-1
 668 -410 l 1,4,-1
 528 -410 l 1,5,-1
 528 549 l 1,0,-1
EndSplineSet
EndChar

StartChar: uni2517
Encoding: 9495 9495 133
Width: 1200
GlyphClass: 2
Flags: W
LayerCount: 2
Fore
SplineSet
531 551 m 1,0,-1
 531 1655 l 1,1,-1
 671 1655 l 1,2,-1
 671 696 l 1,3,-1
 1200 696 l 1,4,-1
 1200 551 l 1,5,-1
 531 551 l 1,0,-1
EndSplineSet
EndChar

StartChar: uni251B
Encoding: 9499 9499 134
Width: 1200
GlyphClass: 2
Flags: W
LayerCount: 2
Fore
SplineSet
669 552 m 1,0,-1
 1 552 l 1,1,-1
 1 697 l 1,2,-1
 529 697 l 1,3,-1
 529 1656 l 1,4,-1
 669 1656 l 1,5,-1
 669 552 l 1,0,-1
EndSplineSet
EndChar

StartChar: uni2523
Encoding: 9507 9507 135
Width: 1200
GlyphClass: 2
Flags: W
LayerCount: 2
Fore
SplineSet
531 -410 m 1,0,-1
 531 1653 l 1,1,-1
 671 1653 l 1,2,-1
 671 694 l 1,3,-1
 1200 694 l 1,4,-1
 1200 549 l 1,5,-1
 671 549 l 1,6,-1
 671 -410 l 1,7,-1
 531 -410 l 1,0,-1
EndSplineSet
EndChar

StartChar: uni252B
Encoding: 9515 9515 136
Width: 1200
GlyphClass: 2
Flags: W
LayerCount: 2
Fore
SplineSet
529 -410 m 1,0,-1
 529 549 l 1,1,-1
 1 549 l 1,2,-1
 1 694 l 1,3,-1
 529 694 l 1,4,-1
 529 1653 l 1,5,-1
 669 1653 l 1,6,-1
 669 -410 l 1,7,-1
 529 -410 l 1,0,-1
EndSplineSet
EndChar

StartChar: uni2533
Encoding: 9523 9523 137
Width: 1200
GlyphClass: 2
Flags: W
LayerCount: 2
Fore
SplineSet
531 551 m 1,0,-1
 3 551 l 1,1,-1
 3 696 l 1,2,-1
 1200 696 l 1,3,-1
 1200 551 l 1,4,-1
 671 551 l 1,5,-1
 671 -408 l 1,6,-1
 531 -408 l 1,7,-1
 531 551 l 1,0,-1
EndSplineSet
EndChar

StartChar: uni253B
Encoding: 9531 9531 138
Width: 1200
GlyphClass: 2
Flags: W
LayerCount: 2
Fore
SplineSet
1200 555 m 1,0,-1
 3 555 l 1,1,-1
 3 700 l 1,2,-1
 531 700 l 1,3,-1
 531 1659 l 1,4,-1
 671 1659 l 1,5,-1
 671 700 l 1,6,-1
 1200 700 l 1,7,-1
 1200 555 l 1,0,-1
EndSplineSet
EndChar

StartChar: uni254B
Encoding: 9547 9547 139
Width: 1200
GlyphClass: 2
Flags: W
LayerCount: 2
Fore
SplineSet
531 549 m 1,0,-1
 3 549 l 1,1,-1
 3 694 l 1,2,-1
 531 694 l 1,3,-1
 531 1653 l 1,4,-1
 671 1653 l 1,5,-1
 671 694 l 1,6,-1
 1200 694 l 1,7,-1
 1200 549 l 1,8,-1
 671 549 l 1,9,-1
 671 -410 l 1,10,-1
 531 -410 l 1,11,-1
 531 549 l 1,0,-1
EndSplineSet
EndChar

StartChar: SF430000
Encoding: 9552 9552 140
Width: 1200
GlyphClass: 2
Flags: W
LayerCount: 2
Fore
SplineSet
1200 707 m 1,0,-1
 3 707 l 1,1,-1
 3 852 l 1,2,-1
 1200 852 l 1,3,-1
 1200 707 l 1,0,-1
1200 391 m 1,4,-1
 3 391 l 1,5,-1
 3 536 l 1,6,-1
 1200 536 l 1,7,-1
 1200 391 l 1,4,-1
EndSplineSet
EndChar

StartChar: SF240000
Encoding: 9553 9553 141
Width: 1200
GlyphClass: 2
Flags: W
LayerCount: 2
Fore
SplineSet
688 -410 m 1,0,-1
 688 1653 l 1,1,-1
 828 1653 l 1,2,-1
 828 -410 l 1,3,-1
 688 -410 l 1,0,-1
384 -410 m 1,4,-1
 384 1653 l 1,5,-1
 524 1653 l 1,6,-1
 524 -410 l 1,7,-1
 384 -410 l 1,4,-1
EndSplineSet
EndChar

StartChar: SF510000
Encoding: 9554 9554 142
Width: 1200
GlyphClass: 2
Flags: W
LayerCount: 2
Fore
SplineSet
531 -409 m 1,0,-1
 531 853 l 1,1,-1
 1200 853 l 1,2,-1
 1200 708 l 1,3,-1
 671 708 l 1,4,-1
 671 538 l 1,5,-1
 1200 538 l 1,6,-1
 1200 392 l 1,7,-1
 671 392 l 1,8,-1
 671 -409 l 1,9,-1
 531 -409 l 1,0,-1
EndSplineSet
EndChar

StartChar: SF520000
Encoding: 9555 9555 143
Width: 1200
GlyphClass: 2
Flags: W
LayerCount: 2
Fore
SplineSet
379 -411 m 1,0,-1
 379 693 l 1,1,-1
 1200 693 l 1,2,-1
 1200 548 l 1,3,-1
 823 548 l 1,4,-1
 823 -411 l 1,5,-1
 683 -411 l 1,6,-1
 683 536 l 1,7,-1
 519 536 l 1,8,-1
 519 -411 l 1,9,-1
 379 -411 l 1,0,-1
EndSplineSet
EndChar

StartChar: SF390000
Encoding: 9556 9556 144
Width: 1200
GlyphClass: 2
Flags: W
LayerCount: 2
Fore
SplineSet
520 -407 m 1,0,-1
 380 -407 l 1,1,-1
 380 855 l 1,2,-1
 1200 855 l 1,3,-1
 1200 709 l 1,4,-1
 520 709 l 1,5,-1
 520 -407 l 1,0,-1
824 394 m 1,6,-1
 824 -407 l 1,7,-1
 684 -407 l 1,8,-1
 684 539 l 1,9,-1
 1200 539 l 1,10,-1
 1200 394 l 1,11,-1
 824 394 l 1,6,-1
EndSplineSet
EndChar

StartChar: SF220000
Encoding: 9557 9557 145
Width: 1200
GlyphClass: 2
Flags: W
LayerCount: 2
Fore
SplineSet
528 391 m 1,0,-1
 0 391 l 1,1,-1
 0 536 l 1,2,-1
 528 536 l 1,3,-1
 528 706 l 1,4,-1
 0 706 l 1,5,-1
 0 852 l 1,6,-1
 668 852 l 1,7,-1
 668 -410 l 1,8,-1
 528 -410 l 1,9,-1
 528 391 l 1,0,-1
EndSplineSet
EndChar

StartChar: SF210000
Encoding: 9558 9558 146
Width: 1200
GlyphClass: 2
Flags: W
LayerCount: 2
Fore
SplineSet
374 -410 m 1,0,-1
 375 549 l 1,1,-1
 -2 549 l 1,2,-1
 -2 694 l 1,3,-1
 818 694 l 1,4,-1
 818 -410 l 1,5,-1
 678 -410 l 1,6,-1
 678 549 l 1,7,-1
 514 549 l 1,8,-1
 514 -410 l 1,9,-1
 374 -410 l 1,0,-1
EndSplineSet
EndChar

StartChar: SF250000
Encoding: 9559 9559 147
Width: 1200
GlyphClass: 2
Flags: W
LayerCount: 2
Fore
SplineSet
678 -411 m 1,0,-1
 678 705 l 1,1,-1
 -2 705 l 1,2,-1
 -2 851 l 1,3,-1
 818 851 l 1,4,-1
 818 -411 l 1,5,-1
 678 -411 l 1,0,-1
374 390 m 1,6,-1
 -2 390 l 1,7,-1
 -2 535 l 1,8,-1
 514 535 l 1,9,-1
 514 -411 l 1,10,-1
 374 -411 l 1,11,-1
 374 390 l 1,6,-1
EndSplineSet
EndChar

StartChar: SF500000
Encoding: 9560 9560 148
Width: 1200
GlyphClass: 2
Flags: W
LayerCount: 2
Fore
SplineSet
528 403 m 1,0,-1
 528 1665 l 1,1,-1
 668 1665 l 1,2,-1
 668 864 l 1,3,-1
 1197 864 l 1,4,-1
 1197 719 l 1,5,-1
 668 719 l 1,6,-1
 668 549 l 1,7,-1
 1197 549 l 1,8,-1
 1197 403 l 1,9,-1
 528 403 l 1,0,-1
EndSplineSet
EndChar

StartChar: SF490000
Encoding: 9561 9561 149
Width: 1200
GlyphClass: 2
Flags: W
LayerCount: 2
Fore
SplineSet
1198 552 m 1,0,-1
 377 552 l 1,1,-1
 377 1656 l 1,2,-1
 517 1656 l 1,3,-1
 517 697 l 1,4,-1
 681 697 l 1,5,-1
 681 1656 l 1,6,-1
 821 1656 l 1,7,-1
 821 697 l 1,8,-1
 1198 697 l 1,9,-1
 1198 552 l 1,0,-1
EndSplineSet
EndChar

StartChar: SF380000
Encoding: 9562 9562 150
Width: 1200
GlyphClass: 2
Flags: W
LayerCount: 2
Fore
SplineSet
521 1659 m 1,0,-1
 521 543 l 1,1,-1
 1201 543 l 1,2,-1
 1201 397 l 1,3,-1
 381 397 l 1,4,-1
 381 1659 l 1,5,-1
 521 1659 l 1,0,-1
825 858 m 1,6,-1
 1201 858 l 1,7,-1
 1201 713 l 1,8,-1
 685 713 l 1,9,-1
 685 1659 l 1,10,-1
 825 1659 l 1,11,-1
 825 858 l 1,6,-1
EndSplineSet
EndChar

StartChar: SF280000
Encoding: 9563 9563 151
Width: 1200
GlyphClass: 2
Flags: W
LayerCount: 2
Fore
SplineSet
669 397 m 1,0,-1
 1 397 l 1,1,-1
 1 543 l 1,2,-1
 529 543 l 1,3,-1
 529 713 l 1,4,-1
 1 713 l 1,5,-1
 1 858 l 1,6,-1
 529 858 l 1,7,-1
 529 1659 l 1,8,-1
 669 1659 l 1,9,-1
 669 397 l 1,0,-1
EndSplineSet
EndChar

StartChar: SF270000
Encoding: 9564 9564 152
Width: 1200
GlyphClass: 2
Flags: W
LayerCount: 2
Fore
SplineSet
821 552 m 1,0,-1
 1 552 l 1,1,-1
 1 697 l 1,2,-1
 377 697 l 1,3,-1
 377 1656 l 1,4,-1
 517 1656 l 1,5,-1
 517 697 l 1,6,-1
 681 697 l 1,7,-1
 681 1656 l 1,8,-1
 821 1656 l 1,9,-1
 821 552 l 1,0,-1
EndSplineSet
EndChar

StartChar: SF260000
Encoding: 9565 9565 153
Width: 1200
GlyphClass: 2
Flags: W
LayerCount: 2
Fore
SplineSet
681 1659 m 1,0,-1
 821 1659 l 1,1,-1
 821 397 l 1,2,-1
 1 397 l 1,3,-1
 1 543 l 1,4,-1
 681 543 l 1,5,-1
 681 1659 l 1,0,-1
377 858 m 1,6,-1
 377 1659 l 1,7,-1
 517 1659 l 1,8,-1
 517 713 l 1,9,-1
 1 713 l 1,10,-1
 1 858 l 1,11,-1
 377 858 l 1,6,-1
EndSplineSet
EndChar

StartChar: SF360000
Encoding: 9566 9566 154
Width: 1200
GlyphClass: 2
Flags: W
LayerCount: 2
Fore
SplineSet
531 -410 m 1,0,-1
 531 1653 l 1,1,-1
 671 1653 l 1,2,-1
 671 852 l 1,3,-1
 1200 852 l 1,4,-1
 1200 707 l 1,5,-1
 671 707 l 1,6,-1
 671 536 l 1,7,-1
 1200 536 l 1,8,-1
 1200 391 l 1,9,-1
 671 391 l 1,10,-1
 671 -410 l 1,11,-1
 531 -410 l 1,0,-1
EndSplineSet
EndChar

StartChar: SF370000
Encoding: 9567 9567 155
Width: 1200
GlyphClass: 2
Flags: W
LayerCount: 2
Fore
SplineSet
683 -410 m 1,0,-1
 683 1653 l 1,1,-1
 823 1653 l 1,2,-1
 823 694 l 1,3,-1
 1200 694 l 1,4,-1
 1200 549 l 1,5,-1
 823 549 l 1,6,-1
 823 -410 l 1,7,-1
 683 -410 l 1,0,-1
379 -410 m 1,8,-1
 379 1653 l 1,9,-1
 519 1653 l 1,10,-1
 519 -410 l 1,11,-1
 379 -410 l 1,8,-1
EndSplineSet
EndChar

StartChar: SF420000
Encoding: 9568 9568 156
Width: 1200
GlyphClass: 2
Flags: W
LayerCount: 2
Fore
SplineSet
379 -410 m 1,0,-1
 379 1653 l 1,1,-1
 519 1653 l 1,2,-1
 519 -410 l 1,3,-1
 379 -410 l 1,0,-1
683 707 m 1,4,-1
 683 1653 l 1,5,-1
 823 1653 l 1,6,-1
 823 852 l 1,7,-1
 1200 852 l 1,8,-1
 1200 707 l 1,9,-1
 683 707 l 1,4,-1
683 -410 m 1,10,-1
 683 536 l 1,11,-1
 1200 536 l 1,12,-1
 1200 391 l 1,13,-1
 823 391 l 1,14,-1
 823 -410 l 1,15,-1
 683 -410 l 1,10,-1
EndSplineSet
EndChar

StartChar: SF190000
Encoding: 9569 9569 157
Width: 1200
GlyphClass: 2
Flags: W
LayerCount: 2
Fore
SplineSet
528 393 m 1,0,-1
 0 393 l 1,1,-1
 0 538 l 1,2,-1
 529 538 l 1,3,-1
 528 708 l 1,4,-1
 0 708 l 1,5,-1
 0 853 l 1,6,-1
 528 853 l 1,7,-1
 528 1654 l 1,8,-1
 668 1654 l 1,9,-1
 668 -408 l 1,10,-1
 528 -408 l 1,11,-1
 528 393 l 1,0,-1
EndSplineSet
EndChar

StartChar: SF200000
Encoding: 9570 9570 158
Width: 1200
GlyphClass: 2
Flags: W
LayerCount: 2
Fore
SplineSet
376 -410 m 1,0,-1
 377 549 l 1,1,-1
 0 549 l 1,2,-1
 0 694 l 1,3,-1
 376 694 l 1,4,-1
 376 1653 l 1,5,-1
 516 1653 l 1,6,-1
 516 -410 l 1,7,-1
 376 -410 l 1,0,-1
680 -410 m 1,8,-1
 680 1653 l 1,9,-1
 820 1653 l 1,10,-1
 820 -410 l 1,11,-1
 680 -410 l 1,8,-1
EndSplineSet
EndChar

StartChar: SF230000
Encoding: 9571 9571 159
Width: 1200
GlyphClass: 2
Flags: W
LayerCount: 2
Fore
SplineSet
680 -405 m 1,0,-1
 680 1657 l 1,1,-1
 820 1657 l 1,2,-1
 820 -405 l 1,3,-1
 680 -405 l 1,0,-1
516 1657 m 1,4,-1
 516 711 l 1,5,-1
 0 711 l 1,6,-1
 0 856 l 1,7,-1
 376 856 l 1,8,-1
 376 1657 l 1,9,-1
 516 1657 l 1,4,-1
376 396 m 1,10,-1
 0 396 l 1,11,-1
 0 541 l 1,12,-1
 516 541 l 1,13,-1
 516 -405 l 1,14,-1
 376 -405 l 1,15,-1
 376 396 l 1,10,-1
EndSplineSet
EndChar

StartChar: SF470000
Encoding: 9572 9572 160
Width: 1200
GlyphClass: 2
Flags: W
LayerCount: 2
Fore
SplineSet
1200 708 m 1,0,-1
 3 708 l 1,1,-1
 3 853 l 1,2,-1
 1200 853 l 1,3,-1
 1200 708 l 1,0,-1
531 392 m 1,4,-1
 3 392 l 1,5,-1
 3 538 l 1,6,-1
 1200 538 l 1,7,-1
 1200 392 l 1,8,-1
 671 392 l 1,9,-1
 671 -409 l 1,10,-1
 531 -409 l 1,11,-1
 531 392 l 1,4,-1
EndSplineSet
EndChar

StartChar: SF480000
Encoding: 9573 9573 161
Width: 1200
GlyphClass: 2
Flags: W
LayerCount: 2
Fore
SplineSet
379 -409 m 1,0,-1
 380 550 l 1,1,-1
 3 550 l 1,2,-1
 3 695 l 1,3,-1
 1200 695 l 1,4,-1
 1200 550 l 1,5,-1
 823 550 l 1,6,-1
 823 -409 l 1,7,-1
 683 -409 l 1,8,-1
 683 537 l 1,9,-1
 519 537 l 1,10,-1
 519 -409 l 1,11,-1
 379 -409 l 1,0,-1
EndSplineSet
EndChar

StartChar: SF410000
Encoding: 9574 9574 162
Width: 1200
GlyphClass: 2
Flags: W
LayerCount: 2
Fore
SplineSet
1197 705 m 1,0,-1
 0 705 l 1,1,-1
 0 850 l 1,2,-1
 1197 850 l 1,3,-1
 1197 705 l 1,0,-1
376 390 m 1,4,-1
 0 390 l 1,5,-1
 0 535 l 1,6,-1
 516 535 l 1,7,-1
 516 -411 l 1,8,-1
 376 -411 l 1,9,-1
 376 390 l 1,4,-1
680 -411 m 1,10,-1
 680 535 l 1,11,-1
 1197 535 l 1,12,-1
 1197 390 l 1,13,-1
 820 390 l 1,14,-1
 820 -411 l 1,15,-1
 680 -411 l 1,10,-1
EndSplineSet
EndChar

StartChar: SF450000
Encoding: 9575 9575 163
Width: 1200
GlyphClass: 2
Flags: W
LayerCount: 2
Fore
SplineSet
1197 710 m 1,0,-1
 0 710 l 1,1,-1
 0 856 l 1,2,-1
 528 856 l 1,3,-1
 528 1657 l 1,4,-1
 668 1657 l 1,5,-1
 668 856 l 1,6,-1
 1197 856 l 1,7,-1
 1197 710 l 1,0,-1
1197 395 m 1,8,-1
 0 395 l 1,9,-1
 0 540 l 1,10,-1
 1197 540 l 1,11,-1
 1197 395 l 1,8,-1
EndSplineSet
EndChar

StartChar: SF460000
Encoding: 9576 9576 164
Width: 1200
GlyphClass: 2
Flags: W
LayerCount: 2
Fore
SplineSet
1197 549 m 1,0,-1
 0 549 l 1,1,-1
 0 694 l 1,2,-1
 376 694 l 1,3,-1
 376 1653 l 1,4,-1
 516 1653 l 1,5,-1
 516 694 l 1,6,-1
 680 694 l 1,7,-1
 680 1653 l 1,8,-1
 820 1653 l 1,9,-1
 820 694 l 1,10,-1
 1197 694 l 1,11,-1
 1197 549 l 1,0,-1
EndSplineSet
EndChar

StartChar: SF400000
Encoding: 9577 9577 165
Width: 1200
GlyphClass: 2
Flags: W
LayerCount: 2
Fore
SplineSet
516 707 m 1,0,-1
 0 707 l 1,1,-1
 0 852 l 1,2,-1
 376 852 l 1,3,-1
 376 1653 l 1,4,-1
 516 1653 l 1,5,-1
 516 707 l 1,0,-1
1197 707 m 1,6,-1
 680 707 l 1,7,-1
 680 1653 l 1,8,-1
 820 1653 l 1,9,-1
 820 852 l 1,10,-1
 1197 852 l 1,11,-1
 1197 707 l 1,6,-1
1197 392 m 1,12,-1
 0 392 l 1,13,-1
 0 537 l 1,14,-1
 1197 537 l 1,15,-1
 1197 392 l 1,12,-1
EndSplineSet
EndChar

StartChar: SF540000
Encoding: 9578 9578 166
Width: 1200
GlyphClass: 2
Flags: W
LayerCount: 2
Fore
SplineSet
528 391 m 1,0,-1
 0 391 l 1,1,-1
 0 536 l 1,2,-1
 528 536 l 1,3,-1
 528 707 l 1,4,-1
 0 707 l 1,5,-1
 0 852 l 1,6,-1
 528 852 l 1,7,-1
 528 1653 l 1,8,-1
 668 1653 l 1,9,-1
 668 852 l 1,10,-1
 1197 852 l 1,11,-1
 1197 707 l 1,12,-1
 668 707 l 1,13,-1
 668 536 l 1,14,-1
 1197 536 l 1,15,-1
 1197 391 l 1,16,-1
 668 391 l 1,17,-1
 668 -410 l 1,18,-1
 528 -410 l 1,19,-1
 528 391 l 1,0,-1
EndSplineSet
EndChar

StartChar: SF530000
Encoding: 9579 9579 167
Width: 1200
GlyphClass: 2
Flags: W
LayerCount: 2
Fore
SplineSet
376 -410 m 1,0,-1
 377 549 l 1,1,-1
 0 549 l 1,2,-1
 0 694 l 1,3,-1
 376 694 l 1,4,-1
 376 1653 l 1,5,-1
 516 1653 l 1,6,-1
 516 694 l 1,7,-1
 680 694 l 1,8,-1
 680 1653 l 1,9,-1
 820 1653 l 1,10,-1
 820 694 l 1,11,-1
 1197 694 l 1,12,-1
 1197 549 l 1,13,-1
 820 549 l 1,14,-1
 820 -410 l 1,15,-1
 680 -410 l 1,16,-1
 680 549 l 1,17,-1
 516 549 l 1,18,-1
 516 -410 l 1,19,-1
 376 -410 l 1,0,-1
EndSplineSet
EndChar

StartChar: SF440000
Encoding: 9580 9580 168
Width: 1200
GlyphClass: 2
Flags: W
LayerCount: 2
Fore
SplineSet
821 852 m 1,0,-1
 1197 852 l 1,1,-1
 1197 707 l 1,2,-1
 681 707 l 1,3,-1
 681 1653 l 1,4,-1
 821 1653 l 1,5,-1
 821 852 l 1,0,-1
376 852 m 1,6,-1
 376 1653 l 1,7,-1
 516 1653 l 1,8,-1
 516 707 l 1,9,-1
 0 707 l 1,10,-1
 0 852 l 1,11,-1
 376 852 l 1,6,-1
376 391 m 1,12,-1
 0 391 l 1,13,-1
 0 536 l 1,14,-1
 516 536 l 1,15,-1
 516 -410 l 1,16,-1
 376 -410 l 1,17,-1
 376 391 l 1,12,-1
821 391 m 1,18,-1
 821 -410 l 1,19,-1
 681 -410 l 1,20,-1
 681 536 l 1,21,-1
 1197 536 l 1,22,-1
 1197 391 l 1,23,-1
 821 391 l 1,18,-1
EndSplineSet
EndChar

StartChar: upblock
Encoding: 9600 9600 169
Width: 1200
GlyphClass: 2
Flags: W
LayerCount: 2
Fore
SplineSet
0 1637 m 1,0,-1
 1200 1637 l 1,1,-1
 1200 614 l 1,2,-1
 0 614 l 1,3,-1
 0 1637 l 1,0,-1
EndSplineSet
EndChar

StartChar: uni2581
Encoding: 9601 9601 170
Width: 1200
GlyphClass: 2
Flags: W
LayerCount: 2
Fore
SplineSet
0 -154 m 1,0,-1
 1200 -154 l 1,1,-1
 1200 -410 l 1,2,-1
 0 -410 l 1,3,-1
 0 -154 l 1,0,-1
EndSplineSet
EndChar

StartChar: uni2582
Encoding: 9602 9602 171
Width: 1200
GlyphClass: 2
Flags: W
LayerCount: 2
Fore
SplineSet
0 100 m 1,0,-1
 1200 100 l 1,1,-1
 1200 -411 l 1,2,-1
 0 -411 l 1,3,-1
 0 100 l 1,0,-1
EndSplineSet
EndChar

StartChar: uni2583
Encoding: 9603 9603 172
Width: 1200
GlyphClass: 2
Flags: W
LayerCount: 2
Fore
SplineSet
0 355 m 1,0,-1
 1200 355 l 1,1,-1
 1200 -412 l 1,2,-1
 0 -412 l 1,3,-1
 0 355 l 1,0,-1
EndSplineSet
EndChar

StartChar: dnblock
Encoding: 9604 9604 173
Width: 1200
GlyphClass: 2
Flags: W
LayerCount: 2
Fore
SplineSet
0 610 m 1,0,-1
 1200 610 l 1,1,-1
 1200 -413 l 1,2,-1
 0 -413 l 1,3,-1
 0 610 l 1,0,-1
EndSplineSet
EndChar

StartChar: uni2585
Encoding: 9605 9605 174
Width: 1200
GlyphClass: 2
Flags: W
LayerCount: 2
Fore
SplineSet
0 865 m 1,0,-1
 1200 865 l 1,1,-1
 1200 -414 l 1,2,-1
 0 -414 l 1,3,-1
 0 865 l 1,0,-1
EndSplineSet
EndChar

StartChar: uni2586
Encoding: 9606 9606 175
Width: 1200
GlyphClass: 2
Flags: W
LayerCount: 2
Fore
SplineSet
0 1120 m 1,0,-1
 1200 1120 l 1,1,-1
 1200 -415 l 1,2,-1
 0 -415 l 1,3,-1
 0 1120 l 1,0,-1
EndSplineSet
EndChar

StartChar: uni2587
Encoding: 9607 9607 176
Width: 1200
GlyphClass: 2
Flags: W
LayerCount: 2
Fore
SplineSet
0 1374 m 1,0,-1
 1200 1374 l 1,1,-1
 1200 -416 l 1,2,-1
 0 -416 l 1,3,-1
 0 1374 l 1,0,-1
EndSplineSet
EndChar

StartChar: block
Encoding: 9608 9608 177
Width: 1200
GlyphClass: 2
Flags: W
LayerCount: 2
Fore
SplineSet
0 1638 m 1,0,-1
 1200 1638 l 1,1,-1
 1200 -408 l 1,2,-1
 0 -408 l 1,3,-1
 0 1638 l 1,0,-1
EndSplineSet
EndChar

StartChar: uni2589
Encoding: 9609 9609 178
Width: 1200
GlyphClass: 2
Flags: W
LayerCount: 2
Fore
SplineSet
0 1638 m 1,0,-1
 1050 1638 l 1,1,-1
 1050 -408 l 1,2,-1
 0 -408 l 1,3,-1
 0 1638 l 1,0,-1
EndSplineSet
EndChar

StartChar: uni258A
Encoding: 9610 9610 179
Width: 1200
GlyphClass: 2
Flags: W
LayerCount: 2
Fore
SplineSet
0 1638 m 1,0,-1
 900 1638 l 1,1,-1
 900 -408 l 1,2,-1
 0 -408 l 1,3,-1
 0 1638 l 1,0,-1
EndSplineSet
EndChar

StartChar: uni258B
Encoding: 9611 9611 180
Width: 1200
GlyphClass: 2
Flags: W
LayerCount: 2
Fore
SplineSet
0 1638 m 1,0,-1
 750 1638 l 1,1,-1
 750 -408 l 1,2,-1
 0 -408 l 1,3,-1
 0 1638 l 1,0,-1
EndSplineSet
EndChar

StartChar: lfblock
Encoding: 9612 9612 181
Width: 1200
GlyphClass: 2
Flags: W
LayerCount: 2
Fore
SplineSet
0 1638 m 1,0,-1
 600 1638 l 1,1,-1
 600 -408 l 1,2,-1
 0 -408 l 1,3,-1
 0 1638 l 1,0,-1
EndSplineSet
EndChar

StartChar: uni258D
Encoding: 9613 9613 182
Width: 1200
GlyphClass: 2
Flags: W
LayerCount: 2
Fore
SplineSet
0 1638 m 1,0,-1
 450 1638 l 1,1,-1
 450 -408 l 1,2,-1
 0 -408 l 1,3,-1
 0 1638 l 1,0,-1
EndSplineSet
EndChar

StartChar: uni258E
Encoding: 9614 9614 183
Width: 1200
GlyphClass: 2
Flags: W
LayerCount: 2
Fore
SplineSet
0 1638 m 1,0,-1
 300 1638 l 1,1,-1
 300 -408 l 1,2,-1
 0 -408 l 1,3,-1
 0 1638 l 1,0,-1
EndSplineSet
EndChar

StartChar: uni258F
Encoding: 9615 9615 184
Width: 1200
GlyphClass: 2
Flags: W
LayerCount: 2
Fore
SplineSet
0 1638 m 1,0,-1
 150 1638 l 1,1,-1
 150 -408 l 1,2,-1
 0 -408 l 1,3,-1
 0 1638 l 1,0,-1
EndSplineSet
EndChar

StartChar: rtblock
Encoding: 9616 9616 185
Width: 1200
GlyphClass: 2
Flags: W
LayerCount: 2
Fore
SplineSet
598 1638 m 1,0,-1
 1198 1638 l 1,1,-1
 1198 -408 l 1,2,-1
 598 -408 l 1,3,-1
 598 1638 l 1,0,-1
EndSplineSet
EndChar

StartChar: ltshade
Encoding: 9617 9617 186
Width: 1200
GlyphClass: 2
Flags: W
LayerCount: 2
Fore
SplineSet
1013 -87 m 1,0,-1
 1200 -87 l 1,1,-1
 1200 -270 l 1,2,-1
 1013 -270 l 1,3,-1
 1013 -87 l 1,0,-1
611 -87 m 1,4,-1
 798 -87 l 1,5,-1
 798 -270 l 1,6,-1
 611 -270 l 1,7,-1
 611 -87 l 1,4,-1
197 -87 m 1,8,-1
 384 -87 l 1,9,-1
 384 -270 l 1,10,-1
 197 -270 l 1,11,-1
 197 -87 l 1,8,-1
816 250 m 1,12,-1
 1003 250 l 1,13,-1
 1003 67 l 1,14,-1
 816 67 l 1,15,-1
 816 250 l 1,12,-1
414 250 m 1,16,-1
 601 250 l 1,17,-1
 601 67 l 1,18,-1
 414 67 l 1,19,-1
 414 250 l 1,16,-1
0 250 m 1,20,-1
 187 250 l 1,21,-1
 187 67 l 1,22,-1
 0 67 l 1,23,-1
 0 250 l 1,20,-1
1013 592 m 1,24,-1
 1200 592 l 1,25,-1
 1200 409 l 1,26,-1
 1013 409 l 1,27,-1
 1013 592 l 1,24,-1
611 592 m 1,28,-1
 798 592 l 1,29,-1
 798 409 l 1,30,-1
 611 409 l 1,31,-1
 611 592 l 1,28,-1
197 592 m 1,32,-1
 384 592 l 1,33,-1
 384 409 l 1,34,-1
 197 409 l 1,35,-1
 197 592 l 1,32,-1
1013 1284 m 1,36,-1
 1200 1284 l 1,37,-1
 1200 1101 l 1,38,-1
 1013 1101 l 1,39,-1
 1013 1284 l 1,36,-1
611 1284 m 1,40,-1
 798 1284 l 1,41,-1
 798 1101 l 1,42,-1
 611 1101 l 1,43,-1
 611 1284 l 1,40,-1
197 1284 m 1,44,-1
 384 1284 l 1,45,-1
 384 1101 l 1,46,-1
 197 1101 l 1,47,-1
 197 1284 l 1,44,-1
813 952 m 1,48,-1
 1000 952 l 1,49,-1
 1000 769 l 1,50,-1
 813 769 l 1,51,-1
 813 952 l 1,48,-1
411 952 m 1,52,-1
 598 952 l 1,53,-1
 598 769 l 1,54,-1
 411 769 l 1,55,-1
 411 952 l 1,52,-1
-3 952 m 1,56,-1
 184 952 l 1,57,-1
 184 769 l 1,58,-1
 -3 769 l 1,59,-1
 -3 952 l 1,56,-1
813 1640 m 1,60,-1
 1000 1640 l 1,61,-1
 1000 1457 l 1,62,-1
 813 1457 l 1,63,-1
 813 1640 l 1,60,-1
411 1640 m 1,64,-1
 598 1640 l 1,65,-1
 598 1457 l 1,66,-1
 411 1457 l 1,67,-1
 411 1640 l 1,64,-1
-3 1640 m 1,68,-1
 184 1640 l 1,69,-1
 184 1457 l 1,70,-1
 -3 1457 l 1,71,-1
 -3 1640 l 1,68,-1
EndSplineSet
EndChar

StartChar: shade
Encoding: 9618 9618 187
Width: 1200
GlyphClass: 2
Flags: W
LayerCount: 2
Fore
SplineSet
1013 -216 m 1,0,-1
 1200 -216 l 1,1,-1
 1200 -399 l 1,2,-1
 1013 -399 l 1,3,-1
 1013 -216 l 1,0,-1
611 -216 m 1,4,-1
 798 -216 l 1,5,-1
 798 -399 l 1,6,-1
 611 -399 l 1,7,-1
 611 -216 l 1,4,-1
197 -216 m 1,8,-1
 384 -216 l 1,9,-1
 384 -399 l 1,10,-1
 197 -399 l 1,11,-1
 197 -216 l 1,8,-1
813 -19 m 1,12,-1
 1000 -19 l 1,13,-1
 1000 -202 l 1,14,-1
 813 -202 l 1,15,-1
 813 -19 l 1,12,-1
411 -19 m 1,16,-1
 598 -19 l 1,17,-1
 598 -202 l 1,18,-1
 411 -202 l 1,19,-1
 411 -19 l 1,16,-1
-3 -19 m 1,20,-1
 184 -19 l 1,21,-1
 184 -202 l 1,22,-1
 -3 -202 l 1,23,-1
 -3 -19 l 1,20,-1
1013 183 m 1,24,-1
 1200 183 l 1,25,-1
 1200 0 l 1,26,-1
 1013 0 l 1,27,-1
 1013 183 l 1,24,-1
611 183 m 1,28,-1
 798 183 l 1,29,-1
 798 0 l 1,30,-1
 611 0 l 1,31,-1
 611 183 l 1,28,-1
197 183 m 1,32,-1
 384 183 l 1,33,-1
 384 0 l 1,34,-1
 197 0 l 1,35,-1
 197 183 l 1,32,-1
813 389 m 1,36,-1
 1000 389 l 1,37,-1
 1000 206 l 1,38,-1
 813 206 l 1,39,-1
 813 389 l 1,36,-1
411 389 m 1,40,-1
 598 389 l 1,41,-1
 598 206 l 1,42,-1
 411 206 l 1,43,-1
 411 389 l 1,40,-1
-3 389 m 1,44,-1
 184 389 l 1,45,-1
 184 206 l 1,46,-1
 -3 206 l 1,47,-1
 -3 389 l 1,44,-1
1013 596 m 1,48,-1
 1200 596 l 1,49,-1
 1200 413 l 1,50,-1
 1013 413 l 1,51,-1
 1013 596 l 1,48,-1
611 596 m 1,52,-1
 798 596 l 1,53,-1
 798 413 l 1,54,-1
 611 413 l 1,55,-1
 611 596 l 1,52,-1
197 596 m 1,56,-1
 384 596 l 1,57,-1
 384 413 l 1,58,-1
 197 413 l 1,59,-1
 197 596 l 1,56,-1
813 797 m 1,60,-1
 1000 797 l 1,61,-1
 1000 614 l 1,62,-1
 813 614 l 1,63,-1
 813 797 l 1,60,-1
411 797 m 1,64,-1
 598 797 l 1,65,-1
 598 614 l 1,66,-1
 411 614 l 1,67,-1
 411 797 l 1,64,-1
-3 797 m 1,68,-1
 184 797 l 1,69,-1
 184 614 l 1,70,-1
 -3 614 l 1,71,-1
 -3 797 l 1,68,-1
1013 998 m 1,72,-1
 1200 998 l 1,73,-1
 1200 815 l 1,74,-1
 1013 815 l 1,75,-1
 1013 998 l 1,72,-1
611 998 m 1,76,-1
 798 998 l 1,77,-1
 798 815 l 1,78,-1
 611 815 l 1,79,-1
 611 998 l 1,76,-1
197 998 m 1,80,-1
 384 998 l 1,81,-1
 384 815 l 1,82,-1
 197 815 l 1,83,-1
 197 998 l 1,80,-1
813 1208 m 1,84,-1
 1000 1208 l 1,85,-1
 1000 1025 l 1,86,-1
 813 1025 l 1,87,-1
 813 1208 l 1,84,-1
411 1208 m 1,88,-1
 598 1208 l 1,89,-1
 598 1025 l 1,90,-1
 411 1025 l 1,91,-1
 411 1208 l 1,88,-1
-3 1208 m 1,92,-1
 184 1208 l 1,93,-1
 184 1025 l 1,94,-1
 -3 1025 l 1,95,-1
 -3 1208 l 1,92,-1
1014 1427 m 1,96,-1
 1201 1427 l 1,97,-1
 1201 1244 l 1,98,-1
 1014 1244 l 1,99,-1
 1014 1427 l 1,96,-1
612 1427 m 1,100,-1
 799 1427 l 1,101,-1
 799 1244 l 1,102,-1
 612 1244 l 1,103,-1
 612 1427 l 1,100,-1
198 1427 m 1,104,-1
 385 1427 l 1,105,-1
 385 1244 l 1,106,-1
 198 1244 l 1,107,-1
 198 1427 l 1,104,-1
813 1640 m 1,108,-1
 1000 1640 l 1,109,-1
 1000 1457 l 1,110,-1
 813 1457 l 1,111,-1
 813 1640 l 1,108,-1
411 1640 m 1,112,-1
 598 1640 l 1,113,-1
 598 1457 l 1,114,-1
 411 1457 l 1,115,-1
 411 1640 l 1,112,-1
-3 1640 m 1,116,-1
 184 1640 l 1,117,-1
 184 1457 l 1,118,-1
 -3 1457 l 1,119,-1
 -3 1640 l 1,116,-1
EndSplineSet
EndChar

StartChar: dkshade
Encoding: 9619 9619 188
Width: 1200
GlyphClass: 2
Flags: W
LayerCount: 2
Fore
SplineSet
1013 -225 m 1,0,-1
 1200 -225 l 1,1,-1
 1200 -408 l 1,2,-1
 1013 -408 l 1,3,-1
 1013 -225 l 1,0,-1
611 -225 m 1,4,-1
 798 -225 l 1,5,-1
 798 -408 l 1,6,-1
 611 -408 l 1,7,-1
 611 -225 l 1,4,-1
197 -225 m 1,8,-1
 384 -225 l 1,9,-1
 384 -408 l 1,10,-1
 197 -408 l 1,11,-1
 197 -225 l 1,8,-1
813 -129 m 1,12,-1
 1000 -129 l 1,13,-1
 1000 -312 l 1,14,-1
 813 -312 l 1,15,-1
 813 -129 l 1,12,-1
411 -129 m 1,16,-1
 598 -129 l 1,17,-1
 598 -312 l 1,18,-1
 411 -312 l 1,19,-1
 411 -129 l 1,16,-1
-3 -129 m 1,20,-1
 184 -129 l 1,21,-1
 184 -312 l 1,22,-1
 -3 -312 l 1,23,-1
 -3 -129 l 1,20,-1
1013 87 m 1,24,-1
 1200 87 l 1,25,-1
 1200 -96 l 1,26,-1
 1013 -96 l 1,27,-1
 1013 87 l 1,24,-1
611 87 m 1,28,-1
 798 87 l 1,29,-1
 798 -96 l 1,30,-1
 611 -96 l 1,31,-1
 611 87 l 1,28,-1
197 87 m 1,32,-1
 384 87 l 1,33,-1
 384 -96 l 1,34,-1
 197 -96 l 1,35,-1
 197 87 l 1,32,-1
816 173 m 1,36,-1
 1003 173 l 1,37,-1
 1003 -10 l 1,38,-1
 816 -10 l 1,39,-1
 816 173 l 1,36,-1
414 173 m 1,40,-1
 601 173 l 1,41,-1
 601 -10 l 1,42,-1
 414 -10 l 1,43,-1
 414 173 l 1,40,-1
0 173 m 1,44,-1
 187 173 l 1,45,-1
 187 -10 l 1,46,-1
 0 -10 l 1,47,-1
 0 173 l 1,44,-1
1013 396 m 1,48,-1
 1200 396 l 1,49,-1
 1200 213 l 1,50,-1
 1013 213 l 1,51,-1
 1013 396 l 1,48,-1
611 396 m 1,52,-1
 798 396 l 1,53,-1
 798 213 l 1,54,-1
 611 213 l 1,55,-1
 611 396 l 1,52,-1
197 396 m 1,56,-1
 384 396 l 1,57,-1
 384 213 l 1,58,-1
 197 213 l 1,59,-1
 197 396 l 1,56,-1
813 477 m 1,60,-1
 1000 477 l 1,61,-1
 1000 294 l 1,62,-1
 813 294 l 1,63,-1
 813 477 l 1,60,-1
411 477 m 1,64,-1
 598 477 l 1,65,-1
 598 294 l 1,66,-1
 411 294 l 1,67,-1
 411 477 l 1,64,-1
-3 477 m 1,68,-1
 184 477 l 1,69,-1
 184 294 l 1,70,-1
 -3 294 l 1,71,-1
 -3 477 l 1,68,-1
1013 684 m 1,72,-1
 1200 684 l 1,73,-1
 1200 501 l 1,74,-1
 1013 501 l 1,75,-1
 1013 684 l 1,72,-1
611 684 m 1,76,-1
 798 684 l 1,77,-1
 798 501 l 1,78,-1
 611 501 l 1,79,-1
 611 684 l 1,76,-1
197 684 m 1,80,-1
 384 684 l 1,81,-1
 384 501 l 1,82,-1
 197 501 l 1,83,-1
 197 684 l 1,80,-1
816 774 m 1,84,-1
 1003 774 l 1,85,-1
 1003 591 l 1,86,-1
 816 591 l 1,87,-1
 816 774 l 1,84,-1
414 774 m 1,88,-1
 601 774 l 1,89,-1
 601 591 l 1,90,-1
 414 591 l 1,91,-1
 414 774 l 1,88,-1
0 774 m 1,92,-1
 187 774 l 1,93,-1
 187 591 l 1,94,-1
 0 591 l 1,95,-1
 0 774 l 1,92,-1
1013 969 m 1,96,-1
 1200 969 l 1,97,-1
 1200 786 l 1,98,-1
 1013 786 l 1,99,-1
 1013 969 l 1,96,-1
611 969 m 1,100,-1
 798 969 l 1,101,-1
 798 786 l 1,102,-1
 611 786 l 1,103,-1
 611 969 l 1,100,-1
197 969 m 1,104,-1
 384 969 l 1,105,-1
 384 786 l 1,106,-1
 197 786 l 1,107,-1
 197 969 l 1,104,-1
816 1062 m 1,108,-1
 1003 1062 l 1,109,-1
 1003 879 l 1,110,-1
 816 879 l 1,111,-1
 816 1062 l 1,108,-1
414 1062 m 1,112,-1
 601 1062 l 1,113,-1
 601 879 l 1,114,-1
 414 879 l 1,115,-1
 414 1062 l 1,112,-1
0 1062 m 1,116,-1
 187 1062 l 1,117,-1
 187 879 l 1,118,-1
 0 879 l 1,119,-1
 0 1062 l 1,116,-1
1013 1248 m 1,120,-1
 1200 1248 l 1,121,-1
 1200 1065 l 1,122,-1
 1013 1065 l 1,123,-1
 1013 1248 l 1,120,-1
611 1248 m 1,124,-1
 798 1248 l 1,125,-1
 798 1065 l 1,126,-1
 611 1065 l 1,127,-1
 611 1248 l 1,124,-1
197 1248 m 1,128,-1
 384 1248 l 1,129,-1
 384 1065 l 1,130,-1
 197 1065 l 1,131,-1
 197 1248 l 1,128,-1
813 1335 m 1,132,-1
 1000 1335 l 1,133,-1
 1000 1152 l 1,134,-1
 813 1152 l 1,135,-1
 813 1335 l 1,132,-1
411 1335 m 1,136,-1
 598 1335 l 1,137,-1
 598 1152 l 1,138,-1
 411 1152 l 1,139,-1
 411 1335 l 1,136,-1
-3 1335 m 1,140,-1
 184 1335 l 1,141,-1
 184 1152 l 1,142,-1
 -3 1152 l 1,143,-1
 -3 1335 l 1,140,-1
1013 1546 m 1,144,-1
 1200 1546 l 1,145,-1
 1200 1363 l 1,146,-1
 1013 1363 l 1,147,-1
 1013 1546 l 1,144,-1
611 1546 m 1,148,-1
 798 1546 l 1,149,-1
 798 1363 l 1,150,-1
 611 1363 l 1,151,-1
 611 1546 l 1,148,-1
197 1546 m 1,152,-1
 384 1546 l 1,153,-1
 384 1363 l 1,154,-1
 197 1363 l 1,155,-1
 197 1546 l 1,152,-1
813 1640 m 1,156,-1
 1000 1640 l 1,157,-1
 1000 1457 l 1,158,-1
 813 1457 l 1,159,-1
 813 1640 l 1,156,-1
411 1640 m 1,160,-1
 598 1640 l 1,161,-1
 598 1457 l 1,162,-1
 411 1457 l 1,163,-1
 411 1640 l 1,160,-1
-3 1640 m 1,164,-1
 184 1640 l 1,165,-1
 184 1457 l 1,166,-1
 -3 1457 l 1,167,-1
 -3 1640 l 1,164,-1
EndSplineSet
EndChar

StartChar: uni2594
Encoding: 9620 9620 189
Width: 1200
GlyphClass: 2
Flags: W
LayerCount: 2
Fore
SplineSet
0 1636 m 1,0,-1
 1200 1636 l 1,1,-1
 1200 1380 l 1,2,-1
 0 1380 l 1,3,-1
 0 1636 l 1,0,-1
EndSplineSet
EndChar

StartChar: uni2595
Encoding: 9621 9621 190
Width: 1200
GlyphClass: 2
Flags: W
LayerCount: 2
Fore
SplineSet
1050 1638 m 1,0,-1
 1200 1638 l 1,1,-1
 1200 -408 l 1,2,-1
 1050 -408 l 1,3,-1
 1050 1638 l 1,0,-1
EndSplineSet
EndChar

StartChar: uni25E2
Encoding: 9698 9698 191
Width: 1200
GlyphClass: 2
Flags: W
LayerCount: 2
Fore
SplineSet
1200 1638 m 1,0,-1
 1200 -408 l 1,1,-1
 0 -408 l 1,2,-1
 1200 1638 l 1,0,-1
EndSplineSet
EndChar

StartChar: uni25E3
Encoding: 9699 9699 192
Width: 1200
GlyphClass: 2
Flags: W
LayerCount: 2
Fore
SplineSet
0 1638 m 1,0,-1
 1200 -408 l 1,1,-1
 0 -408 l 1,2,-1
 0 1638 l 1,0,-1
EndSplineSet
EndChar

StartChar: uni25E4
Encoding: 9700 9700 193
Width: 1200
GlyphClass: 2
Flags: W
LayerCount: 2
Fore
SplineSet
0 1638 m 1,0,-1
 1200 1638 l 1,1,-1
 0 -408 l 1,2,-1
 0 1638 l 1,0,-1
EndSplineSet
EndChar

StartChar: uni25E5
Encoding: 9701 9701 194
Width: 1200
GlyphClass: 2
Flags: W
LayerCount: 2
Fore
SplineSet
0 1638 m 1,0,-1
 1200 1638 l 1,1,-1
 1200 -408 l 1,2,-1
 0 1638 l 1,0,-1
EndSplineSet
EndChar

StartChar: uni25FC
Encoding: 9724 9724 195
Width: 1200
GlyphClass: 2
Flags: W
LayerCount: 2
Fore
SplineSet
0 975 m 1,0,-1
 975 975 l 1,1,-1
 975 0 l 1,2,-1
 0 0 l 1,3,-1
 0 975 l 1,0,-1
EndSplineSet
EndChar
